{"glyphs":{"0":{"ha":806,"x_min":0,"x_max":0,"o":"m 403 762 b 271 738 355 762 312 754 b 166 665 231 722 196 698 b 95 544 136 633 112 592 b 69 374 78 495 69 438 b 95 209 69 313 78 258 b 166 86 112 161 136 120 b 271 9 196 53 231 27 b 403 -17 312 -8 355 -17 b 534 9 450 -17 494 -8 b 640 86 575 27 610 53 b 710 209 670 120 693 161 b 736 374 727 258 736 313 b 710 541 736 437 727 492 b 640 663 693 589 670 630 b 534 738 610 696 575 721 b 403 762 494 754 450 762 z m 403 71 b 312 92 370 71 340 78 b 241 152 284 106 261 126 b 194 248 221 179 205 211 b 178 374 183 286 178 328 b 194 502 178 422 183 464 b 241 596 205 539 221 571 b 312 655 261 622 284 641 b 403 675 340 668 370 675 b 564 597 468 675 522 649 b 627 374 606 545 627 471 b 610 248 627 328 621 286 b 563 152 598 211 583 179 b 492 92 543 126 519 106 b 403 71 465 78 435 71 z "},"1":{"ha":597,"x_min":0,"x_max":0,"o":"m 92 86 l 92 0 l 564 0 l 564 86 l 392 86 l 392 746 l 335 746 b 285 708 324 732 307 719 b 211 678 263 696 238 686 b 131 659 184 669 158 663 b 62 652 105 654 82 652 l 87 567 b 200 581 125 567 163 572 b 286 611 237 590 266 600 l 286 86 z "},"2":{"ha":708,"x_min":0,"x_max":0,"o":"m 60 536 b 65 486 60 520 61 503 b 79 447 69 470 73 456 l 170 433 b 155 514 160 460 155 487 b 196 632 155 563 169 602 b 318 677 224 662 264 677 b 446 634 374 677 416 663 b 490 515 476 605 490 565 b 456 392 490 474 479 433 b 363 276 433 352 402 313 b 228 169 324 238 279 203 b 69 75 177 135 124 104 l 69 0 l 632 0 l 632 90 l 231 90 b 361 168 274 112 317 138 b 478 267 405 197 444 230 b 563 385 513 303 541 342 b 596 519 585 428 596 472 b 575 624 596 559 589 594 b 518 700 561 654 542 680 b 433 746 494 720 466 736 b 326 762 400 757 364 762 b 216 744 286 762 249 756 b 132 694 183 731 155 715 b 78 622 109 673 91 649 b 60 536 66 594 60 566 z "},"3":{"ha":708,"x_min":0,"x_max":0,"o":"m 494 524 b 442 399 494 474 477 432 b 271 349 407 365 350 349 l 251 349 b 226 349 243 349 235 349 b 204 351 218 350 210 350 b 191 351 198 351 193 351 l 186 253 b 254 261 208 257 230 260 b 314 262 277 262 297 262 b 407 247 349 262 380 257 b 474 206 434 237 456 223 b 515 146 492 189 506 169 b 529 77 524 124 529 101 b 516 10 529 54 525 32 b 478 -48 508 -12 495 -31 b 413 -90 460 -65 439 -79 b 322 -106 387 -100 356 -106 b 192 -67 271 -106 228 -93 b 115 33 157 -42 131 -8 l 53 -50 b 87 -101 61 -67 73 -84 b 143 -147 102 -118 121 -133 b 221 -181 165 -161 191 -172 b 322 -193 250 -189 284 -193 b 452 -172 370 -193 413 -186 b 551 -113 491 -157 524 -138 b 616 -28 579 -89 600 -60 b 639 75 631 5 639 39 b 619 164 639 107 632 137 b 566 236 605 192 588 216 b 492 287 544 256 519 273 b 408 315 464 300 436 310 b 475 345 430 323 452 333 b 539 390 498 358 520 373 b 588 451 559 408 575 428 b 607 530 601 475 607 501 b 590 618 607 561 601 590 b 537 692 578 646 561 671 b 451 744 514 714 485 731 b 330 762 416 756 376 762 b 225 747 291 762 256 757 b 147 708 195 737 168 724 b 96 653 126 692 109 673 b 72 593 83 633 75 613 l 149 533 b 166 584 151 550 157 567 b 201 631 175 601 186 617 b 255 665 216 645 234 656 b 328 677 276 673 300 677 b 406 664 358 677 384 673 b 458 628 427 654 444 643 b 486 579 471 614 481 598 b 494 524 492 561 494 542 z "},"4":{"ha":764,"x_min":0,"x_max":0,"o":"m 724 58 l 724 147 l 603 147 l 603 746 l 460 746 l 81 183 l 43 127 l 68 58 l 503 58 l 503 -165 l 603 -165 l 603 58 z m 503 147 l 170 147 l 503 650 z "},"5":{"ha":708,"x_min":0,"x_max":0,"o":"m 374 416 b 278 405 338 416 306 413 b 210 378 249 397 226 388 l 241 654 l 637 654 l 637 746 l 160 746 l 110 315 l 192 273 b 257 313 207 289 229 302 b 347 329 286 324 316 329 b 428 314 376 329 403 324 b 494 272 454 305 476 290 b 537 205 512 253 526 231 b 553 115 547 179 553 149 b 540 31 553 85 549 57 b 501 -40 532 4 519 -20 b 436 -89 484 -60 462 -77 b 343 -107 410 -101 379 -107 b 264 -95 314 -107 288 -103 b 202 -65 241 -87 220 -77 b 156 -23 184 -52 169 -38 b 127 24 144 -8 134 8 l 61 -60 b 169 -154 85 -97 121 -128 b 340 -193 216 -180 274 -193 b 473 -170 389 -193 434 -185 b 575 -103 513 -154 547 -132 b 640 -3 603 -75 624 -42 b 663 121 655 35 663 76 b 636 252 663 171 654 215 b 568 344 618 289 596 319 b 475 398 540 368 509 386 b 374 416 441 410 407 416 z "},"6":{"ha":764,"x_min":0,"x_max":0,"o":"m 386 -17 b 530 13 442 -17 491 -7 b 628 88 570 33 603 58 b 682 188 653 118 671 152 b 699 292 693 223 699 258 b 683 391 699 323 693 356 b 633 485 672 426 655 457 b 544 555 610 513 581 537 b 412 583 507 574 463 583 b 303 563 369 583 333 576 b 233 518 274 549 251 534 b 184 453 212 499 196 477 l 180 454 b 192 579 181 494 185 536 b 229 699 199 623 211 663 b 299 790 246 736 269 766 b 415 827 328 815 367 827 b 486 816 441 827 465 823 b 539 790 506 809 524 801 b 576 755 555 780 567 768 b 595 717 585 741 592 729 l 664 786 b 633 831 658 801 647 816 b 581 872 619 847 602 860 b 510 900 560 883 537 893 b 421 911 483 907 453 911 b 262 869 359 911 306 897 b 154 756 218 841 182 803 b 94 592 126 709 106 654 b 75 397 81 530 75 465 b 94 231 75 337 81 282 b 151 101 106 181 125 137 b 248 16 176 65 209 37 b 386 -17 286 -5 333 -16 z m 191 294 b 209 383 191 328 198 357 b 254 447 221 408 236 430 b 319 485 273 464 294 476 b 395 498 343 494 368 498 b 470 485 421 498 446 494 b 531 444 493 475 514 462 b 572 376 548 425 562 403 b 587 285 582 350 587 319 b 569 187 587 247 581 214 b 523 119 557 159 542 137 b 458 79 504 101 482 87 b 386 66 434 71 410 66 b 303 86 355 66 327 73 b 241 137 279 99 258 116 b 203 209 225 158 212 182 b 191 294 195 237 191 265 z "},"7":{"ha":681,"x_min":0,"x_max":0,"o":"m 623 746 l 35 746 l 35 653 l 498 653 b 398 480 463 600 430 543 b 317 283 367 418 340 353 b 254 46 290 205 269 126 b 231 -176 239 -34 231 -108 l 336 -176 b 363 39 341 -108 350 -36 b 418 261 376 114 395 188 b 506 484 442 340 471 414 b 623 673 540 554 579 617 z "},"8":{"ha":764,"x_min":0,"x_max":0,"o":"m 528 481 b 593 525 552 492 573 506 b 639 586 609 541 625 561 b 660 682 653 611 660 643 b 638 775 660 716 653 747 b 579 847 624 803 604 827 b 492 894 554 867 525 883 b 383 911 458 905 422 911 b 274 893 344 911 308 905 b 188 844 241 881 212 864 b 131 769 163 823 144 798 b 110 676 117 741 110 710 b 129 586 110 641 116 611 b 171 525 141 561 155 541 b 233 481 189 506 209 492 b 149 429 201 468 172 451 b 91 357 127 411 108 387 b 65 249 74 327 65 291 b 90 138 65 208 73 171 b 158 55 106 105 129 78 b 260 2 187 32 221 15 b 387 -17 299 -11 341 -17 b 511 1 432 -17 473 -11 b 610 54 549 14 582 31 b 675 137 638 76 660 104 b 699 253 691 171 699 209 b 671 358 699 295 689 330 b 612 429 653 387 634 411 b 528 481 588 451 559 468 z m 212 672 b 226 736 212 696 217 718 b 263 785 235 755 248 772 b 317 817 279 799 296 809 b 382 828 337 824 359 828 b 448 817 405 828 427 824 b 503 785 469 809 487 799 b 540 736 518 772 531 755 b 554 672 549 718 554 696 b 540 608 554 648 549 627 b 503 559 531 589 518 572 b 448 528 487 546 469 535 b 382 517 427 520 405 517 b 317 528 359 517 337 520 b 263 559 296 535 279 546 b 226 608 248 572 235 589 b 212 672 217 627 212 648 z m 174 250 b 190 327 174 279 179 304 b 235 385 201 349 216 369 b 301 421 253 400 275 412 b 380 433 326 429 353 433 b 460 421 408 433 435 429 b 528 385 486 412 508 400 b 573 327 547 369 562 349 b 590 250 584 304 590 279 b 573 172 590 220 584 194 b 529 115 562 150 548 131 b 463 80 510 99 488 88 b 380 68 437 72 409 68 b 299 80 351 68 324 72 b 233 115 274 88 252 99 b 190 172 215 131 200 150 b 174 250 179 194 174 220 z "},"9":{"ha":764,"x_min":0,"x_max":0,"o":"m 363 762 b 220 732 306 762 259 752 b 125 657 181 713 149 687 b 73 556 101 626 84 593 b 57 452 62 519 57 485 b 72 351 57 420 62 386 b 122 253 82 315 99 282 b 212 178 145 223 175 198 b 345 149 248 158 293 149 b 452 169 387 149 423 155 b 524 212 481 182 505 197 b 576 277 545 231 562 252 l 579 275 b 564 117 577 217 572 164 b 524 -4 556 70 542 29 b 452 -81 505 -38 481 -63 b 343 -109 423 -99 387 -109 b 274 -97 318 -109 295 -105 b 219 -70 253 -90 235 -81 b 180 -33 204 -58 191 -46 b 155 7 169 -19 161 -6 l 86 -68 b 119 -113 92 -83 103 -98 b 175 -153 134 -127 153 -141 b 251 -182 197 -165 222 -175 b 342 -193 279 -190 309 -193 b 502 -157 405 -193 458 -181 b 606 -54 545 -133 580 -99 b 663 108 633 -10 651 44 b 681 323 675 172 681 244 b 662 498 681 386 675 445 b 604 637 649 552 630 599 b 506 729 578 676 546 707 b 363 762 466 751 418 762 z m 566 444 b 547 356 564 412 558 383 b 502 290 536 330 521 308 b 437 248 483 271 461 258 b 361 233 413 238 388 233 b 285 250 333 233 308 239 b 224 296 262 261 241 276 b 183 369 206 316 192 340 b 168 464 173 397 168 429 b 185 560 168 501 174 533 b 229 627 196 587 211 609 b 292 666 248 644 269 657 b 364 679 315 675 339 679 b 451 659 397 679 426 672 b 515 606 476 646 498 628 b 553 531 532 585 545 560 b 566 444 561 503 566 474 z "},"˛":{"ha":507,"x_min":0,"x_max":0,"o":"m 46 0 l 415 0 l 415 926 l 46 926 z m 92 46 l 92 880 l 369 880 l 369 46 z "},"―":{"ha":507,"x_min":0,"x_max":0,"o":"m 46 0 l 415 0 l 415 926 l 46 926 z m 92 46 l 92 880 l 369 880 l 369 46 z "},"‖":{"ha":507,"x_min":0,"x_max":0,"o":"m 46 0 l 415 0 l 415 926 l 46 926 z m 92 46 l 92 880 l 369 880 l 369 46 z "},"‗":{"ha":507,"x_min":0,"x_max":0,"o":"m 46 0 l 415 0 l 415 926 l 46 926 z m 92 46 l 92 880 l 369 880 l 369 46 z "},"‛":{"ha":507,"x_min":0,"x_max":0,"o":"m 46 0 l 415 0 l 415 926 l 46 926 z m 92 46 l 92 880 l 369 880 l 369 46 z "},"‟":{"ha":507,"x_min":0,"x_max":0,"o":"m 46 0 l 415 0 l 415 926 l 46 926 z m 92 46 l 92 880 l 369 880 l 369 46 z "},"†":{"ha":507,"x_min":0,"x_max":0,"o":"m 46 0 l 415 0 l 415 926 l 46 926 z m 92 46 l 92 880 l 369 880 l 369 46 z "},"‡":{"ha":507,"x_min":0,"x_max":0,"o":"m 46 0 l 415 0 l 415 926 l 46 926 z m 92 46 l 92 880 l 369 880 l 369 46 z "},"‣":{"ha":507,"x_min":0,"x_max":0,"o":"m 46 0 l 415 0 l 415 926 l 46 926 z m 92 46 l 92 880 l 369 880 l 369 46 z "},"․":{"ha":507,"x_min":0,"x_max":0,"o":"m 46 0 l 415 0 l 415 926 l 46 926 z m 92 46 l 92 880 l 369 880 l 369 46 z "},"‥":{"ha":507,"x_min":0,"x_max":0,"o":"m 46 0 l 415 0 l 415 926 l 46 926 z m 92 46 l 92 880 l 369 880 l 369 46 z "},"\u0000":{"ha":0,"x_min":0,"x_max":0,"o":""},"\r":{"ha":347,"x_min":0,"x_max":0,"o":""}," ":{"ha":347,"x_min":0,"x_max":0,"o":""},"!":{"ha":318,"x_min":0,"x_max":0,"o":"m 236 74 b 213 131 236 98 228 117 b 157 153 197 145 178 153 b 104 131 137 153 120 145 b 81 74 89 117 81 98 b 104 13 81 48 89 27 b 157 -9 120 -2 137 -9 b 213 13 178 -9 197 -2 b 236 74 228 27 236 48 z m 103 260 l 208 260 l 208 904 l 103 904 z "},"\"":{"ha":458,"x_min":0,"x_max":0,"o":"m 77 904 l 77 550 l 174 550 l 174 904 z m 285 904 l 285 550 l 382 550 l 382 904 z "},"#":{"ha":699,"x_min":0,"x_max":0,"o":"m 500 243 l 533 421 l 663 421 l 671 494 l 547 494 l 582 696 l 494 696 l 457 494 l 321 494 l 355 696 l 268 696 l 233 494 l 100 494 l 89 421 l 220 421 l 186 243 l 66 243 l 56 171 l 172 171 l 136 -33 l 224 -33 l 260 171 l 399 171 l 363 -33 l 450 -33 l 486 171 l 628 171 l 639 243 z m 446 421 l 412 243 l 273 243 l 307 421 z "},"$":{"ha":750,"x_min":0,"x_max":0,"o":"m 428 1043 l 340 1043 l 340 905 b 244 882 305 903 273 895 b 170 832 216 869 191 852 b 120 761 148 812 132 788 b 103 673 109 734 103 705 b 122 575 103 636 109 604 b 172 501 134 547 151 522 b 247 447 194 480 218 462 b 340 410 276 433 307 420 l 340 85 b 223 129 293 89 254 104 b 158 214 193 153 171 182 l 74 163 b 107 102 80 142 91 121 b 165 52 123 83 142 66 b 244 15 189 37 215 24 b 340 -1 274 5 306 0 l 340 -142 l 428 -142 l 428 -1 b 533 24 467 2 502 11 b 612 77 564 38 590 55 b 663 150 633 98 650 122 b 681 240 675 178 681 208 b 661 337 681 277 674 310 b 606 410 647 365 629 389 b 525 461 583 430 556 447 b 428 497 495 475 462 487 l 428 815 b 522 773 468 809 499 795 b 570 700 544 751 560 727 l 659 750 b 632 806 654 769 645 788 b 583 853 619 823 602 839 b 513 887 563 867 539 878 b 428 903 487 896 458 901 z m 576 231 b 535 130 576 189 563 155 b 428 85 508 104 472 89 l 428 387 b 486 365 448 380 467 372 b 533 335 504 357 519 347 b 565 292 546 323 557 308 b 576 231 572 275 576 255 z m 205 676 b 237 767 205 710 216 741 b 340 818 257 794 292 811 l 340 519 b 288 543 322 527 304 535 b 245 573 272 551 258 561 b 216 616 233 585 223 600 b 205 676 209 633 205 653 z "},"%":{"ha":1141,"x_min":0,"x_max":0,"o":"m 346 0 l 856 904 l 767 904 l 257 0 z m 475 661 b 419 845 475 738 456 799 b 267 913 383 890 332 913 b 110 845 200 913 148 890 b 53 661 72 799 53 738 b 110 476 53 583 72 522 b 267 407 148 430 200 407 b 419 476 332 407 383 430 b 475 661 456 522 475 583 z m 389 660 b 355 527 389 604 378 560 b 264 478 333 494 303 478 b 172 527 225 478 194 494 b 138 660 149 560 138 604 b 172 793 138 715 149 760 b 264 844 194 827 225 844 b 355 793 303 844 333 827 b 389 660 378 760 389 715 z m 1089 243 b 1034 426 1089 320 1071 381 b 881 494 997 472 946 494 b 724 426 814 494 762 472 b 667 243 686 381 667 320 b 724 57 667 165 686 103 b 881 -12 762 11 814 -12 b 1034 57 946 -12 997 11 b 1089 243 1071 103 1089 165 z m 1003 241 b 970 109 1003 186 992 142 b 878 60 948 76 917 60 b 786 109 839 60 809 76 b 752 241 763 142 752 186 b 786 375 752 297 763 342 b 878 425 809 408 839 425 b 970 375 917 425 948 408 b 1003 241 992 342 1003 297 z "},"&":{"ha":899,"x_min":0,"x_max":0,"o":"m 778 375 l 675 375 b 646 235 675 326 665 279 l 449 479 b 504 512 464 488 483 499 b 565 565 526 526 546 544 b 613 638 583 586 600 610 b 633 733 627 667 633 698 b 620 806 633 759 629 784 b 578 866 610 829 597 849 b 511 906 560 883 538 897 b 418 921 484 916 453 921 b 333 906 387 921 359 916 b 266 866 307 897 285 883 b 221 803 247 849 232 828 b 205 724 211 779 205 752 b 228 622 205 685 213 651 b 278 543 243 594 260 567 b 290 527 280 540 284 534 b 310 503 295 520 302 512 b 247 472 291 495 270 485 b 179 423 223 459 200 443 b 126 352 158 403 140 380 b 104 256 112 325 104 293 b 127 138 104 211 112 172 b 191 54 142 104 164 76 b 288 1 218 31 250 14 b 408 -17 325 -11 365 -17 b 540 8 456 -17 500 -9 b 647 78 580 25 616 48 b 678 40 658 64 669 51 b 703 9 687 28 695 18 b 725 -17 711 0 719 -9 l 806 40 b 779 72 798 50 789 60 b 748 108 771 82 760 94 b 711 154 736 122 724 137 b 761 260 733 186 749 222 b 778 375 772 298 778 336 z m 408 71 b 323 86 376 71 347 76 b 262 127 298 97 278 110 b 225 186 245 144 233 164 b 212 254 216 209 212 231 b 228 328 212 282 218 306 b 267 382 239 349 252 367 b 315 419 283 397 299 409 b 358 440 332 428 346 436 l 590 150 b 512 92 568 126 542 107 b 408 71 482 78 447 71 z m 359 591 b 322 659 341 617 328 639 b 313 720 316 678 313 698 b 340 803 313 753 322 781 b 419 836 358 825 384 836 b 470 826 439 836 456 833 b 505 800 485 819 496 810 b 525 765 514 790 520 778 b 532 729 529 752 532 740 b 517 653 532 700 527 674 b 482 598 507 631 496 613 b 437 563 468 584 453 572 b 397 543 422 554 408 548 b 359 591 379 566 366 582 z "},"'":{"ha":278,"x_min":0,"x_max":0,"o":"m 90 904 l 90 550 l 187 550 l 187 904 z "},"(":{"ha":347,"x_min":0,"x_max":0,"o":"m 69 381 b 96 127 69 286 78 201 b 157 -64 114 53 135 -11 b 245 -223 183 -125 212 -178 l 332 -223 b 249 -47 300 -170 273 -111 b 191 145 227 9 208 73 b 165 381 174 218 165 297 b 191 616 165 465 174 544 b 249 809 208 689 227 753 b 332 987 273 874 300 933 l 245 987 b 157 827 212 941 183 888 b 96 636 135 774 114 710 b 69 381 78 561 69 477 z "},")":{"ha":347,"x_min":0,"x_max":0,"o":"m 278 382 b 251 636 278 478 269 563 b 191 827 233 710 213 774 b 102 987 164 888 135 941 l 16 987 b 98 810 47 934 74 875 b 156 618 120 755 139 691 b 182 382 173 545 182 467 b 156 147 182 298 173 219 b 98 -45 139 74 120 10 b 16 -223 74 -110 47 -169 l 102 -223 b 191 -64 135 -178 164 -125 b 251 127 213 -11 233 53 b 278 382 269 202 278 287 z "},"*":{"ha":558,"x_min":0,"x_max":0,"o":"m 232 946 l 239 745 l 235 741 l 45 810 l 17 721 l 210 665 l 212 663 l 87 501 l 164 447 l 277 614 l 281 615 l 395 447 l 469 503 l 346 661 l 347 665 l 542 721 l 513 810 l 322 741 l 318 745 l 325 946 z "},"+":{"ha":708,"x_min":0,"x_max":0,"o":"m 396 357 l 396 606 l 298 606 l 298 357 l 49 357 l 49 271 l 298 271 l 298 21 l 396 21 l 396 271 l 646 271 l 646 357 z "},",":{"ha":278,"x_min":0,"x_max":0,"o":"m 96 147 l 96 -1 b 76 -84 96 -37 89 -64 b 28 -125 62 -104 46 -118 l 96 -182 b 171 -117 125 -169 151 -148 b 201 -1 191 -87 201 -48 l 201 147 z "},"-":{"ha":472,"x_min":0,"x_max":0,"o":"m 41 359 l 41 268 l 431 268 l 431 359 z "},".":{"ha":278,"x_min":0,"x_max":0,"o":"m 216 74 b 193 131 216 98 209 117 b 138 153 177 145 159 153 b 85 131 118 153 101 145 b 61 74 69 117 61 98 b 85 13 61 48 69 27 b 138 -9 101 -2 118 -9 b 193 13 159 -9 177 -2 b 216 74 209 27 216 48 z "},"/":{"ha":590,"x_min":0,"x_max":0,"o":"m 114 -223 l 572 987 l 478 987 l 20 -223 z "},":":{"ha":278,"x_min":0,"x_max":0,"o":"m 216 563 b 193 620 216 587 209 606 b 138 642 177 634 159 642 b 85 620 118 642 101 634 b 61 563 69 606 61 587 b 85 502 61 537 69 516 b 138 479 101 487 118 479 b 193 502 159 479 177 487 b 216 563 209 516 216 537 z m 216 74 b 193 131 216 98 209 117 b 138 153 177 145 159 153 b 85 131 118 153 101 145 b 61 74 69 117 61 98 b 85 13 61 48 69 27 b 138 -9 101 -2 118 -9 b 193 13 159 -9 177 -2 b 216 74 209 27 216 48 z "},";":{"ha":278,"x_min":0,"x_max":0,"o":"m 96 147 l 96 -1 b 76 -84 96 -37 89 -64 b 28 -125 62 -104 46 -118 l 96 -182 b 171 -117 125 -169 151 -148 b 201 -1 191 -87 201 -48 l 201 147 z m 224 563 b 201 620 224 587 217 606 b 146 642 185 634 167 642 b 93 620 126 642 109 634 b 69 563 77 606 69 587 b 93 502 69 537 77 516 b 146 479 109 487 126 479 b 201 502 167 479 185 487 b 224 563 217 516 224 537 z "},"<":{"ha":708,"x_min":0,"x_max":0,"o":"m 453 -20 l 513 37 l 245 323 l 515 600 l 453 660 l 132 323 z "},"=":{"ha":708,"x_min":0,"x_max":0,"o":"m 646 447 l 646 447 l 49 447 l 49 361 l 646 361 z m 646 252 l 646 252 l 49 252 l 49 166 l 646 166 z "},">":{"ha":708,"x_min":0,"x_max":0,"o":"m 168 29 l 228 -28 l 549 315 l 228 652 l 165 591 l 435 315 z "},"?":{"ha":555,"x_min":0,"x_max":0,"o":"m 338 74 b 314 131 338 98 330 117 b 258 153 298 145 280 153 b 205 131 239 153 221 145 b 182 74 190 117 182 98 b 205 13 182 48 190 27 b 258 -9 221 -2 239 -9 b 314 13 280 -9 298 -2 b 338 74 330 27 338 48 z m 20 779 l 110 732 b 164 804 122 760 140 784 b 257 833 188 824 219 833 b 332 821 286 833 310 829 b 384 786 353 813 371 801 b 414 735 398 771 407 754 b 424 675 421 716 424 696 b 402 597 424 644 417 619 b 347 544 388 576 369 558 b 276 510 325 529 301 518 b 204 494 250 502 226 497 l 204 261 l 310 261 l 310 433 b 395 465 340 440 369 450 b 465 517 421 479 445 497 b 512 589 484 538 500 562 b 529 677 523 616 529 645 b 508 786 529 720 522 756 b 449 860 493 816 474 840 b 363 904 425 879 396 894 b 258 918 330 913 295 918 b 106 878 199 918 148 905 b 20 779 64 851 35 818 z "},"@":{"ha":1250,"x_min":0,"x_max":0,"o":"m 911 -191 l 878 -110 b 777 -150 854 -126 820 -139 b 643 -165 734 -160 689 -165 b 467 -134 581 -165 522 -155 b 322 -42 412 -112 364 -82 b 223 102 281 -2 248 46 b 187 289 199 158 187 220 b 214 456 187 345 196 400 b 296 609 231 512 259 563 b 439 721 333 655 380 692 b 648 764 497 749 567 764 b 846 724 727 764 793 751 b 975 623 900 698 943 664 b 1044 488 1007 582 1030 537 b 1065 349 1058 439 1065 393 b 1055 256 1065 315 1062 284 b 1026 183 1048 228 1038 203 b 983 135 1014 163 1000 147 b 929 118 967 124 949 118 b 869 146 905 118 885 127 b 844 222 852 164 844 190 l 844 437 b 846 489 844 451 845 468 b 850 549 847 510 848 530 l 754 549 b 750 519 752 543 751 533 b 749 479 749 505 749 492 l 743 476 b 676 538 727 500 705 521 b 571 564 647 555 612 564 b 478 544 537 564 506 557 b 407 488 450 530 426 512 b 362 404 387 465 372 437 b 346 297 351 371 346 335 b 362 192 346 259 351 224 b 408 107 372 159 388 131 b 480 53 427 84 452 65 b 575 33 508 40 540 33 b 698 67 623 33 664 45 b 760 154 732 90 752 119 l 765 154 b 820 66 774 118 793 89 b 922 33 846 44 881 33 b 1020 59 958 33 990 42 b 1098 129 1050 76 1076 99 b 1148 232 1120 158 1136 192 b 1166 361 1160 272 1166 315 b 1136 534 1166 418 1156 476 b 1042 691 1116 592 1084 644 b 880 805 999 738 945 775 b 647 848 815 834 737 848 b 408 804 558 848 479 834 b 230 683 338 774 278 734 b 120 504 182 631 145 572 b 82 288 95 435 82 363 b 124 66 82 206 96 132 b 240 -103 153 0 191 -56 b 415 -211 289 -149 348 -185 b 632 -249 482 -236 554 -249 b 712 -244 659 -249 686 -247 b 790 -232 739 -242 765 -237 b 859 -213 815 -227 838 -220 b 911 -191 880 -206 897 -199 z m 602 118 b 494 164 558 118 522 133 b 452 298 466 194 452 239 b 494 433 452 358 466 403 b 602 479 522 464 558 479 b 707 433 644 479 679 464 b 749 298 735 403 749 358 b 707 164 749 239 735 194 b 602 118 679 133 644 118 z "},"A":{"ha":833,"x_min":0,"x_max":0,"o":"m 41 0 l 154 0 l 227 221 l 604 221 l 676 0 l 791 0 l 488 904 l 346 904 z m 258 319 l 415 817 l 572 319 z "},"B":{"ha":811,"x_min":0,"x_max":0,"o":"m 562 486 l 564 490 b 640 532 592 502 617 515 b 692 590 659 547 676 566 b 717 682 709 615 717 645 b 645 847 717 754 693 809 b 452 904 598 885 533 904 l 125 904 l 125 0 l 433 0 b 669 64 537 0 615 21 b 749 258 722 107 749 172 b 720 369 749 303 739 339 b 656 439 700 398 679 421 b 562 486 628 459 597 475 z m 228 511 l 228 819 l 424 819 b 560 779 485 819 530 806 b 604 664 589 753 604 714 b 564 552 604 616 591 579 b 444 511 537 525 497 511 z m 440 85 l 228 85 l 228 432 l 461 432 b 596 380 523 432 568 415 b 639 245 625 346 639 301 b 588 124 639 190 622 150 b 440 85 553 98 504 85 z "},"C":{"ha":859,"x_min":0,"x_max":0,"o":"m 701 692 l 796 747 b 752 814 786 770 771 793 b 684 869 733 835 710 854 b 594 907 657 885 627 898 b 484 921 560 916 523 921 b 324 888 426 921 373 910 b 197 792 275 866 232 834 b 113 642 161 751 133 701 b 83 444 93 583 83 517 b 113 250 83 372 93 308 b 195 105 133 193 160 144 b 319 15 230 66 271 36 b 472 -17 366 -6 417 -17 b 588 -3 514 -17 552 -12 b 683 35 624 6 655 19 b 753 92 711 52 734 71 b 798 163 772 114 787 137 l 705 218 b 676 163 699 199 689 180 b 626 117 662 145 646 130 b 558 86 606 104 583 93 b 476 75 532 79 505 75 b 355 102 430 75 389 84 b 267 178 320 120 291 145 b 215 295 244 210 226 249 b 197 444 203 340 197 390 b 214 597 197 499 203 550 b 265 720 225 644 242 685 b 354 800 288 754 318 781 b 484 829 390 820 433 829 b 559 818 510 829 535 826 b 624 788 583 811 604 801 b 673 745 643 776 660 761 b 701 692 686 728 696 710 z "},"D":{"ha":914,"x_min":0,"x_max":0,"o":"m 125 0 l 427 0 b 730 117 557 0 658 39 b 838 452 802 196 838 307 b 730 787 838 598 802 710 b 427 904 658 865 557 904 l 125 904 z m 428 92 l 235 92 l 235 812 l 428 812 b 650 720 527 812 601 782 b 724 452 699 659 724 569 b 650 184 724 335 699 246 b 428 92 601 122 527 92 z "},"E":{"ha":771,"x_min":0,"x_max":0,"o":"m 235 812 l 669 812 l 669 904 l 125 904 l 125 0 l 688 0 l 688 92 l 235 92 l 235 410 l 629 410 l 629 501 l 235 501 z "},"F":{"ha":708,"x_min":0,"x_max":0,"o":"m 235 812 l 646 812 l 646 904 l 125 904 l 125 0 l 235 0 l 235 371 l 587 371 l 587 463 l 235 463 z "},"G":{"ha":937,"x_min":0,"x_max":0,"o":"m 827 454 l 476 454 l 476 363 l 721 363 l 721 273 b 706 201 721 248 716 224 b 661 138 695 177 680 156 b 588 93 641 119 616 104 b 489 75 559 81 526 75 b 359 102 439 75 395 84 b 268 178 323 120 292 145 b 215 295 244 210 226 249 b 197 444 203 340 197 390 b 213 597 197 499 202 550 b 262 720 223 644 239 685 b 351 800 284 754 314 781 b 489 829 388 820 434 829 b 640 792 549 829 600 817 b 715 701 681 767 706 736 l 810 757 b 768 820 801 779 787 800 b 698 872 749 840 726 857 b 604 908 671 887 640 899 b 489 921 569 917 531 921 b 324 888 429 921 374 910 b 195 792 274 866 231 834 b 113 642 160 751 132 701 b 83 444 93 583 83 517 b 113 250 83 372 93 308 b 195 105 132 193 159 144 b 320 15 230 66 272 36 b 479 -17 368 -6 421 -17 b 564 -4 509 -17 537 -13 b 637 31 591 5 615 17 b 692 81 659 46 677 62 b 726 138 708 99 719 118 l 732 138 l 746 0 l 827 0 z "},"H":{"ha":951,"x_min":0,"x_max":0,"o":"m 827 904 l 717 904 l 717 500 l 235 500 l 235 904 l 125 904 l 125 0 l 235 0 l 235 408 l 717 408 l 717 0 l 827 0 z "},"I":{"ha":359,"x_min":0,"x_max":0,"o":"m 125 0 l 235 0 l 235 904 l 125 904 z "},"J":{"ha":623,"x_min":0,"x_max":0,"o":"m 504 904 l 393 904 l 393 282 b 356 124 393 210 381 157 b 240 75 332 92 293 75 b 157 95 210 75 182 82 b 100 144 132 109 113 125 l 21 79 b 108 11 40 52 68 29 b 243 -17 147 -8 192 -17 b 441 62 333 -17 399 9 b 504 286 483 114 504 189 z "},"K":{"ha":808,"x_min":0,"x_max":0,"o":"m 235 478 l 235 904 l 125 904 l 125 0 l 235 0 l 235 338 l 328 433 l 632 0 l 774 0 l 404 514 l 749 904 l 615 904 z "},"L":{"ha":701,"x_min":0,"x_max":0,"o":"m 235 904 l 125 904 l 125 0 l 660 0 l 660 92 l 235 92 z "},"M":{"ha":1095,"x_min":0,"x_max":0,"o":"m 489 168 l 606 168 l 861 765 l 861 0 l 970 0 l 970 904 l 812 904 l 550 272 l 286 904 l 125 904 l 125 0 l 233 0 l 233 765 z "},"N":{"ha":932,"x_min":0,"x_max":0,"o":"m 231 0 l 231 775 l 657 0 l 807 0 l 807 904 l 701 904 l 701 126 l 273 904 l 125 904 l 125 0 z "},"O":{"ha":979,"x_min":0,"x_max":0,"o":"m 896 453 b 865 650 896 527 886 592 b 781 798 845 708 817 757 b 652 890 744 838 702 869 b 490 921 603 911 549 921 b 328 890 432 921 378 911 b 199 798 278 869 235 838 b 114 650 163 757 134 708 b 83 453 94 592 83 527 b 114 256 83 380 94 314 b 199 108 134 197 163 148 b 328 15 235 68 278 37 b 490 -17 378 -6 432 -17 b 652 15 549 -17 603 -6 b 781 108 702 37 744 68 b 865 256 817 148 845 197 b 896 453 886 314 896 380 z m 782 453 b 761 290 782 392 775 337 b 702 172 747 243 728 204 b 609 99 676 139 645 115 b 490 75 573 83 534 75 b 372 99 447 75 407 83 b 278 172 336 115 305 139 b 217 290 252 204 232 243 b 196 453 203 337 196 392 b 217 615 196 514 203 568 b 278 733 232 663 252 702 b 372 805 305 765 336 789 b 490 829 407 821 447 829 b 609 805 534 829 573 821 b 702 733 645 789 676 765 b 761 615 728 702 747 663 b 782 453 775 568 782 514 z "},"P":{"ha":775,"x_min":0,"x_max":0,"o":"m 705 615 b 625 834 705 714 679 787 b 389 904 571 881 493 904 l 125 904 l 125 0 l 235 0 l 235 314 l 421 314 b 533 333 461 314 498 320 b 624 391 567 346 598 365 b 684 486 650 417 670 448 b 705 615 698 523 705 566 z m 235 406 l 235 812 l 403 812 b 549 762 470 812 519 796 b 595 612 580 728 595 678 b 587 527 595 581 592 553 b 559 462 582 502 572 480 b 505 420 546 444 528 430 b 416 406 482 410 453 406 z "},"Q":{"ha":979,"x_min":0,"x_max":0,"o":"m 490 921 b 328 889 432 921 378 910 b 199 797 278 868 235 837 b 114 648 163 756 134 707 b 83 450 94 590 83 524 b 115 254 83 377 94 312 b 201 107 135 196 164 147 b 330 15 237 67 280 37 b 490 -17 379 -6 433 -17 b 639 11 542 -17 592 -8 b 668 -27 646 0 656 -13 b 708 -72 680 -42 694 -56 b 756 -115 723 -87 739 -101 b 808 -147 773 -128 791 -139 l 913 -92 b 840 -56 888 -82 864 -70 b 771 -11 819 -43 796 -28 b 700 52 746 7 722 28 b 778 122 728 71 754 94 b 840 213 802 149 822 180 b 881 323 857 247 870 284 b 896 450 891 363 896 406 b 865 650 896 525 886 591 b 781 798 845 708 817 757 b 652 890 744 838 702 869 b 490 921 603 911 549 921 z m 490 68 b 375 92 450 68 411 76 b 281 163 339 107 308 131 b 219 282 255 195 234 235 b 196 450 204 330 196 386 b 217 613 196 511 203 565 b 278 731 232 660 252 700 b 372 804 305 763 336 788 b 490 829 407 821 447 829 b 609 805 534 829 573 821 b 702 733 645 789 676 765 b 761 614 728 701 747 661 b 782 452 775 567 782 513 b 703 164 782 325 756 229 b 490 68 650 100 579 68 z "},"R":{"ha":812,"x_min":0,"x_max":0,"o":"m 235 447 l 235 812 l 419 812 b 565 765 489 812 537 797 b 607 636 593 734 607 691 b 598 558 607 607 604 581 b 566 498 592 535 581 515 b 504 460 551 482 530 469 b 404 447 477 451 444 447 z m 611 0 l 736 0 l 541 385 b 600 413 559 390 579 400 b 658 466 620 427 640 444 b 702 542 676 488 691 513 b 720 637 714 570 720 602 b 640 834 720 722 693 788 b 407 904 587 881 510 904 l 125 904 l 125 0 l 235 0 l 235 361 l 440 361 z "},"S":{"ha":753,"x_min":0,"x_max":0,"o":"m 567 713 l 656 762 b 626 823 651 784 641 804 b 568 874 610 843 591 860 b 487 908 545 889 518 900 b 389 921 457 917 424 921 b 275 904 348 921 310 915 b 184 854 240 892 210 876 b 124 775 159 833 138 806 b 102 671 109 745 102 710 b 124 572 102 632 109 599 b 183 503 138 545 158 522 b 268 453 207 483 236 466 b 370 411 301 439 334 425 b 446 380 396 401 422 391 b 510 342 470 369 491 357 b 554 293 529 328 543 312 b 571 228 565 274 571 253 b 518 115 571 180 553 143 b 379 74 483 88 437 74 b 238 114 322 74 275 87 b 164 212 201 141 177 173 l 75 157 b 112 90 82 133 94 110 b 179 35 130 69 152 50 b 268 -3 205 19 235 6 b 375 -17 301 -12 337 -17 b 499 3 420 -17 462 -10 b 596 58 537 17 569 35 b 657 141 623 81 643 109 b 679 245 672 173 679 208 b 656 345 679 285 671 318 b 596 414 641 371 621 394 b 510 465 571 434 542 451 b 410 505 477 479 444 493 b 333 537 383 516 357 526 b 269 573 308 547 287 559 b 225 621 250 586 236 602 b 210 686 215 639 210 661 b 219 739 210 704 213 721 b 247 786 225 756 234 772 b 299 820 260 800 277 811 b 378 832 321 828 347 832 b 504 796 432 832 474 820 b 567 713 535 772 556 744 z "},"T":{"ha":760,"x_min":0,"x_max":0,"o":"m 41 904 l 41 811 l 325 811 l 325 0 l 435 0 l 435 811 l 718 811 l 718 904 z "},"U":{"ha":886,"x_min":0,"x_max":0,"o":"m 440 -17 b 684 68 547 -17 628 12 b 768 306 740 125 768 205 l 768 904 l 657 904 l 657 298 b 641 200 657 260 652 228 b 595 131 629 172 614 149 b 527 89 575 112 553 98 b 443 75 501 80 473 75 b 360 89 413 75 386 80 b 292 131 334 98 311 112 b 246 200 272 149 257 172 b 229 298 235 228 229 260 l 229 904 l 118 904 l 118 306 b 199 65 118 200 145 120 b 440 -17 254 10 334 -17 z "},"V":{"ha":791,"x_min":0,"x_max":0,"o":"m 757 904 l 639 904 l 396 92 l 155 904 l 35 904 l 325 0 l 467 0 z "},"W":{"ha":1251,"x_min":0,"x_max":0,"o":"m 697 904 l 549 904 l 350 104 l 160 904 l 45 904 l 275 0 l 425 0 l 621 810 l 821 0 l 971 0 l 1200 904 l 1086 904 l 896 104 z "},"X":{"ha":811,"x_min":0,"x_max":0,"o":"m 171 0 l 403 378 l 637 0 l 766 0 l 475 458 l 758 904 l 635 904 l 403 536 l 174 904 l 50 904 l 334 458 l 41 0 z "},"Y":{"ha":741,"x_min":0,"x_max":0,"o":"m 14 904 l 313 347 l 313 0 l 422 0 l 422 347 l 726 904 l 608 904 l 368 436 l 132 904 z "},"Z":{"ha":745,"x_min":0,"x_max":0,"o":"m 684 833 l 684 904 l 64 904 l 64 814 l 551 814 l 69 117 l 36 71 l 36 0 l 696 0 l 696 90 l 170 90 l 650 786 z "},"[":{"ha":416,"x_min":0,"x_max":0,"o":"m 125 987 l 125 -223 l 359 -223 l 359 -134 l 224 -134 l 224 898 l 359 898 l 359 987 z "},"\\":{"ha":590,"x_min":0,"x_max":0,"o":"m 15 987 l 473 -223 l 568 -223 l 109 987 z "},"]":{"ha":416,"x_min":0,"x_max":0,"o":"m 292 -223 l 292 987 l 57 987 l 57 898 l 193 898 l 193 -134 l 57 -134 l 57 -223 z "},"^":{"ha":708,"x_min":0,"x_max":0,"o":"m 637 557 l 694 616 l 351 937 l 16 618 l 75 554 l 351 823 z "},"_":{"ha":639,"x_min":0,"x_max":0,"o":"m 0 -97 l 0 -189 l 639 -189 l 639 -97 z "},"`":{"ha":347,"x_min":0,"x_max":0,"o":"m 306 843 l 104 1046 l 47 989 l 249 786 z "},"a":{"ha":710,"x_min":0,"x_max":0,"o":"m 294 66 b 219 90 262 66 237 74 b 193 158 202 105 193 128 b 235 231 195 191 209 215 b 281 249 248 238 263 244 b 336 260 300 253 318 257 b 411 270 360 263 385 267 b 472 278 437 274 458 276 l 472 222 b 459 165 472 203 468 184 b 425 115 451 147 440 130 b 370 80 410 100 392 89 b 294 66 349 71 323 66 z m 92 513 l 180 465 b 212 518 189 485 200 502 b 258 553 224 531 239 543 b 334 568 278 563 303 568 b 439 528 382 568 417 555 b 472 422 461 501 472 466 l 472 346 l 343 329 b 249 312 307 324 275 319 b 172 285 222 306 196 297 b 112 234 148 272 128 255 b 86 154 96 213 87 186 b 137 29 86 101 103 60 b 278 -17 170 -2 217 -17 b 403 18 324 -17 366 -5 b 488 104 440 41 468 70 b 521 27 491 73 502 47 b 593 -3 539 7 563 -3 b 637 1 613 -3 627 -1 b 663 12 647 4 655 8 l 657 94 b 643 92 652 93 647 92 b 621 90 638 91 631 90 b 586 105 605 90 594 95 b 575 170 579 116 575 137 l 575 431 b 563 521 575 462 571 492 b 522 593 554 549 541 573 b 447 639 503 613 478 628 b 335 656 417 650 379 656 b 221 634 290 656 252 649 b 144 585 189 620 164 603 b 92 513 121 563 104 539 z "},"b":{"ha":804,"x_min":0,"x_max":0,"o":"m 628 319 b 570 133 628 237 609 175 b 424 71 531 91 482 71 b 279 133 366 71 317 91 b 222 319 241 175 222 237 b 279 506 222 402 241 464 b 424 570 317 549 366 570 b 570 506 482 570 531 549 b 628 319 609 464 628 402 z m 231 987 l 125 987 l 125 131 b 123 69 125 115 124 94 b 118 0 121 43 120 20 l 214 0 b 217 20 215 5 216 11 b 219 48 218 29 219 38 b 221 79 220 59 220 69 b 222 107 222 89 222 99 l 229 107 b 265 62 238 91 250 76 b 315 22 280 47 297 34 b 376 -6 334 10 354 1 b 444 -17 397 -13 420 -17 b 562 8 487 -17 526 -9 b 654 78 597 25 628 48 b 714 184 680 108 700 144 b 736 319 729 225 736 270 b 715 455 736 369 729 414 b 656 562 701 496 682 532 b 565 632 631 592 600 615 b 447 657 529 649 490 657 b 376 646 421 657 397 653 b 316 618 354 638 334 629 b 268 581 298 607 282 595 b 233 543 254 568 243 555 l 227 543 b 228 571 227 552 227 562 b 230 596 229 578 229 587 b 231 623 230 605 231 614 z "},"c":{"ha":650,"x_min":0,"x_max":0,"o":"m 519 479 l 604 528 b 518 618 588 563 560 593 b 368 656 477 643 427 656 b 247 633 324 656 284 648 b 152 566 210 617 179 595 b 90 460 126 537 105 502 b 68 319 75 419 68 372 b 90 178 68 267 75 220 b 152 73 105 137 126 102 b 247 6 179 44 210 21 b 370 -17 284 -9 325 -17 b 522 20 429 -17 479 -5 b 604 111 564 45 591 75 l 519 160 b 468 99 512 136 495 115 b 366 75 441 83 407 75 b 220 142 299 75 250 98 b 175 321 190 187 175 247 b 219 496 175 393 190 452 b 366 564 249 541 298 564 b 468 538 409 564 443 555 b 519 479 493 521 510 502 z "},"d":{"ha":804,"x_min":0,"x_max":0,"o":"m 176 319 b 235 506 176 402 196 464 b 380 570 274 549 322 570 b 525 506 439 570 487 549 b 582 319 563 464 582 402 b 525 133 582 237 563 175 b 380 71 487 91 439 71 b 235 133 322 71 274 91 b 176 319 196 175 176 237 z m 679 987 l 574 987 l 574 623 b 574 585 574 613 574 601 b 578 543 575 570 576 556 l 571 543 b 537 584 562 557 551 570 b 490 621 524 597 508 610 b 431 647 472 632 452 641 b 364 657 409 654 387 657 b 247 632 322 657 283 649 b 154 562 211 615 180 592 b 91 453 127 532 106 496 b 68 315 76 411 68 365 b 90 179 68 265 75 220 b 151 74 105 138 125 103 b 242 7 176 45 207 23 b 355 -17 277 -9 315 -17 b 426 -6 380 -17 403 -13 b 488 22 448 1 469 10 b 539 62 507 34 524 47 b 575 107 553 76 566 91 l 582 107 b 583 79 582 99 582 89 b 585 48 584 69 585 59 b 587 20 586 38 586 29 b 590 0 588 11 589 5 l 686 0 b 681 69 684 20 683 43 b 679 131 680 94 679 115 z "},"e":{"ha":705,"x_min":0,"x_max":0,"o":"m 174 307 l 633 307 b 635 327 634 314 635 321 l 635 347 b 618 470 635 392 629 432 b 569 568 607 507 591 540 b 486 633 547 596 520 617 b 370 656 453 648 414 656 b 249 633 326 656 286 648 b 153 567 212 617 180 595 b 90 460 126 538 105 503 b 68 318 75 418 68 371 b 86 189 68 273 74 230 b 142 82 98 148 117 112 b 237 9 167 51 198 27 b 374 -17 275 -8 321 -17 b 492 2 421 -17 460 -11 b 570 45 524 15 550 29 b 624 107 593 62 611 83 l 529 155 b 496 113 521 139 510 125 b 446 82 483 101 466 91 b 372 69 426 74 402 69 b 232 127 316 69 269 88 b 174 307 195 165 175 225 z m 364 570 b 437 555 393 570 417 565 b 485 516 457 545 473 532 b 513 462 498 500 507 482 b 522 403 519 442 522 422 l 522 392 l 179 392 b 236 519 184 444 203 486 b 364 570 269 553 311 570 z "},"f":{"ha":440,"x_min":0,"x_max":0,"o":"m 157 0 l 262 0 l 262 551 l 408 551 l 408 639 l 262 639 l 262 786 b 291 890 262 837 272 872 b 361 917 310 908 333 917 b 381 916 368 917 375 916 b 397 913 387 915 392 914 b 412 909 403 911 408 910 l 427 994 b 404 999 420 995 412 997 b 380 1003 397 1001 389 1002 b 351 1004 371 1004 362 1004 b 210 950 293 1004 246 986 b 157 799 175 914 157 864 l 157 639 l 41 639 l 41 551 l 157 551 z "},"g":{"ha":746,"x_min":0,"x_max":0,"o":"m 297 -68 l 416 -68 b 537 -92 472 -68 512 -76 b 574 -170 561 -109 574 -134 b 522 -259 574 -211 556 -241 b 354 -286 487 -277 431 -286 b 261 -280 317 -286 286 -284 b 201 -261 236 -275 216 -269 b 167 -228 185 -253 174 -242 b 157 -178 160 -214 157 -197 b 192 -94 157 -139 169 -111 b 297 -68 216 -76 251 -68 z m 346 241 b 228 282 296 241 256 255 b 186 407 200 310 186 351 b 229 531 186 462 200 503 b 347 574 258 560 297 574 b 498 407 448 574 498 518 b 459 282 498 351 485 310 b 346 241 432 255 395 241 z m 730 557 l 737 663 b 723 665 732 663 727 664 b 707 665 719 665 713 665 b 651 655 686 665 668 662 b 604 628 634 648 618 639 b 569 594 590 618 578 606 b 546 561 559 582 551 571 b 464 629 526 588 499 611 b 347 656 429 647 390 656 b 243 637 310 656 275 650 b 158 586 211 625 183 608 b 101 506 134 564 115 537 b 81 401 88 475 81 440 b 96 315 81 369 86 340 b 136 248 106 289 119 267 b 192 200 152 229 171 213 b 257 171 213 187 235 177 b 184 131 227 164 203 150 b 157 61 166 111 157 88 b 180 0 157 38 164 18 b 239 -36 195 -18 215 -30 b 162 -51 211 -38 186 -43 b 102 -83 139 -58 119 -69 b 62 -133 85 -97 72 -114 b 47 -197 52 -152 47 -173 b 121 -320 47 -250 72 -291 b 342 -364 170 -350 244 -364 b 597 -303 452 -364 537 -344 b 688 -142 658 -262 688 -208 b 633 -23 688 -92 670 -52 b 481 21 597 6 546 21 l 323 21 b 248 87 273 21 248 43 b 277 141 248 114 257 132 b 347 158 297 150 321 155 b 543 232 436 168 502 192 b 606 410 585 272 606 331 b 599 470 606 434 603 455 b 578 521 595 485 588 502 b 620 544 586 526 600 534 b 694 559 640 554 665 559 b 714 559 702 559 708 559 b 730 557 721 558 726 558 z "},"h":{"ha":768,"x_min":0,"x_max":0,"o":"m 224 987 l 118 987 l 118 0 l 224 0 l 224 338 b 236 417 224 363 228 390 b 271 492 244 445 255 470 b 331 548 287 515 306 533 b 415 570 355 562 383 570 b 478 557 439 570 461 565 b 523 524 496 549 511 538 b 549 477 535 511 543 495 b 558 421 555 459 558 441 l 558 0 l 664 0 l 664 419 b 647 527 664 461 658 497 b 602 600 636 556 621 581 b 533 643 582 620 559 634 b 449 656 507 651 479 656 b 347 633 409 656 375 648 b 277 583 319 618 295 602 b 224 513 255 562 237 538 z "},"i":{"ha":355,"x_min":0,"x_max":0,"o":"m 256 871 b 232 929 256 896 248 915 b 176 950 215 943 197 950 b 123 929 156 950 138 943 b 100 871 108 916 100 897 b 123 810 100 845 108 825 b 176 787 140 795 158 787 b 232 810 196 787 214 795 b 256 871 248 826 256 846 z m 125 0 l 231 0 l 231 639 l 125 639 z "},"j":{"ha":355,"x_min":0,"x_max":0,"o":"m 231 639 l 125 639 l 125 -147 b 116 -211 125 -173 122 -194 b 93 -251 110 -228 102 -241 b 60 -271 83 -260 72 -267 b 24 -277 47 -275 35 -277 b -25 -269 7 -277 -9 -274 l -39 -354 b -2 -361 -29 -357 -17 -359 b 39 -364 12 -363 26 -364 b 177 -310 95 -364 141 -346 b 231 -158 213 -274 231 -223 z m 257 871 b 233 929 257 896 249 915 b 178 950 217 943 198 950 b 125 929 157 950 140 943 b 101 871 109 916 101 897 b 125 810 101 845 109 825 b 178 787 142 795 159 787 b 233 810 197 787 216 795 b 257 871 249 826 257 846 z "},"k":{"ha":703,"x_min":0,"x_max":0,"o":"m 500 639 l 224 330 l 224 987 l 118 987 l 118 0 l 224 0 l 224 210 l 311 298 l 529 0 l 668 0 l 385 371 l 644 639 z "},"l":{"ha":355,"x_min":0,"x_max":0,"o":"m 125 987 l 125 0 l 231 0 l 231 987 z "},"m":{"ha":1160,"x_min":0,"x_max":0,"o":"m 643 0 l 643 346 b 655 429 643 374 647 402 b 691 500 664 456 676 480 b 747 551 706 521 725 538 b 818 570 768 563 792 570 b 882 555 844 570 865 565 b 922 518 898 545 912 533 b 944 469 932 503 939 487 b 950 421 948 452 950 436 l 950 0 l 1055 0 l 1055 427 b 1047 499 1055 448 1053 472 b 1017 574 1042 526 1031 551 b 955 632 1002 597 981 616 b 851 656 929 648 894 656 b 776 642 824 656 799 651 b 713 606 752 633 731 621 b 665 554 694 591 678 574 b 635 494 651 535 641 515 l 629 494 b 591 575 621 524 608 551 b 532 631 577 595 557 614 b 432 656 507 647 474 656 b 366 643 409 656 387 652 b 309 610 345 635 326 624 b 262 565 291 597 276 582 b 231 513 249 548 239 530 l 225 513 l 225 545 b 224 581 225 557 225 569 b 223 615 224 593 224 604 b 221 639 223 625 222 633 l 118 639 b 123 566 120 616 121 591 b 125 507 124 540 125 521 l 125 0 l 231 0 l 231 345 b 242 422 231 369 234 395 b 274 495 249 449 260 473 b 328 549 289 517 307 535 b 406 570 350 563 376 570 b 464 557 428 570 447 565 b 506 524 481 549 494 538 b 530 477 517 511 525 495 b 538 421 535 459 538 441 l 538 0 z "},"n":{"ha":775,"x_min":0,"x_max":0,"o":"m 566 421 l 566 0 l 671 0 l 671 422 b 653 529 671 464 665 500 b 606 602 642 559 626 583 b 536 643 586 620 563 634 b 449 656 509 651 480 656 b 374 643 422 656 397 652 b 313 610 352 635 331 624 b 264 565 294 597 278 582 b 232 513 250 548 239 530 l 225 513 l 225 545 b 224 581 225 557 225 569 b 223 615 224 593 224 604 b 221 639 223 625 222 633 l 118 639 b 123 566 120 616 121 591 b 125 507 124 540 125 521 l 125 0 l 231 0 l 231 336 b 242 419 231 364 235 392 b 278 494 250 447 262 472 b 338 549 294 517 314 535 b 421 570 362 563 389 570 b 486 557 446 570 467 565 b 530 524 504 549 518 538 b 556 477 542 511 550 495 b 566 421 563 459 566 441 z "},"o":{"ha":746,"x_min":0,"x_max":0,"o":"m 677 319 b 655 461 677 372 670 420 b 592 567 640 503 619 538 b 496 633 565 595 533 617 b 374 656 459 648 418 656 b 252 633 329 656 289 648 b 155 567 215 617 182 595 b 91 461 128 538 106 503 b 68 319 76 420 68 372 b 91 178 68 267 76 219 b 155 72 106 136 128 101 b 252 6 182 44 215 21 b 374 -17 289 -9 329 -17 b 496 6 418 -17 459 -9 b 592 72 533 21 565 44 b 655 178 619 101 640 136 b 677 319 670 219 677 267 z m 571 319 b 516 133 571 237 553 175 b 374 71 479 91 432 71 b 231 133 315 71 268 91 b 175 319 194 175 175 237 b 231 506 175 402 194 464 b 374 568 268 547 315 568 b 516 506 432 568 479 547 b 571 319 553 464 571 402 z "},"p":{"ha":804,"x_min":0,"x_max":0,"o":"m 628 321 b 570 134 628 238 609 176 b 424 71 531 92 482 71 b 279 134 366 71 317 92 b 222 321 241 176 222 238 b 279 507 222 403 241 465 b 424 570 317 549 366 570 b 570 507 482 570 531 549 b 628 321 609 465 628 403 z m 125 -347 l 231 -347 l 231 18 b 230 55 231 27 230 40 b 227 97 229 70 228 84 l 233 97 b 267 56 241 83 253 70 b 315 19 281 42 297 29 b 376 -7 334 8 354 -1 b 444 -17 397 -14 420 -17 b 564 8 488 -17 528 -9 b 656 78 600 25 631 48 b 715 184 682 108 701 144 b 736 319 729 225 736 270 b 715 455 736 369 729 414 b 657 562 701 496 682 532 b 567 632 632 592 602 615 b 450 657 532 649 493 657 b 378 646 425 657 401 653 b 314 617 355 638 333 629 b 263 577 295 605 278 592 b 229 533 249 563 237 548 l 222 533 b 221 561 222 542 222 551 b 219 591 220 571 220 581 b 217 619 219 601 218 610 b 214 639 216 628 215 634 l 118 639 b 121 595 119 624 120 609 b 123 552 122 582 123 567 b 125 509 124 537 125 522 z "},"q":{"ha":804,"x_min":0,"x_max":0,"o":"m 176 321 b 235 507 176 403 196 465 b 380 570 274 549 322 570 b 525 507 439 570 487 549 b 582 321 563 465 582 403 b 525 134 582 238 563 176 b 380 71 487 92 439 71 b 235 134 322 71 274 92 b 176 321 196 176 176 238 z m 574 -347 l 679 -347 l 679 509 b 681 570 679 524 680 544 b 686 639 683 596 684 618 l 590 639 b 587 619 589 634 588 628 b 585 591 586 610 586 601 b 583 561 585 581 584 571 b 582 533 582 551 582 542 l 575 533 b 544 576 567 547 557 562 b 496 616 530 591 514 605 b 433 645 477 628 456 637 b 359 657 410 653 386 657 b 242 632 317 657 278 649 b 150 562 207 615 176 592 b 90 455 124 532 104 496 b 68 321 75 414 68 369 b 90 185 68 272 75 227 b 150 79 104 144 124 109 b 242 9 176 49 207 26 b 361 -17 278 -8 317 -17 b 430 -7 385 -17 408 -14 b 490 19 452 -1 472 8 b 537 56 508 30 524 43 b 571 97 551 70 562 83 l 578 97 b 575 69 577 88 576 79 b 574 44 574 62 574 53 l 574 18 z "},"r":{"ha":475,"x_min":0,"x_max":0,"o":"m 437 536 l 444 650 b 432 652 442 651 438 652 b 415 653 426 653 420 653 b 358 641 397 653 378 649 b 303 608 339 632 320 621 b 258 562 287 594 271 579 b 232 509 245 545 236 527 l 225 509 b 223 567 225 522 224 542 b 218 639 222 593 220 617 l 118 639 b 123 579 120 622 121 602 b 125 521 124 556 125 537 l 125 0 l 231 0 l 231 321 b 277 480 231 388 246 441 b 404 539 308 519 350 539 b 437 536 417 539 428 538 z "},"s":{"ha":635,"x_min":0,"x_max":0,"o":"m 467 485 l 554 533 b 472 620 541 566 514 595 b 325 656 430 644 381 656 b 233 642 292 656 261 651 b 158 603 205 633 180 620 b 108 543 137 586 120 566 b 90 464 96 519 90 493 b 110 389 90 434 97 409 b 160 337 122 368 139 351 b 231 303 181 324 205 312 b 310 278 257 294 284 285 b 425 235 358 264 396 250 b 468 165 454 220 468 197 b 456 122 468 149 464 134 b 425 92 448 110 438 100 b 380 74 412 84 397 77 b 328 68 363 70 345 68 b 244 84 295 68 267 73 b 191 119 221 94 203 106 b 153 172 174 135 161 153 l 68 122 b 123 53 81 96 99 73 b 202 5 144 35 170 19 b 325 -17 234 -10 275 -17 b 429 -2 364 -17 398 -12 b 508 41 459 8 486 23 b 557 104 530 59 546 80 b 574 182 568 128 574 154 b 553 260 574 213 567 239 b 498 310 539 280 521 297 b 423 343 476 324 451 335 b 339 368 395 352 367 361 b 282 386 319 374 300 379 b 235 407 264 392 249 399 b 204 436 222 415 211 425 b 193 478 197 447 193 461 b 225 545 193 505 204 527 b 315 571 246 562 276 571 b 413 546 354 571 387 563 b 467 485 439 529 457 509 z "},"t":{"ha":496,"x_min":0,"x_max":0,"o":"m 150 639 l 49 639 l 49 551 l 150 551 l 150 161 b 202 23 150 97 167 51 b 335 -18 237 -4 281 -18 b 399 -10 359 -18 380 -15 b 447 9 417 -4 433 2 l 429 93 b 395 76 418 86 407 80 b 346 71 384 72 367 71 b 300 79 327 71 312 73 b 272 102 288 85 279 92 b 259 135 266 112 261 123 b 256 176 257 148 256 161 l 256 551 l 447 551 l 447 639 l 256 639 l 256 786 l 150 772 z "},"u":{"ha":762,"x_min":0,"x_max":0,"o":"m 216 221 l 216 639 l 111 639 l 111 216 b 129 110 111 175 117 139 b 175 38 140 81 156 57 b 242 -4 194 19 217 5 b 322 -17 268 -13 295 -17 b 394 -5 348 -17 372 -13 b 452 27 416 3 435 14 b 498 73 470 41 485 56 b 530 126 511 90 522 108 l 536 126 b 537 93 536 116 537 105 b 538 58 538 81 538 69 b 540 24 539 46 539 35 b 542 0 540 13 541 5 l 644 0 b 640 74 642 23 641 48 b 637 132 638 100 637 119 l 637 639 l 532 639 l 532 301 b 519 211 532 269 528 239 b 484 138 511 183 499 159 b 427 87 468 116 449 100 b 350 69 404 75 379 69 b 290 81 327 69 307 73 b 249 114 274 89 260 100 b 224 163 237 128 229 144 b 216 221 219 181 216 201 z "},"v":{"ha":639,"x_min":0,"x_max":0,"o":"m 258 0 l 390 0 l 604 639 l 503 639 l 326 89 l 140 639 l 35 639 z "},"w":{"ha":994,"x_min":0,"x_max":0,"o":"m 570 639 l 425 639 l 286 83 l 163 639 l 56 639 l 212 0 l 358 0 l 494 555 l 636 0 l 783 0 l 939 639 l 835 639 l 708 83 z "},"x":{"ha":648,"x_min":0,"x_max":0,"o":"m 323 380 l 163 639 l 39 639 l 253 323 l 32 0 l 160 0 l 323 267 l 484 0 l 611 0 l 400 323 l 604 639 l 482 639 z "},"y":{"ha":657,"x_min":0,"x_max":0,"o":"m 332 -250 l 332 -250 l 631 639 l 510 639 l 343 94 l 157 639 l 36 639 l 288 -50 l 241 -210 b 214 -258 236 -230 227 -246 b 161 -277 201 -271 184 -277 b 126 -273 150 -277 138 -275 b 89 -260 113 -270 101 -266 l 71 -345 b 113 -358 83 -350 97 -355 b 170 -364 130 -362 148 -364 b 266 -338 203 -364 235 -355 b 332 -250 296 -320 318 -291 z "},"z":{"ha":592,"x_min":0,"x_max":0,"o":"m 532 566 l 532 639 l 60 639 l 60 551 l 408 551 l 87 118 l 53 74 l 53 0 l 543 0 l 543 87 l 175 87 l 488 507 z "},"{":{"ha":486,"x_min":0,"x_max":0,"o":"m 429 -223 l 429 -149 b 371 -142 407 -149 388 -146 b 329 -120 354 -138 340 -130 b 302 -76 317 -109 308 -94 b 293 -5 296 -57 293 -34 l 293 250 b 285 296 293 266 290 281 b 262 335 279 310 272 323 b 227 364 252 346 241 356 b 184 380 214 372 199 377 l 184 385 b 227 401 199 388 214 393 b 262 430 241 409 252 419 b 285 469 272 442 279 455 b 293 514 290 484 293 499 l 293 770 b 302 844 293 800 296 825 b 328 887 308 862 317 877 b 370 907 339 897 353 904 b 429 911 387 910 407 911 l 429 987 b 320 972 385 987 348 982 b 252 932 291 962 268 949 b 216 870 235 915 223 894 b 205 795 209 847 205 821 l 205 535 b 174 463 205 506 195 482 b 97 435 152 445 127 435 l 97 330 b 174 301 127 330 152 320 b 205 228 195 282 205 258 l 205 -31 b 216 -107 205 -58 209 -84 b 252 -168 223 -131 235 -151 b 320 -209 268 -185 291 -199 b 429 -223 348 -218 385 -223 z "},"|":{"ha":347,"x_min":0,"x_max":0,"o":"m 125 -223 l 224 -223 l 224 987 l 125 987 z "},"}":{"ha":486,"x_min":0,"x_max":0,"o":"m 57 987 l 57 911 b 115 905 79 911 99 909 b 158 883 132 901 146 894 b 184 840 169 873 178 858 b 193 768 190 821 193 797 l 193 513 b 201 468 193 497 196 482 b 224 429 207 453 214 440 b 259 400 234 417 245 408 b 301 384 273 392 287 387 l 301 378 b 259 362 287 376 273 370 b 224 333 245 355 234 345 b 201 294 214 322 207 309 b 193 249 196 280 193 265 l 193 -7 b 184 -80 193 -37 190 -61 b 158 -123 178 -99 169 -113 b 116 -143 147 -133 133 -140 b 57 -149 99 -147 79 -149 l 57 -223 b 166 -209 101 -223 138 -218 b 235 -168 195 -199 218 -185 b 270 -107 251 -151 263 -131 b 281 -31 277 -84 281 -58 l 281 228 b 313 300 281 258 291 282 b 389 328 334 319 359 328 l 389 434 b 313 463 359 434 334 444 b 281 535 291 481 281 506 l 281 795 b 270 870 281 821 277 847 b 235 932 263 894 251 915 b 166 972 218 949 195 962 b 57 987 138 982 101 987 z "},"~":{"ha":708,"x_min":0,"x_max":0,"o":"m 553 380 b 558 349 555 371 556 360 b 561 322 560 337 561 328 b 549 291 561 310 557 300 b 509 277 542 281 528 277 b 437 294 486 277 462 282 b 357 331 411 306 385 318 b 272 369 329 345 301 357 b 184 386 242 380 213 386 b 99 355 147 386 119 375 b 69 269 79 334 69 305 b 73 230 69 257 70 244 b 83 191 75 215 79 202 l 157 191 b 150 221 154 201 152 211 b 147 248 148 231 147 240 b 158 278 147 257 151 268 b 200 294 165 289 179 294 b 271 277 221 294 245 289 b 352 240 297 266 324 253 b 438 202 379 226 408 214 b 528 184 469 190 498 184 b 609 212 562 184 589 194 b 639 294 629 230 639 257 b 635 336 639 306 638 320 b 625 380 633 353 630 367 z "},"¡":{"ha":319,"x_min":0,"x_max":0,"o":"m 237 566 b 214 509 237 542 230 523 b 158 488 198 495 180 488 b 105 509 139 488 121 495 b 82 566 90 523 82 542 b 105 628 82 592 90 613 b 158 650 121 642 139 650 b 214 628 180 650 198 642 b 237 566 230 613 237 592 z m 104 380 l 210 380 l 210 -264 l 104 -264 z "},"¢":{"ha":694,"x_min":0,"x_max":0,"o":"m 545 469 l 631 521 b 548 607 615 553 587 582 b 410 647 509 632 463 645 l 410 781 l 322 781 l 322 643 b 220 608 285 637 251 625 b 140 542 189 590 162 568 b 87 445 117 515 99 482 b 68 319 74 407 68 366 b 87 193 68 272 74 230 b 141 95 101 155 118 122 b 221 28 164 67 190 45 b 322 -5 252 11 286 0 l 322 -142 l 410 -142 l 410 -8 b 490 4 439 -7 466 -3 b 555 33 514 12 536 21 b 602 72 574 44 589 58 b 631 118 614 87 624 102 l 545 170 b 497 107 536 146 520 126 b 410 77 474 89 445 78 l 410 562 b 496 532 445 560 474 550 b 545 469 519 514 535 493 z m 175 319 b 211 476 175 382 187 434 b 322 557 235 517 272 544 l 322 81 b 213 160 275 92 239 118 b 175 319 188 203 175 256 z "},"£":{"ha":806,"x_min":0,"x_max":0,"o":"m 553 406 l 553 490 l 314 490 b 279 586 301 524 289 556 b 262 672 268 618 262 647 b 308 791 263 722 279 762 b 433 835 338 820 380 835 b 563 798 489 835 532 823 b 631 710 594 773 617 744 l 717 775 b 622 878 698 815 667 849 b 436 921 578 907 516 921 b 310 901 387 921 345 914 b 222 846 275 887 245 869 b 171 768 199 824 182 798 b 154 675 159 738 154 707 b 172 574 154 640 160 606 b 205 490 182 546 193 518 l 104 490 l 104 406 l 240 406 l 252 376 b 269 271 263 343 269 308 b 261 205 269 247 267 225 b 234 152 256 185 247 167 b 183 113 221 137 204 124 b 104 89 162 102 136 94 l 104 0 l 699 0 l 699 92 l 292 92 l 292 96 b 354 183 321 121 341 150 b 371 277 367 216 373 247 b 353 376 371 308 365 341 b 345 406 350 385 347 395 z "},"¤":{"ha":833,"x_min":0,"x_max":0,"o":"m 661 656 l 762 755 l 711 807 l 614 707 b 524 761 587 730 557 748 b 416 781 490 774 454 781 b 310 762 378 781 343 774 b 220 708 276 749 246 732 l 122 807 l 71 755 l 171 657 b 124 565 151 630 135 599 b 107 456 113 531 107 495 b 122 349 107 418 112 382 b 165 260 133 316 147 286 l 71 165 l 122 114 l 212 207 b 306 149 239 182 270 163 b 416 129 341 136 378 129 b 527 149 455 129 492 136 b 619 207 562 163 592 182 l 711 114 l 762 165 l 665 260 b 709 349 684 286 698 316 b 725 456 720 382 725 418 b 708 565 725 495 719 531 b 661 656 697 598 682 629 z m 624 456 b 608 367 624 424 618 395 b 563 295 597 340 582 316 b 497 246 544 274 522 258 b 416 228 472 234 445 228 b 335 246 388 228 361 234 b 269 295 310 258 288 274 b 225 367 251 316 236 340 b 208 456 214 395 208 424 b 224 544 208 487 214 516 b 268 615 235 571 249 595 b 334 664 286 635 308 652 b 416 682 360 676 387 682 b 499 664 446 682 474 676 b 564 615 524 652 546 635 b 608 544 582 595 597 571 b 624 456 618 516 624 487 z "},"¥":{"ha":806,"x_min":0,"x_max":0,"o":"m 97 555 l 97 471 l 283 471 l 339 366 l 97 366 l 97 281 l 346 281 l 346 0 l 456 0 l 456 281 l 711 281 l 711 366 l 461 366 l 521 471 l 711 471 l 711 555 l 567 555 l 760 904 l 660 904 l 401 449 l 161 904 l 47 904 l 236 555 z "},"¦":{"ha":347,"x_min":0,"x_max":0,"o":"m 125 269 l 125 -223 l 224 -223 l 224 269 z m 224 495 l 224 987 l 125 987 l 125 495 z "},"§":{"ha":667,"x_min":0,"x_max":0,"o":"m 172 79 l 83 28 b 176 -60 103 -7 134 -37 b 329 -94 218 -83 269 -94 b 437 -78 370 -94 406 -89 b 515 -34 468 -67 494 -52 b 563 28 537 -16 553 5 b 579 100 574 51 579 75 b 556 183 579 130 571 158 b 496 244 541 207 521 228 b 556 310 518 264 538 286 b 583 404 574 335 583 366 b 556 495 583 441 574 472 b 488 554 538 519 515 538 b 400 594 461 570 431 583 b 312 628 368 604 339 616 b 243 671 284 640 262 654 b 216 734 225 687 216 709 b 251 806 216 764 228 788 b 347 833 275 824 307 833 b 442 808 388 833 420 825 b 490 747 465 791 481 770 l 579 799 b 494 886 562 834 534 863 b 349 921 455 909 406 921 b 246 904 310 921 275 915 b 172 861 216 893 191 879 b 126 798 152 843 137 822 b 111 726 116 774 111 750 b 133 642 111 694 119 666 b 184 585 148 618 165 599 b 125 520 164 567 144 545 b 96 422 105 495 96 462 b 123 331 96 385 105 355 b 194 272 142 308 165 288 b 285 232 222 257 252 243 b 376 198 317 221 348 209 b 446 156 404 186 427 172 b 473 93 464 140 473 119 b 436 21 473 64 461 40 b 334 -7 411 2 377 -7 b 229 19 289 -7 254 2 b 172 79 204 36 185 56 z m 476 392 b 459 327 476 368 470 347 b 425 277 447 307 436 290 b 347 306 400 287 374 296 b 275 337 321 315 296 325 b 222 378 254 348 236 362 b 201 436 208 394 201 413 b 219 502 201 459 207 481 b 254 553 231 523 243 540 b 331 523 279 542 305 532 b 402 491 357 513 380 503 b 455 450 424 479 442 466 b 476 392 469 434 476 415 z "},"¨":{"ha":347,"x_min":0,"x_max":0,"o":"m 113 864 b 90 921 113 887 105 906 b 35 940 74 934 56 940 b -21 921 13 940 -5 934 b -41 864 -35 907 -41 888 b -21 808 -41 841 -35 822 b 35 787 -6 794 12 787 b 90 808 56 787 74 794 b 113 864 105 823 113 842 z m 392 864 b 370 921 392 887 385 906 b 315 940 354 934 336 940 b 258 921 293 940 274 934 b 237 864 244 907 237 888 b 258 808 237 841 244 822 b 315 787 273 794 292 787 b 370 808 336 787 354 794 b 392 864 385 823 392 842 z "},"©":{"ha":1023,"x_min":0,"x_max":0,"o":"m 668 338 b 613 284 656 316 637 299 b 526 262 589 270 560 262 b 438 279 490 262 461 268 b 386 322 415 290 398 304 b 360 382 373 340 365 360 b 354 453 356 405 354 429 b 361 522 354 476 356 499 b 387 583 366 544 374 564 b 437 626 399 601 416 615 b 519 642 459 636 486 642 b 612 618 557 642 588 634 b 663 561 636 603 653 583 l 749 611 b 664 692 732 643 704 670 b 529 725 624 714 579 725 b 417 706 488 725 451 719 b 330 652 384 694 355 676 b 272 567 305 628 286 600 b 252 453 258 533 252 496 b 272 338 252 410 258 372 b 329 252 285 304 304 276 b 417 198 353 228 383 210 b 530 179 451 185 489 179 b 663 212 581 179 625 190 b 747 290 702 233 730 260 z m 111 453 b 142 612 111 510 121 563 b 227 741 162 662 190 705 b 354 827 263 778 305 807 b 511 859 402 848 455 859 b 670 827 568 859 621 848 b 797 741 719 807 761 778 b 882 612 833 705 861 662 b 913 453 903 563 913 510 b 882 293 913 396 903 342 b 797 164 861 244 833 201 b 670 77 761 127 719 98 b 511 46 621 57 568 46 b 354 77 455 46 402 57 b 227 164 305 98 263 127 b 142 293 190 201 162 244 b 111 453 121 342 111 396 z m 41 453 b 78 270 41 388 53 327 b 177 121 102 213 135 163 b 326 20 219 78 269 45 b 511 -17 382 -5 444 -17 b 697 20 578 -17 640 -5 b 846 121 755 45 804 78 b 946 270 888 163 922 213 b 982 453 970 327 982 388 b 946 635 982 518 970 578 b 846 783 922 691 888 741 b 697 884 804 826 755 859 b 511 921 640 909 578 921 b 326 884 444 921 382 909 b 177 783 269 859 219 826 b 78 635 135 741 102 691 b 41 453 53 578 41 518 z "},"ª":{"ha":534,"x_min":0,"x_max":0,"o":"m 62 808 l 138 772 b 250 837 160 815 197 837 b 327 810 285 837 311 828 b 351 736 343 792 351 767 l 351 683 l 225 665 b 131 641 185 660 154 652 b 80 597 108 629 91 615 b 62 533 68 580 62 559 b 104 438 62 492 76 461 b 208 405 132 416 167 405 b 300 431 242 405 272 413 b 364 496 328 448 349 470 b 392 438 367 472 376 453 b 450 415 407 423 427 415 b 482 418 464 415 474 416 b 500 427 489 421 495 424 l 496 500 b 471 492 489 495 480 492 b 445 504 459 492 450 496 b 436 551 439 511 436 527 l 436 744 b 426 810 436 768 433 790 b 395 862 420 830 409 847 b 338 897 381 877 362 889 b 253 909 314 905 286 909 b 62 808 168 909 104 876 z m 227 475 b 174 489 208 475 191 479 b 150 534 158 498 150 513 b 178 586 150 558 159 576 b 211 598 187 591 198 595 b 253 605 224 601 238 603 b 307 613 271 608 289 610 b 351 619 326 615 340 617 l 351 582 b 342 542 351 568 348 555 b 317 508 337 529 328 518 b 278 484 307 497 293 489 b 227 475 262 478 245 475 z "},"«":{"ha":632,"x_min":0,"x_max":0,"o":"m 211 50 l 309 50 l 155 300 l 309 550 l 211 550 l 41 300 z m 454 50 l 551 50 l 398 300 l 551 550 l 454 550 l 284 300 z "},"¬":{"ha":708,"x_min":0,"x_max":0,"o":"m 56 440 l 56 354 l 572 354 l 572 167 l 653 167 l 653 440 z "},"­":{"ha":472,"x_min":0,"x_max":0,"o":"m 41 357 l 41 271 l 431 271 l 431 357 z "},"®":{"ha":1023,"x_min":0,"x_max":0,"o":"m 611 192 l 724 192 l 621 401 b 659 419 634 405 646 411 b 692 449 671 427 682 437 b 715 493 702 462 709 476 b 724 551 721 510 724 529 b 672 669 724 597 706 637 b 519 717 638 701 587 717 l 336 717 l 336 192 l 441 192 l 441 379 l 524 379 z m 441 463 l 441 629 l 507 629 b 593 604 549 629 577 621 b 616 545 609 586 616 567 b 612 514 616 534 615 524 b 596 489 610 505 604 496 b 563 470 589 482 577 476 b 505 463 549 465 530 463 z m 111 453 b 142 612 111 510 121 563 b 227 741 162 662 190 705 b 354 827 263 778 305 807 b 511 859 402 848 455 859 b 670 827 568 859 621 848 b 797 741 719 807 761 778 b 882 612 833 705 861 662 b 913 453 903 563 913 510 b 882 293 913 396 903 342 b 797 164 861 244 833 201 b 670 77 761 127 719 98 b 511 46 621 57 568 46 b 354 77 455 46 402 57 b 227 164 305 98 263 127 b 142 293 190 201 162 244 b 111 453 121 342 111 396 z m 41 453 b 78 270 41 388 53 327 b 177 121 102 213 135 163 b 326 20 219 78 269 45 b 511 -17 382 -5 444 -17 b 697 20 578 -17 640 -5 b 846 121 755 45 804 78 b 946 270 888 163 922 213 b 982 453 970 327 982 388 b 946 635 982 518 970 578 b 846 783 922 691 888 741 b 697 884 804 826 755 859 b 511 921 640 909 578 921 b 326 884 444 921 382 909 b 177 783 269 859 219 826 b 78 635 135 741 102 691 b 41 453 53 578 41 518 z "},"¯":{"ha":347,"x_min":0,"x_max":0,"o":"m -35 864 l -35 787 l 382 787 l 382 864 z "},"°":{"ha":486,"x_min":0,"x_max":0,"o":"m 243 986 b 169 971 216 986 191 981 b 109 932 146 962 126 949 b 69 872 92 915 79 895 b 54 799 59 849 54 825 b 69 724 54 772 59 747 b 109 665 79 702 92 682 b 169 626 126 649 146 635 b 243 611 191 616 216 611 b 317 626 269 611 294 616 b 377 665 340 635 360 649 b 417 724 394 682 408 702 b 432 799 427 747 432 772 b 417 872 432 825 427 849 b 377 932 408 895 394 915 b 317 971 360 949 340 962 b 243 986 294 981 269 986 z m 243 682 b 160 714 209 682 181 693 b 129 799 139 735 129 764 b 160 883 129 833 139 861 b 243 916 181 905 209 916 b 326 883 277 916 305 905 b 357 799 346 861 357 833 b 326 714 357 764 346 735 b 243 682 305 693 277 682 z "},"±":{"ha":708,"x_min":0,"x_max":0,"o":"m 396 492 l 396 741 l 298 741 l 298 492 l 49 492 l 49 406 l 298 406 l 298 156 l 396 156 l 396 406 l 646 406 l 646 492 z m 646 86 l 646 86 l 49 86 l 49 0 l 646 0 z "},"²":{"ha":486,"x_min":0,"x_max":0,"o":"m 74 979 l 149 956 b 142 1007 144 976 142 993 b 167 1066 142 1031 150 1051 b 231 1089 184 1081 205 1089 b 303 1061 265 1089 289 1080 b 325 1002 318 1043 325 1023 b 302 929 325 978 317 954 b 242 854 287 904 267 879 b 158 781 218 829 190 805 b 61 715 127 758 94 736 l 61 663 l 431 663 l 431 734 l 193 734 b 275 792 222 754 249 773 b 343 854 301 811 324 832 b 390 926 363 877 378 900 b 407 1011 401 951 407 980 b 393 1074 407 1034 402 1055 b 355 1119 384 1092 371 1107 b 299 1147 338 1131 320 1141 b 233 1157 278 1154 256 1157 b 168 1146 210 1157 189 1153 b 115 1118 148 1139 130 1130 b 80 1076 100 1106 89 1092 b 66 1022 71 1059 66 1041 b 74 979 66 1010 69 996 z "},"³":{"ha":486,"x_min":0,"x_max":0,"o":"m 56 1078 l 98 1022 b 138 1074 107 1043 120 1061 b 215 1095 156 1088 182 1095 b 290 1075 249 1095 274 1088 b 313 1029 305 1062 313 1047 b 280 964 313 997 302 975 b 203 947 258 953 233 947 b 174 948 198 947 189 948 b 146 950 160 949 150 949 l 143 875 b 178 879 155 876 167 877 b 207 882 187 880 197 881 b 231 883 216 883 224 883 b 317 862 272 883 301 876 b 342 800 334 847 342 827 b 331 761 342 784 338 771 b 304 735 324 750 315 741 b 267 720 293 728 281 723 b 224 715 253 717 238 715 b 142 741 192 715 165 724 b 97 791 120 758 105 775 l 41 728 b 71 700 47 719 57 709 b 115 675 85 691 99 683 b 172 657 130 668 149 662 b 236 651 195 652 217 650 b 298 660 255 651 276 654 b 359 688 321 666 341 676 b 406 735 378 700 393 716 b 424 802 418 754 424 776 b 405 871 424 831 418 854 b 363 911 392 889 378 902 b 302 933 345 921 325 929 b 349 953 319 937 335 943 b 380 985 360 960 370 971 b 395 1039 390 999 395 1017 b 354 1121 395 1069 381 1096 b 231 1157 326 1145 285 1157 b 120 1135 187 1157 150 1149 b 56 1078 90 1120 69 1101 z "},"´":{"ha":347,"x_min":0,"x_max":0,"o":"m 249 1046 l 47 843 l 104 786 l 306 989 z "},"µ":{"ha":777,"x_min":0,"x_max":0,"o":"m 652 118 l 652 639 l 546 639 l 546 301 b 533 211 546 269 542 239 b 497 138 525 183 513 159 b 439 87 481 116 462 100 b 361 69 417 75 391 69 b 303 81 339 69 320 73 b 262 114 287 89 274 100 b 238 163 251 128 243 144 b 231 221 233 181 231 201 l 231 639 l 125 639 l 125 -349 l 231 -349 l 231 -69 b 229 -28 231 -57 230 -43 b 227 14 228 -13 227 1 b 222 60 225 29 223 45 l 227 62 b 280 9 236 44 253 26 b 371 -17 306 -8 337 -17 b 429 -4 391 -17 411 -13 b 479 28 448 4 464 15 b 518 74 494 42 507 57 b 545 126 529 91 538 109 l 550 125 b 551 92 550 115 550 104 b 552 56 551 80 552 68 b 553 23 552 45 553 34 b 555 0 554 13 555 5 l 659 0 b 654 64 657 19 655 41 b 652 118 652 87 652 105 z "},"¶":{"ha":806,"x_min":0,"x_max":0,"o":"m 415 904 l 323 904 b 211 885 283 904 245 898 b 122 829 177 873 148 854 b 63 737 97 804 78 773 b 41 610 49 700 41 658 b 63 484 41 563 49 521 b 122 392 78 448 97 417 b 211 335 148 367 177 348 b 323 315 245 322 283 315 l 323 -85 l 415 -85 z m 746 819 l 746 904 l 524 904 l 524 -85 l 615 -85 l 615 819 z "},"·":{"ha":267,"x_min":0,"x_max":0,"o":"m 211 300 b 188 358 211 324 203 343 b 132 379 172 372 153 379 b 79 358 113 379 95 372 b 56 300 64 343 56 324 b 79 239 56 274 64 254 b 132 217 95 224 113 217 b 188 239 153 217 172 224 b 211 300 203 254 211 274 z "},"¸":{"ha":347,"x_min":0,"x_max":0,"o":"m 168 24 l 88 12 b 223 -134 178 -30 223 -79 b 154 -211 223 -185 200 -211 b 68 -182 122 -211 94 -201 l 33 -233 b 150 -277 64 -262 103 -277 b 309 -140 256 -277 309 -231 b 211 0 309 -87 276 -41 b 168 24 198 8 183 16 z "},"¹":{"ha":486,"x_min":0,"x_max":0,"o":"m 57 729 l 57 663 l 432 663 l 432 729 l 289 729 l 289 1149 l 236 1149 b 211 1124 231 1140 222 1132 b 172 1104 199 1116 186 1109 b 126 1091 157 1099 142 1094 b 68 1086 111 1087 91 1086 l 77 1019 b 156 1026 106 1019 133 1021 b 207 1042 180 1030 197 1035 l 207 729 z "},"º":{"ha":575,"x_min":0,"x_max":0,"o":"m 519 656 b 502 763 519 696 514 732 b 454 843 491 795 475 821 b 381 892 434 864 410 881 b 289 909 353 904 322 909 b 195 892 255 909 223 904 b 121 843 167 881 142 864 b 73 763 101 821 84 795 b 56 656 61 732 56 696 b 73 551 56 618 61 582 b 121 472 84 520 101 493 b 195 422 142 451 167 434 b 289 405 223 411 255 405 b 381 422 322 405 353 411 b 454 472 410 434 434 451 b 502 551 475 493 491 520 b 519 656 514 582 519 618 z m 432 656 b 392 523 432 597 419 553 b 288 477 365 492 330 477 b 184 523 246 477 211 492 b 143 656 157 553 143 597 b 184 792 143 717 157 762 b 288 837 211 822 246 837 b 392 792 330 837 365 822 b 432 656 419 762 432 717 z "},"»":{"ha":632,"x_min":0,"x_max":0,"o":"m 420 550 l 323 550 l 476 300 l 323 50 l 420 50 l 590 300 z m 178 550 l 81 550 l 233 300 l 81 50 l 178 50 l 347 300 z "},"¼":{"ha":1111,"x_min":0,"x_max":0,"o":"m 346 0 l 856 904 l 767 904 l 257 0 z m 56 485 l 56 418 l 431 418 l 431 485 l 288 485 l 288 905 l 235 905 b 209 880 229 896 221 888 b 170 860 198 872 185 865 b 125 847 156 854 141 850 b 66 842 110 843 90 842 l 75 775 b 155 782 105 775 131 777 b 205 798 179 786 196 791 l 205 485 z m 823 486 l 624 179 l 600 143 l 625 94 l 873 94 l 873 0 l 950 0 l 950 94 l 1042 94 l 1042 161 l 950 161 l 950 486 z m 873 428 l 873 161 l 703 161 z "},"½":{"ha":1111,"x_min":0,"x_max":0,"o":"m 346 0 l 856 904 l 767 904 l 257 0 z m 56 485 l 56 418 l 431 418 l 431 485 l 288 485 l 288 905 l 235 905 b 209 880 229 896 221 888 b 170 860 198 872 185 865 b 125 847 156 854 141 850 b 66 842 110 843 90 842 l 75 775 b 155 782 105 775 131 777 b 205 798 179 786 196 791 l 205 485 z m 688 317 l 762 293 b 755 345 758 313 755 330 b 781 404 755 368 764 388 b 844 427 797 419 819 427 b 917 399 879 427 903 417 b 939 339 931 380 939 360 b 916 267 939 316 931 291 b 856 192 901 242 881 217 b 772 119 832 166 804 142 b 675 53 741 95 708 73 l 675 0 l 1044 0 l 1044 72 l 807 72 b 889 130 836 91 863 111 b 957 192 915 149 937 169 b 1003 263 976 214 992 238 b 1021 349 1015 288 1021 317 b 1007 411 1021 372 1016 392 b 968 457 997 430 985 445 b 913 485 952 469 934 478 b 847 494 892 491 870 494 b 782 484 824 494 802 491 b 729 455 762 477 744 467 b 693 413 714 443 702 429 b 680 359 685 397 680 379 b 688 317 680 348 683 333 z "},"¾":{"ha":1111,"x_min":0,"x_max":0,"o":"m 65 833 l 108 778 b 148 830 116 799 130 817 b 224 850 166 844 191 850 b 299 831 259 850 284 844 b 322 785 314 818 322 802 b 290 720 322 753 311 731 b 212 703 268 709 242 703 b 184 704 208 703 198 703 b 155 706 169 704 160 705 l 153 631 b 187 635 165 632 176 633 b 216 637 197 636 206 637 b 240 639 226 638 234 639 b 327 617 282 639 311 632 b 351 556 343 603 351 583 b 341 516 351 540 348 527 b 314 491 334 506 325 497 b 276 476 303 484 290 479 b 233 471 262 473 248 471 b 152 497 202 471 175 480 b 106 547 129 514 114 531 l 51 484 b 80 456 57 474 67 465 b 124 431 94 447 109 438 b 182 413 139 424 159 417 b 245 407 205 408 226 406 b 308 416 265 407 286 410 b 369 444 330 422 350 431 b 415 491 387 456 403 472 b 433 557 427 510 433 532 b 414 627 433 587 427 610 b 372 667 402 644 388 658 b 312 689 355 677 335 684 b 358 709 329 693 344 699 b 390 741 369 716 380 727 b 404 795 399 755 404 773 b 363 877 404 825 391 852 b 240 913 336 901 295 913 b 130 890 197 913 160 905 b 65 833 100 876 78 857 z m 346 0 l 856 904 l 767 904 l 257 0 z m 823 486 l 624 179 l 600 143 l 625 94 l 873 94 l 873 0 l 950 0 l 950 94 l 1042 94 l 1042 161 l 950 161 l 950 486 z m 873 428 l 873 161 l 703 161 z "},"¿":{"ha":555,"x_min":0,"x_max":0,"o":"m 211 566 b 235 509 211 542 219 523 b 290 488 250 495 269 488 b 343 509 310 488 327 495 b 367 566 359 523 367 542 b 343 628 367 592 359 613 b 290 650 327 642 310 650 b 235 628 269 650 250 642 b 211 566 219 613 211 592 z m 529 -139 l 439 -92 b 385 -163 427 -120 409 -143 b 292 -193 361 -183 330 -193 b 217 -181 263 -193 238 -189 b 164 -146 195 -172 178 -161 b 135 -95 151 -131 141 -114 b 125 -35 128 -76 125 -56 b 147 43 125 -4 132 22 b 201 96 161 64 179 82 b 273 130 224 111 247 122 b 345 146 299 138 322 143 l 345 379 l 239 379 l 239 207 b 154 176 208 201 180 190 b 84 123 127 161 104 144 b 37 51 64 102 49 78 b 20 -37 25 24 20 -5 b 41 -145 20 -79 27 -115 b 99 -220 55 -175 75 -200 b 186 -263 124 -239 153 -254 b 290 -278 218 -273 253 -278 b 443 -238 349 -278 400 -265 b 529 -139 485 -211 514 -178 z "},"À":{"ha":833,"x_min":0,"x_max":0,"o":"m 41 0 l 154 0 l 227 221 l 604 221 l 676 0 l 791 0 l 488 904 l 346 904 z m 258 319 l 415 817 l 572 319 z m 476 1108 l 275 1311 l 218 1254 l 419 1051 z "},"Á":{"ha":833,"x_min":0,"x_max":0,"o":"m 41 0 l 154 0 l 227 221 l 604 221 l 676 0 l 791 0 l 488 904 l 346 904 z m 258 319 l 415 817 l 572 319 z m 564 1311 l 363 1108 l 420 1051 l 621 1254 z "},"Â":{"ha":833,"x_min":0,"x_max":0,"o":"m 41 0 l 154 0 l 227 221 l 604 221 l 676 0 l 791 0 l 488 904 l 346 904 z m 258 319 l 415 817 l 572 319 z m 151 1053 l 265 1053 l 415 1215 l 565 1053 l 679 1053 l 458 1276 l 372 1276 z "},"Ã":{"ha":833,"x_min":0,"x_max":0,"o":"m 41 0 l 154 0 l 227 221 l 604 221 l 676 0 l 791 0 l 488 904 l 346 904 z m 258 319 l 415 817 l 572 319 z m 320 1211 b 276 1201 304 1211 290 1207 b 241 1174 262 1194 251 1185 b 219 1133 231 1162 224 1148 b 212 1082 214 1117 211 1100 l 288 1053 b 294 1079 290 1062 292 1070 b 302 1101 297 1087 299 1094 b 314 1116 306 1107 310 1112 b 332 1122 319 1120 325 1122 b 369 1111 344 1122 356 1118 b 410 1088 382 1104 396 1096 b 455 1064 424 1079 439 1071 b 507 1054 471 1057 489 1054 b 558 1066 527 1054 544 1058 b 594 1098 573 1075 584 1085 b 613 1140 603 1111 609 1125 b 616 1183 617 1155 618 1169 l 539 1212 b 534 1186 538 1203 536 1195 b 527 1164 533 1178 530 1171 b 515 1149 524 1158 520 1153 b 496 1143 510 1145 504 1143 b 459 1153 485 1143 472 1146 b 418 1177 447 1160 433 1168 b 372 1200 403 1185 388 1193 b 320 1211 355 1207 338 1211 z "},"Ä":{"ha":833,"x_min":0,"x_max":0,"o":"m 41 0 l 154 0 l 227 221 l 604 221 l 676 0 l 791 0 l 488 904 l 346 904 z m 258 319 l 415 817 l 572 319 z m 353 1129 b 330 1186 353 1152 345 1171 b 275 1205 314 1199 296 1205 b 219 1186 253 1205 235 1199 b 199 1129 205 1172 199 1153 b 219 1074 199 1106 205 1088 b 275 1053 234 1060 253 1053 b 330 1074 296 1053 314 1060 b 353 1129 345 1088 353 1107 z m 632 1129 b 610 1186 632 1152 625 1171 b 555 1205 594 1199 576 1205 b 498 1186 533 1205 514 1199 b 477 1129 484 1172 477 1153 b 498 1074 477 1106 484 1088 b 555 1053 513 1060 532 1053 b 610 1074 576 1053 594 1060 b 632 1129 625 1088 632 1107 z "},"Å":{"ha":833,"x_min":0,"x_max":0,"o":"m 41 0 l 154 0 l 227 221 l 604 221 l 676 0 l 791 0 l 488 904 l 346 904 z m 258 319 l 415 817 l 572 319 z m 253 1212 b 297 1099 253 1167 268 1129 b 416 1053 326 1068 366 1053 b 481 1066 440 1053 462 1057 b 533 1099 501 1074 519 1085 b 567 1149 548 1113 559 1130 b 578 1212 575 1169 578 1190 b 567 1274 578 1234 575 1255 b 533 1323 559 1293 548 1309 b 481 1357 519 1338 501 1349 b 416 1370 462 1366 440 1370 b 297 1324 366 1370 326 1355 b 253 1212 268 1294 253 1256 z m 323 1212 b 349 1279 323 1238 332 1260 b 416 1308 367 1298 389 1308 b 481 1279 441 1308 463 1298 b 509 1212 500 1260 509 1238 b 481 1143 509 1185 500 1162 b 416 1116 463 1125 441 1116 b 349 1143 389 1116 367 1125 b 323 1212 332 1162 323 1185 z "},"Æ":{"ha":1136,"x_min":0,"x_max":0,"o":"m 119 0 l 233 228 l 534 228 l 534 0 l 1055 0 l 1055 92 l 644 92 l 644 410 l 1011 410 l 1011 501 l 644 501 l 644 812 l 1038 812 l 1038 904 l 468 904 l 5 0 z m 534 823 l 534 318 l 279 318 z "},"Ç":{"ha":859,"x_min":0,"x_max":0,"o":"m 701 692 l 796 747 b 752 814 786 770 771 793 b 684 869 733 835 710 854 b 594 907 657 885 627 898 b 484 921 560 916 523 921 b 324 888 426 921 373 910 b 197 792 275 866 232 834 b 113 642 161 751 133 701 b 83 444 93 583 83 517 b 113 250 83 372 93 308 b 195 105 133 193 160 144 b 319 15 230 66 271 36 b 472 -17 366 -6 417 -17 b 588 -3 514 -17 552 -12 b 683 35 624 6 655 19 b 753 92 711 52 734 71 b 798 163 772 114 787 137 l 705 218 b 676 163 699 199 689 180 b 626 117 662 145 646 130 b 558 86 606 104 583 93 b 476 75 532 79 505 75 b 355 102 430 75 389 84 b 267 178 320 120 291 145 b 215 295 244 210 226 249 b 197 444 203 340 197 390 b 214 597 197 499 203 550 b 265 720 225 644 242 685 b 354 800 288 754 318 781 b 484 829 390 820 433 829 b 559 818 510 829 535 826 b 624 788 583 811 604 801 b 673 745 643 776 660 761 b 701 692 686 728 696 710 z m 428 24 l 349 12 b 484 -134 439 -30 484 -79 b 414 -211 484 -185 460 -211 b 328 -182 383 -211 354 -201 l 294 -233 b 410 -277 325 -262 364 -277 b 570 -140 517 -277 570 -231 b 471 0 570 -87 537 -41 b 428 24 458 8 444 16 z "},"È":{"ha":771,"x_min":0,"x_max":0,"o":"m 235 812 l 669 812 l 669 904 l 125 904 l 125 0 l 688 0 l 688 92 l 235 92 l 235 410 l 629 410 l 629 501 l 235 501 z m 473 1108 l 271 1311 l 214 1254 l 416 1051 z "},"É":{"ha":771,"x_min":0,"x_max":0,"o":"m 235 812 l 669 812 l 669 904 l 125 904 l 125 0 l 688 0 l 688 92 l 235 92 l 235 410 l 629 410 l 629 501 l 235 501 z m 555 1311 l 353 1108 l 410 1051 l 612 1254 z "},"Ê":{"ha":771,"x_min":0,"x_max":0,"o":"m 235 812 l 669 812 l 669 904 l 125 904 l 125 0 l 688 0 l 688 92 l 235 92 l 235 410 l 629 410 l 629 501 l 235 501 z m 143 1053 l 257 1053 l 407 1214 l 557 1053 l 671 1053 l 450 1275 l 364 1275 z "},"Ë":{"ha":771,"x_min":0,"x_max":0,"o":"m 235 812 l 669 812 l 669 904 l 125 904 l 125 0 l 688 0 l 688 92 l 235 92 l 235 410 l 629 410 l 629 501 l 235 501 z m 338 1129 b 315 1186 338 1152 330 1171 b 260 1205 300 1199 281 1205 b 204 1186 238 1205 220 1199 b 184 1129 191 1172 184 1153 b 204 1074 184 1106 191 1088 b 260 1053 219 1060 238 1053 b 315 1074 281 1053 300 1060 b 338 1129 330 1088 338 1107 z m 617 1129 b 595 1186 617 1152 610 1171 b 541 1205 579 1199 561 1205 b 484 1186 518 1205 499 1199 b 463 1129 470 1172 463 1153 b 484 1074 463 1106 470 1088 b 541 1053 498 1060 517 1053 b 595 1074 561 1053 579 1060 b 617 1129 610 1088 617 1107 z "},"Ì":{"ha":359,"x_min":0,"x_max":0,"o":"m 125 0 l 235 0 l 235 904 l 125 904 z m 238 1108 l 37 1311 l -20 1254 l 181 1051 z "},"Í":{"ha":359,"x_min":0,"x_max":0,"o":"m 125 0 l 235 0 l 235 904 l 125 904 z m 326 1311 l 124 1108 l 181 1051 l 382 1254 z "},"Î":{"ha":359,"x_min":0,"x_max":0,"o":"m 125 0 l 235 0 l 235 904 l 125 904 z m -80 1053 l 34 1053 l 184 1214 l 334 1053 l 448 1053 l 227 1275 l 141 1275 z "},"Ï":{"ha":359,"x_min":0,"x_max":0,"o":"m 125 0 l 235 0 l 235 904 l 125 904 z m 117 1129 b 94 1186 117 1152 109 1171 b 39 1205 78 1199 60 1205 b -17 1186 17 1205 -1 1199 b -37 1129 -31 1172 -37 1153 b -17 1074 -37 1106 -31 1088 b 39 1053 -2 1060 17 1053 b 94 1074 60 1053 78 1060 b 117 1129 109 1088 117 1107 z m 396 1129 b 374 1186 396 1152 389 1171 b 319 1205 358 1199 340 1205 b 262 1186 297 1205 278 1199 b 241 1129 248 1172 241 1153 b 262 1074 241 1106 248 1088 b 319 1053 277 1060 296 1053 b 374 1074 340 1053 358 1060 b 396 1129 389 1088 396 1107 z "},"Ð":{"ha":928,"x_min":0,"x_max":0,"o":"m 41 494 l 41 408 l 167 408 l 167 0 l 433 0 b 733 117 564 0 664 39 b 838 452 803 196 838 307 b 733 787 838 598 803 710 b 433 904 664 865 564 904 l 167 904 l 167 494 z m 435 92 l 277 92 l 277 408 l 431 408 l 431 494 l 277 494 l 277 812 l 435 812 b 653 720 534 812 607 782 b 724 452 700 659 724 569 b 653 184 724 335 700 246 b 435 92 607 122 534 92 z "},"Ñ":{"ha":932,"x_min":0,"x_max":0,"o":"m 231 0 l 231 775 l 657 0 l 807 0 l 807 904 l 701 904 l 701 126 l 273 904 l 125 904 l 125 0 z m 376 1211 b 332 1201 361 1211 346 1207 b 297 1174 319 1194 307 1185 b 275 1133 288 1162 280 1148 b 269 1082 270 1117 268 1100 l 345 1053 b 351 1079 346 1062 348 1070 b 359 1101 353 1087 356 1094 b 371 1116 362 1107 366 1112 b 388 1122 375 1120 381 1122 b 426 1111 400 1122 413 1118 b 466 1088 438 1104 452 1096 b 512 1064 480 1079 496 1071 b 564 1054 528 1057 545 1054 b 614 1066 583 1054 600 1058 b 650 1098 629 1075 641 1085 b 669 1140 659 1111 666 1125 b 672 1183 673 1155 674 1169 l 595 1212 b 591 1186 594 1203 592 1195 b 584 1164 589 1178 587 1171 b 572 1149 581 1158 577 1153 b 553 1143 567 1145 560 1143 b 516 1153 541 1143 529 1146 b 474 1177 503 1160 489 1168 b 428 1200 460 1185 444 1193 b 376 1211 412 1207 394 1211 z "},"Ò":{"ha":979,"x_min":0,"x_max":0,"o":"m 896 453 b 865 650 896 527 886 592 b 781 798 845 708 817 757 b 652 890 744 838 702 869 b 490 921 603 911 549 921 b 328 890 432 921 378 911 b 199 798 278 869 235 838 b 114 650 163 757 134 708 b 83 453 94 592 83 527 b 114 256 83 380 94 314 b 199 108 134 197 163 148 b 328 15 235 68 278 37 b 490 -17 378 -6 432 -17 b 652 15 549 -17 603 -6 b 781 108 702 37 744 68 b 865 256 817 148 845 197 b 896 453 886 314 896 380 z m 782 453 b 761 290 782 392 775 337 b 702 172 747 243 728 204 b 609 99 676 139 645 115 b 490 75 573 83 534 75 b 372 99 447 75 407 83 b 278 172 336 115 305 139 b 217 290 252 204 232 243 b 196 453 203 337 196 392 b 217 615 196 514 203 568 b 278 733 232 663 252 702 b 372 805 305 765 336 789 b 490 829 407 821 447 829 b 609 805 534 829 573 821 b 702 733 645 789 676 765 b 761 615 728 702 747 663 b 782 453 775 568 782 514 z m 560 1108 l 359 1311 l 302 1254 l 503 1051 z "},"Ó":{"ha":979,"x_min":0,"x_max":0,"o":"m 896 453 b 865 650 896 527 886 592 b 781 798 845 708 817 757 b 652 890 744 838 702 869 b 490 921 603 911 549 921 b 328 890 432 921 378 911 b 199 798 278 869 235 838 b 114 650 163 757 134 708 b 83 453 94 592 83 527 b 114 256 83 380 94 314 b 199 108 134 197 163 148 b 328 15 235 68 278 37 b 490 -17 378 -6 432 -17 b 652 15 549 -17 603 -6 b 781 108 702 37 744 68 b 865 256 817 148 845 197 b 896 453 886 314 896 380 z m 782 453 b 761 290 782 392 775 337 b 702 172 747 243 728 204 b 609 99 676 139 645 115 b 490 75 573 83 534 75 b 372 99 447 75 407 83 b 278 172 336 115 305 139 b 217 290 252 204 232 243 b 196 453 203 337 196 392 b 217 615 196 514 203 568 b 278 733 232 663 252 702 b 372 805 305 765 336 789 b 490 829 407 821 447 829 b 609 805 534 829 573 821 b 702 733 645 789 676 765 b 761 615 728 702 747 663 b 782 453 775 568 782 514 z m 632 1311 l 431 1108 l 488 1051 l 689 1254 z "},"Ô":{"ha":979,"x_min":0,"x_max":0,"o":"m 896 453 b 865 650 896 527 886 592 b 781 798 845 708 817 757 b 652 890 744 838 702 869 b 490 921 603 911 549 921 b 328 890 432 921 378 911 b 199 798 278 869 235 838 b 114 650 163 757 134 708 b 83 453 94 592 83 527 b 114 256 83 380 94 314 b 199 108 134 197 163 148 b 328 15 235 68 278 37 b 490 -17 378 -6 432 -17 b 652 15 549 -17 603 -6 b 781 108 702 37 744 68 b 865 256 817 148 845 197 b 896 453 886 314 896 380 z m 782 453 b 761 290 782 392 775 337 b 702 172 747 243 728 204 b 609 99 676 139 645 115 b 490 75 573 83 534 75 b 372 99 447 75 407 83 b 278 172 336 115 305 139 b 217 290 252 204 232 243 b 196 453 203 337 196 392 b 217 615 196 514 203 568 b 278 733 232 663 252 702 b 372 805 305 765 336 789 b 490 829 407 821 447 829 b 609 805 534 829 573 821 b 702 733 645 789 676 765 b 761 615 728 702 747 663 b 782 453 775 568 782 514 z m 233 1053 l 347 1053 l 497 1214 l 647 1053 l 761 1053 l 541 1275 l 454 1275 z "},"Õ":{"ha":979,"x_min":0,"x_max":0,"o":"m 896 453 b 865 650 896 527 886 592 b 781 798 845 708 817 757 b 652 890 744 838 702 869 b 490 921 603 911 549 921 b 328 890 432 921 378 911 b 199 798 278 869 235 838 b 114 650 163 757 134 708 b 83 453 94 592 83 527 b 114 256 83 380 94 314 b 199 108 134 197 163 148 b 328 15 235 68 278 37 b 490 -17 378 -6 432 -17 b 652 15 549 -17 603 -6 b 781 108 702 37 744 68 b 865 256 817 148 845 197 b 896 453 886 314 896 380 z m 782 453 b 761 290 782 392 775 337 b 702 172 747 243 728 204 b 609 99 676 139 645 115 b 490 75 573 83 534 75 b 372 99 447 75 407 83 b 278 172 336 115 305 139 b 217 290 252 204 232 243 b 196 453 203 337 196 392 b 217 615 196 514 203 568 b 278 733 232 663 252 702 b 372 805 305 765 336 789 b 490 829 407 821 447 829 b 609 805 534 829 573 821 b 702 733 645 789 676 765 b 761 615 728 702 747 663 b 782 453 775 568 782 514 z m 393 1211 b 349 1201 378 1211 363 1207 b 314 1174 336 1194 324 1185 b 292 1133 305 1162 297 1148 b 286 1082 287 1117 285 1100 l 361 1053 b 368 1079 363 1062 365 1070 b 376 1101 370 1087 373 1094 b 388 1116 379 1107 383 1112 b 405 1122 392 1120 398 1122 b 443 1111 417 1122 430 1118 b 483 1088 455 1104 469 1096 b 529 1064 497 1079 513 1071 b 581 1054 545 1057 562 1054 b 631 1066 600 1054 617 1058 b 667 1098 646 1075 658 1085 b 686 1140 676 1111 683 1125 b 689 1183 690 1155 691 1169 l 612 1212 b 608 1186 611 1203 609 1195 b 601 1164 606 1178 603 1171 b 589 1149 598 1158 594 1153 b 570 1143 584 1145 577 1143 b 533 1153 558 1143 546 1146 b 491 1177 520 1160 506 1168 b 445 1200 477 1185 461 1193 b 393 1211 429 1207 411 1211 z "},"Ö":{"ha":979,"x_min":0,"x_max":0,"o":"m 896 453 b 865 650 896 527 886 592 b 781 798 845 708 817 757 b 652 890 744 838 702 869 b 490 921 603 911 549 921 b 328 890 432 921 378 911 b 199 798 278 869 235 838 b 114 650 163 757 134 708 b 83 453 94 592 83 527 b 114 256 83 380 94 314 b 199 108 134 197 163 148 b 328 15 235 68 278 37 b 490 -17 378 -6 432 -17 b 652 15 549 -17 603 -6 b 781 108 702 37 744 68 b 865 256 817 148 845 197 b 896 453 886 314 896 380 z m 782 453 b 761 290 782 392 775 337 b 702 172 747 243 728 204 b 609 99 676 139 645 115 b 490 75 573 83 534 75 b 372 99 447 75 407 83 b 278 172 336 115 305 139 b 217 290 252 204 232 243 b 196 453 203 337 196 392 b 217 615 196 514 203 568 b 278 733 232 663 252 702 b 372 805 305 765 336 789 b 490 829 407 821 447 829 b 609 805 534 829 573 821 b 702 733 645 789 676 765 b 761 615 728 702 747 663 b 782 453 775 568 782 514 z m 425 1129 b 403 1186 425 1152 418 1171 b 347 1205 387 1199 368 1205 b 292 1186 326 1205 307 1199 b 271 1129 278 1172 271 1153 b 292 1074 271 1106 278 1088 b 347 1053 307 1060 325 1053 b 403 1074 368 1053 387 1060 b 425 1129 418 1088 425 1107 z m 705 1129 b 682 1186 705 1152 697 1171 b 628 1205 666 1199 648 1205 b 571 1186 606 1205 587 1199 b 550 1129 557 1172 550 1153 b 571 1074 550 1106 557 1088 b 628 1053 586 1060 605 1053 b 682 1074 648 1053 666 1060 b 705 1129 697 1088 705 1107 z "},"×":{"ha":708,"x_min":0,"x_max":0,"o":"m 534 566 l 534 566 l 347 379 l 160 566 l 96 501 l 282 314 l 96 126 l 160 62 l 347 249 l 534 62 l 599 126 l 412 314 l 599 501 z "},"Ø":{"ha":979,"x_min":0,"x_max":0,"o":"m 896 453 b 868 642 896 523 887 586 b 791 786 850 697 824 745 l 861 879 l 791 929 l 729 844 b 490 921 662 895 582 921 b 328 890 432 921 378 911 b 199 798 278 869 235 838 b 114 650 163 757 134 708 b 83 453 94 592 83 527 b 111 265 83 383 93 321 b 187 121 130 210 155 161 l 118 28 l 187 -22 l 250 61 b 360 3 282 35 319 16 b 490 -17 401 -10 444 -17 b 652 15 549 -17 603 -6 b 781 108 702 37 744 68 b 865 256 817 148 845 197 b 896 453 886 314 896 380 z m 782 453 b 761 290 782 392 775 337 b 702 172 747 243 728 204 b 609 99 676 139 645 115 b 490 75 573 83 534 75 b 310 138 417 75 357 96 l 724 700 b 767 592 742 670 756 634 b 782 453 777 550 782 504 z m 196 453 b 217 615 196 514 203 568 b 278 733 232 663 252 702 b 372 805 305 765 336 789 b 490 829 407 821 447 829 b 668 768 562 829 621 809 l 254 205 b 196 453 215 268 196 351 z "},"Ù":{"ha":886,"x_min":0,"x_max":0,"o":"m 492 -17 b 736 68 598 -17 680 12 b 820 306 792 125 820 205 l 820 904 l 709 904 l 709 298 b 692 200 709 260 703 228 b 646 131 681 172 666 149 b 578 89 627 112 604 98 b 494 75 552 80 524 75 b 411 89 465 75 437 80 b 343 131 385 98 363 112 b 297 200 324 149 308 172 b 281 298 286 228 281 260 l 281 904 l 170 904 l 170 306 b 251 65 170 200 197 120 b 492 -17 305 10 385 -17 z m 559 1108 l 357 1311 l 300 1254 l 502 1051 z "},"Ú":{"ha":886,"x_min":0,"x_max":0,"o":"m 492 -17 b 736 68 598 -17 680 12 b 820 306 792 125 820 205 l 820 904 l 709 904 l 709 298 b 692 200 709 260 703 228 b 646 131 681 172 666 149 b 578 89 627 112 604 98 b 494 75 552 80 524 75 b 411 89 465 75 437 80 b 343 131 385 98 363 112 b 297 200 324 149 308 172 b 281 298 286 228 281 260 l 281 904 l 170 904 l 170 306 b 251 65 170 200 197 120 b 492 -17 305 10 385 -17 z m 629 1311 l 428 1108 l 485 1051 l 686 1254 z "},"Û":{"ha":886,"x_min":0,"x_max":0,"o":"m 492 -17 b 736 68 598 -17 680 12 b 820 306 792 125 820 205 l 820 904 l 709 904 l 709 298 b 692 200 709 260 703 228 b 646 131 681 172 666 149 b 578 89 627 112 604 98 b 494 75 552 80 524 75 b 411 89 465 75 437 80 b 343 131 385 98 363 112 b 297 200 324 149 308 172 b 281 298 286 228 281 260 l 281 904 l 170 904 l 170 306 b 251 65 170 200 197 120 b 492 -17 305 10 385 -17 z m 237 1053 l 351 1053 l 501 1214 l 651 1053 l 765 1053 l 545 1275 l 458 1275 z "},"Ü":{"ha":886,"x_min":0,"x_max":0,"o":"m 492 -17 b 736 68 598 -17 680 12 b 820 306 792 125 820 205 l 820 904 l 709 904 l 709 298 b 692 200 709 260 703 228 b 646 131 681 172 666 149 b 578 89 627 112 604 98 b 494 75 552 80 524 75 b 411 89 465 75 437 80 b 343 131 385 98 363 112 b 297 200 324 149 308 172 b 281 298 286 228 281 260 l 281 904 l 170 904 l 170 306 b 251 65 170 200 197 120 b 492 -17 305 10 385 -17 z m 431 1129 b 408 1186 431 1152 423 1171 b 353 1205 392 1199 374 1205 b 297 1186 331 1205 313 1199 b 277 1129 283 1172 277 1153 b 297 1074 277 1106 283 1088 b 353 1053 312 1060 330 1053 b 408 1074 374 1053 392 1060 b 431 1129 423 1088 431 1107 z m 710 1129 b 688 1186 710 1152 703 1171 b 633 1205 672 1199 654 1205 b 576 1186 611 1205 592 1199 b 555 1129 562 1172 555 1153 b 576 1074 555 1106 562 1088 b 633 1053 591 1060 610 1053 b 688 1074 654 1053 672 1060 b 710 1129 703 1088 710 1107 z "},"Ý":{"ha":741,"x_min":0,"x_max":0,"o":"m 14 904 l 313 347 l 313 0 l 422 0 l 422 347 l 726 904 l 608 904 l 368 436 l 132 904 z m 489 1311 l 288 1108 l 345 1051 l 546 1254 z "},"Þ":{"ha":760,"x_min":0,"x_max":0,"o":"m 393 750 l 235 750 l 235 904 l 125 904 l 125 0 l 235 0 l 235 187 l 431 187 b 536 208 469 187 504 194 b 620 267 568 222 596 242 b 675 357 644 292 662 322 b 694 473 688 392 694 431 b 617 679 694 563 669 632 b 393 750 566 726 491 750 z m 414 279 l 235 279 l 235 659 l 400 659 b 481 643 431 659 458 653 b 538 602 504 633 523 619 b 572 543 553 585 565 565 b 583 471 579 520 583 496 b 576 402 583 448 581 425 b 549 341 571 380 562 359 b 496 297 536 323 518 308 b 414 279 475 285 447 279 z "},"ß":{"ha":771,"x_min":0,"x_max":0,"o":"m 216 0 l 216 734 b 225 801 216 757 219 779 b 252 860 230 823 240 842 b 301 902 264 878 281 892 b 376 918 321 913 347 918 b 446 904 404 918 427 914 b 493 868 465 895 481 883 b 519 818 505 853 514 836 b 528 761 525 799 528 780 b 519 689 528 737 525 713 b 487 622 513 665 502 643 b 423 572 472 602 450 585 b 319 553 395 559 361 553 l 319 469 l 340 469 b 359 470 346 469 352 470 b 378 471 366 470 372 471 b 488 455 421 471 458 466 b 560 413 518 445 542 431 b 599 348 578 395 591 373 b 611 260 607 323 611 293 b 565 119 611 200 596 153 b 440 69 534 86 492 69 b 361 80 413 69 387 73 b 300 106 335 88 315 96 l 300 7 b 363 -10 316 0 338 -5 b 441 -17 389 -15 415 -17 b 565 7 489 -17 530 -9 b 651 69 599 23 628 43 b 702 157 674 94 690 124 b 718 264 713 190 718 226 b 699 367 718 302 712 336 b 646 448 685 398 668 425 b 568 504 623 471 598 490 b 475 534 538 519 507 529 l 475 541 b 534 573 495 548 515 559 b 586 624 554 588 571 604 b 622 687 601 643 613 664 b 636 758 631 710 636 733 b 621 851 636 791 631 822 b 574 928 611 880 595 906 b 492 983 552 951 525 969 b 375 1004 459 997 420 1004 b 260 983 332 1004 293 997 b 178 926 227 968 200 949 b 128 845 156 902 139 875 b 111 747 117 814 111 782 l 111 0 z "},"à":{"ha":710,"x_min":0,"x_max":0,"o":"m 294 66 b 219 90 262 66 237 74 b 193 158 202 105 193 128 b 235 231 195 191 209 215 b 281 249 248 238 263 244 b 336 260 300 253 318 257 b 411 270 360 263 385 267 b 472 278 437 274 458 276 l 472 222 b 459 165 472 203 468 184 b 425 115 451 147 440 130 b 370 80 410 100 392 89 b 294 66 349 71 323 66 z m 92 513 l 180 465 b 212 518 189 485 200 502 b 258 553 224 531 239 543 b 334 568 278 563 303 568 b 439 528 382 568 417 555 b 472 422 461 501 472 466 l 472 346 l 343 329 b 249 312 307 324 275 319 b 172 285 222 306 196 297 b 112 234 148 272 128 255 b 86 154 96 213 87 186 b 137 29 86 101 103 60 b 278 -17 170 -2 217 -17 b 403 18 324 -17 366 -5 b 488 104 440 41 468 70 b 521 27 491 73 502 47 b 593 -3 539 7 563 -3 b 637 1 613 -3 627 -1 b 663 12 647 4 655 8 l 657 94 b 643 92 652 93 647 92 b 621 90 638 91 631 90 b 586 105 605 90 594 95 b 575 170 579 116 575 137 l 575 431 b 563 521 575 462 571 492 b 522 593 554 549 541 573 b 447 639 503 613 478 628 b 335 656 417 650 379 656 b 221 634 290 656 252 649 b 144 585 189 620 164 603 b 92 513 121 563 104 539 z m 396 843 l 195 1046 l 138 989 l 339 786 z "},"á":{"ha":710,"x_min":0,"x_max":0,"o":"m 294 66 b 219 90 262 66 237 74 b 193 158 202 105 193 128 b 235 231 195 191 209 215 b 281 249 248 238 263 244 b 336 260 300 253 318 257 b 411 270 360 263 385 267 b 472 278 437 274 458 276 l 472 222 b 459 165 472 203 468 184 b 425 115 451 147 440 130 b 370 80 410 100 392 89 b 294 66 349 71 323 66 z m 92 513 l 180 465 b 212 518 189 485 200 502 b 258 553 224 531 239 543 b 334 568 278 563 303 568 b 439 528 382 568 417 555 b 472 422 461 501 472 466 l 472 346 l 343 329 b 249 312 307 324 275 319 b 172 285 222 306 196 297 b 112 234 148 272 128 255 b 86 154 96 213 87 186 b 137 29 86 101 103 60 b 278 -17 170 -2 217 -17 b 403 18 324 -17 366 -5 b 488 104 440 41 468 70 b 521 27 491 73 502 47 b 593 -3 539 7 563 -3 b 637 1 613 -3 627 -1 b 663 12 647 4 655 8 l 657 94 b 643 92 652 93 647 92 b 621 90 638 91 631 90 b 586 105 605 90 594 95 b 575 170 579 116 575 137 l 575 431 b 563 521 575 462 571 492 b 522 593 554 549 541 573 b 447 639 503 613 478 628 b 335 656 417 650 379 656 b 221 634 290 656 252 649 b 144 585 189 620 164 603 b 92 513 121 563 104 539 z m 465 1046 l 264 843 l 321 786 l 522 989 z "},"â":{"ha":710,"x_min":0,"x_max":0,"o":"m 294 66 b 219 90 262 66 237 74 b 193 158 202 105 193 128 b 235 231 195 191 209 215 b 281 249 248 238 263 244 b 336 260 300 253 318 257 b 411 270 360 263 385 267 b 472 278 437 274 458 276 l 472 222 b 459 165 472 203 468 184 b 425 115 451 147 440 130 b 370 80 410 100 392 89 b 294 66 349 71 323 66 z m 92 513 l 180 465 b 212 518 189 485 200 502 b 258 553 224 531 239 543 b 334 568 278 563 303 568 b 439 528 382 568 417 555 b 472 422 461 501 472 466 l 472 346 l 343 329 b 249 312 307 324 275 319 b 172 285 222 306 196 297 b 112 234 148 272 128 255 b 86 154 96 213 87 186 b 137 29 86 101 103 60 b 278 -17 170 -2 217 -17 b 403 18 324 -17 366 -5 b 488 104 440 41 468 70 b 521 27 491 73 502 47 b 593 -3 539 7 563 -3 b 637 1 613 -3 627 -1 b 663 12 647 4 655 8 l 657 94 b 643 92 652 93 647 92 b 621 90 638 91 631 90 b 586 105 605 90 594 95 b 575 170 579 116 575 137 l 575 431 b 563 521 575 462 571 492 b 522 593 554 549 541 573 b 447 639 503 613 478 628 b 335 656 417 650 379 656 b 221 634 290 656 252 649 b 144 585 189 620 164 603 b 92 513 121 563 104 539 z m 82 787 l 196 787 l 346 949 l 496 787 l 610 787 l 389 1010 l 303 1010 z "},"ã":{"ha":710,"x_min":0,"x_max":0,"o":"m 294 66 b 219 90 262 66 237 74 b 193 158 202 105 193 128 b 235 231 195 191 209 215 b 281 249 248 238 263 244 b 336 260 300 253 318 257 b 411 270 360 263 385 267 b 472 278 437 274 458 276 l 472 222 b 459 165 472 203 468 184 b 425 115 451 147 440 130 b 370 80 410 100 392 89 b 294 66 349 71 323 66 z m 92 513 l 180 465 b 212 518 189 485 200 502 b 258 553 224 531 239 543 b 334 568 278 563 303 568 b 439 528 382 568 417 555 b 472 422 461 501 472 466 l 472 346 l 343 329 b 249 312 307 324 275 319 b 172 285 222 306 196 297 b 112 234 148 272 128 255 b 86 154 96 213 87 186 b 137 29 86 101 103 60 b 278 -17 170 -2 217 -17 b 403 18 324 -17 366 -5 b 488 104 440 41 468 70 b 521 27 491 73 502 47 b 593 -3 539 7 563 -3 b 637 1 613 -3 627 -1 b 663 12 647 4 655 8 l 657 94 b 643 92 652 93 647 92 b 621 90 638 91 631 90 b 586 105 605 90 594 95 b 575 170 579 116 575 137 l 575 431 b 563 521 575 462 571 492 b 522 593 554 549 541 573 b 447 639 503 613 478 628 b 335 656 417 650 379 656 b 221 634 290 656 252 649 b 144 585 189 620 164 603 b 92 513 121 563 104 539 z m 238 945 b 194 936 222 945 208 942 b 159 908 180 929 169 920 b 137 867 149 897 142 883 b 130 817 131 852 129 835 l 206 787 b 212 813 208 796 210 805 b 220 836 215 822 217 829 b 232 851 224 842 228 847 b 250 857 237 855 243 857 b 287 846 262 857 274 853 b 328 823 300 839 314 831 b 373 799 342 814 357 806 b 425 789 389 792 407 789 b 476 801 445 789 462 793 b 512 833 491 810 502 820 b 531 874 521 845 527 859 b 534 918 535 890 536 904 l 457 947 b 452 921 456 938 454 930 b 445 899 451 913 448 906 b 433 884 442 893 438 888 b 414 878 428 880 422 878 b 377 888 403 878 390 881 b 336 911 365 895 351 903 b 290 935 321 920 306 928 b 238 945 273 942 256 945 z "},"ä":{"ha":710,"x_min":0,"x_max":0,"o":"m 294 66 b 219 90 262 66 237 74 b 193 158 202 105 193 128 b 235 231 195 191 209 215 b 281 249 248 238 263 244 b 336 260 300 253 318 257 b 411 270 360 263 385 267 b 472 278 437 274 458 276 l 472 222 b 459 165 472 203 468 184 b 425 115 451 147 440 130 b 370 80 410 100 392 89 b 294 66 349 71 323 66 z m 92 513 l 180 465 b 212 518 189 485 200 502 b 258 553 224 531 239 543 b 334 568 278 563 303 568 b 439 528 382 568 417 555 b 472 422 461 501 472 466 l 472 346 l 343 329 b 249 312 307 324 275 319 b 172 285 222 306 196 297 b 112 234 148 272 128 255 b 86 154 96 213 87 186 b 137 29 86 101 103 60 b 278 -17 170 -2 217 -17 b 403 18 324 -17 366 -5 b 488 104 440 41 468 70 b 521 27 491 73 502 47 b 593 -3 539 7 563 -3 b 637 1 613 -3 627 -1 b 663 12 647 4 655 8 l 657 94 b 643 92 652 93 647 92 b 621 90 638 91 631 90 b 586 105 605 90 594 95 b 575 170 579 116 575 137 l 575 431 b 563 521 575 462 571 492 b 522 593 554 549 541 573 b 447 639 503 613 478 628 b 335 656 417 650 379 656 b 221 634 290 656 252 649 b 144 585 189 620 164 603 b 92 513 121 563 104 539 z m 271 864 b 248 921 271 887 263 906 b 193 940 232 934 214 940 b 137 921 171 940 153 934 b 117 864 123 907 117 888 b 137 808 117 841 123 822 b 193 787 152 794 170 787 b 248 808 214 787 232 794 b 271 864 263 823 271 842 z m 550 864 b 528 921 550 887 543 906 b 473 940 512 934 494 940 b 416 921 451 940 432 934 b 395 864 402 907 395 888 b 416 808 395 841 402 822 b 473 787 431 794 450 787 b 528 808 494 787 512 794 b 550 864 543 823 550 842 z "},"å":{"ha":710,"x_min":0,"x_max":0,"o":"m 294 66 b 219 90 262 66 237 74 b 193 158 202 105 193 128 b 235 231 195 191 209 215 b 281 249 248 238 263 244 b 336 260 300 253 318 257 b 411 270 360 263 385 267 b 472 278 437 274 458 276 l 472 222 b 459 165 472 203 468 184 b 425 115 451 147 440 130 b 370 80 410 100 392 89 b 294 66 349 71 323 66 z m 92 513 l 180 465 b 212 518 189 485 200 502 b 258 553 224 531 239 543 b 334 568 278 563 303 568 b 439 528 382 568 417 555 b 472 422 461 501 472 466 l 472 346 l 343 329 b 249 312 307 324 275 319 b 172 285 222 306 196 297 b 112 234 148 272 128 255 b 86 154 96 213 87 186 b 137 29 86 101 103 60 b 278 -17 170 -2 217 -17 b 403 18 324 -17 366 -5 b 488 104 440 41 468 70 b 521 27 491 73 502 47 b 593 -3 539 7 563 -3 b 637 1 613 -3 627 -1 b 663 12 647 4 655 8 l 657 94 b 643 92 652 93 647 92 b 621 90 638 91 631 90 b 586 105 605 90 594 95 b 575 170 579 116 575 137 l 575 431 b 563 521 575 462 571 492 b 522 593 554 549 541 573 b 447 639 503 613 478 628 b 335 656 417 650 379 656 b 221 634 290 656 252 649 b 144 585 189 620 164 603 b 92 513 121 563 104 539 z m 178 946 b 221 833 178 901 192 864 b 340 787 251 803 290 787 b 406 800 364 787 386 792 b 458 833 426 808 443 819 b 491 884 472 847 483 864 b 503 946 499 903 503 924 b 491 1008 503 968 499 989 b 458 1058 483 1027 472 1043 b 406 1092 443 1072 426 1083 b 340 1104 386 1100 364 1104 b 221 1058 290 1104 251 1089 b 178 946 192 1028 178 990 z m 248 946 b 274 1013 248 972 256 994 b 340 1042 292 1032 314 1042 b 406 1013 366 1042 388 1032 b 433 946 424 994 433 972 b 406 878 433 919 424 896 b 340 850 388 859 366 850 b 274 878 314 850 292 859 b 248 946 256 896 248 919 z "},"æ":{"ha":1092,"x_min":0,"x_max":0,"o":"m 335 656 b 222 633 290 656 253 648 b 147 583 192 618 167 602 b 92 513 124 562 106 538 l 183 465 b 212 517 190 484 200 501 b 258 552 224 530 239 542 b 334 568 278 563 303 568 b 439 531 382 568 417 556 b 472 428 461 506 472 471 l 472 354 l 302 340 b 219 324 272 338 244 332 b 151 288 194 315 171 304 b 103 233 130 273 114 255 b 86 158 92 212 86 187 b 142 31 86 106 105 63 b 281 -17 179 -1 225 -17 b 347 -10 303 -17 325 -15 b 413 15 369 -5 391 3 b 475 64 435 27 455 43 b 529 140 494 84 512 110 b 559 81 536 120 546 100 b 608 31 572 62 589 46 b 677 -4 628 17 651 5 b 766 -17 704 -13 733 -17 b 851 -7 796 -17 824 -14 b 922 20 877 -1 901 8 b 976 61 942 32 961 45 b 1011 111 991 77 1003 94 l 917 157 b 862 96 906 133 888 112 b 764 71 836 79 803 71 b 686 88 734 71 708 76 b 629 135 664 100 645 116 b 592 203 614 154 601 177 b 575 288 584 230 578 258 l 1018 321 b 1019 339 1018 328 1018 334 b 1021 363 1020 343 1021 352 b 1001 493 1021 413 1014 456 b 947 586 987 530 969 561 b 865 640 924 610 897 628 b 764 657 834 651 800 657 b 686 645 735 657 709 653 b 625 612 663 636 643 625 b 579 567 608 599 592 584 b 547 517 566 550 555 533 b 516 569 539 534 528 552 b 471 613 503 586 489 601 b 412 644 454 626 434 636 b 335 656 389 652 363 656 z m 758 571 b 870 524 806 571 843 555 b 911 403 897 492 911 452 b 910 394 911 401 911 398 b 909 385 910 389 909 386 l 575 361 b 628 515 579 427 596 478 b 758 571 659 552 703 571 z m 294 66 b 224 91 269 66 245 75 b 193 164 204 107 193 132 b 205 215 193 184 197 201 b 237 246 212 228 223 238 b 286 262 251 253 267 259 b 336 269 304 265 321 267 b 411 276 360 272 385 274 b 472 278 437 277 458 278 l 472 222 b 459 165 472 203 468 184 b 425 115 451 147 440 130 b 368 80 410 100 391 89 b 294 66 345 71 321 66 z "},"ç":{"ha":650,"x_min":0,"x_max":0,"o":"m 519 479 l 604 528 b 518 618 588 563 560 593 b 368 656 477 643 427 656 b 247 633 324 656 284 648 b 152 566 210 617 179 595 b 90 460 126 537 105 502 b 68 319 75 419 68 372 b 90 178 68 267 75 220 b 152 73 105 137 126 102 b 247 6 179 44 210 21 b 370 -17 284 -9 325 -17 b 522 20 429 -17 479 -5 b 604 111 564 45 591 75 l 519 160 b 468 99 512 136 495 115 b 366 75 441 83 407 75 b 220 142 299 75 250 98 b 175 321 190 187 175 247 b 219 496 175 393 190 452 b 366 564 249 541 298 564 b 468 538 409 564 443 555 b 519 479 493 521 510 502 z m 339 24 l 260 12 b 395 -134 350 -30 395 -79 b 326 -211 395 -185 372 -211 b 239 -182 294 -211 265 -201 l 205 -233 b 321 -277 236 -262 275 -277 b 481 -140 428 -277 481 -231 b 382 0 481 -87 448 -41 b 339 24 369 8 355 16 z "},"è":{"ha":705,"x_min":0,"x_max":0,"o":"m 174 307 l 633 307 b 635 327 634 314 635 321 l 635 347 b 618 470 635 392 629 432 b 569 568 607 507 591 540 b 486 633 547 596 520 617 b 370 656 453 648 414 656 b 249 633 326 656 286 648 b 153 567 212 617 180 595 b 90 460 126 538 105 503 b 68 318 75 418 68 371 b 86 189 68 273 74 230 b 142 82 98 148 117 112 b 237 9 167 51 198 27 b 374 -17 275 -8 321 -17 b 492 2 421 -17 460 -11 b 570 45 524 15 550 29 b 624 107 593 62 611 83 l 529 155 b 496 113 521 139 510 125 b 446 82 483 101 466 91 b 372 69 426 74 402 69 b 232 127 316 69 269 88 b 174 307 195 165 175 225 z m 364 570 b 437 555 393 570 417 565 b 485 516 457 545 473 532 b 513 462 498 500 507 482 b 522 403 519 442 522 422 l 522 392 l 179 392 b 236 519 184 444 203 486 b 364 570 269 553 311 570 z m 423 829 l 222 1032 l 165 975 l 366 772 z "},"é":{"ha":705,"x_min":0,"x_max":0,"o":"m 174 307 l 633 307 b 635 327 634 314 635 321 l 635 347 b 618 470 635 392 629 432 b 569 568 607 507 591 540 b 486 633 547 596 520 617 b 370 656 453 648 414 656 b 249 633 326 656 286 648 b 153 567 212 617 180 595 b 90 460 126 538 105 503 b 68 318 75 418 68 371 b 86 189 68 273 74 230 b 142 82 98 148 117 112 b 237 9 167 51 198 27 b 374 -17 275 -8 321 -17 b 492 2 421 -17 460 -11 b 570 45 524 15 550 29 b 624 107 593 62 611 83 l 529 155 b 496 113 521 139 510 125 b 446 82 483 101 466 91 b 372 69 426 74 402 69 b 232 127 316 69 269 88 b 174 307 195 165 175 225 z m 364 570 b 437 555 393 570 417 565 b 485 516 457 545 473 532 b 513 462 498 500 507 482 b 522 403 519 442 522 422 l 522 392 l 179 392 b 236 519 184 444 203 486 b 364 570 269 553 311 570 z m 514 1046 l 313 843 l 370 786 l 571 989 z "},"ê":{"ha":705,"x_min":0,"x_max":0,"o":"m 174 307 l 633 307 b 635 327 634 314 635 321 l 635 347 b 618 470 635 392 629 432 b 569 568 607 507 591 540 b 486 633 547 596 520 617 b 370 656 453 648 414 656 b 249 633 326 656 286 648 b 153 567 212 617 180 595 b 90 460 126 538 105 503 b 68 318 75 418 68 371 b 86 189 68 273 74 230 b 142 82 98 148 117 112 b 237 9 167 51 198 27 b 374 -17 275 -8 321 -17 b 492 2 421 -17 460 -11 b 570 45 524 15 550 29 b 624 107 593 62 611 83 l 529 155 b 496 113 521 139 510 125 b 446 82 483 101 466 91 b 372 69 426 74 402 69 b 232 127 316 69 269 88 b 174 307 195 165 175 225 z m 364 570 b 437 555 393 570 417 565 b 485 516 457 545 473 532 b 513 462 498 500 507 482 b 522 403 519 442 522 422 l 522 392 l 179 392 b 236 519 184 444 203 486 b 364 570 269 553 311 570 z m 106 787 l 220 787 l 370 949 l 519 787 l 633 787 l 413 1010 l 327 1010 z "},"ë":{"ha":705,"x_min":0,"x_max":0,"o":"m 174 307 l 633 307 b 635 327 634 314 635 321 l 635 347 b 618 470 635 392 629 432 b 569 568 607 507 591 540 b 486 633 547 596 520 617 b 370 656 453 648 414 656 b 249 633 326 656 286 648 b 153 567 212 617 180 595 b 90 460 126 538 105 503 b 68 318 75 418 68 371 b 86 189 68 273 74 230 b 142 82 98 148 117 112 b 237 9 167 51 198 27 b 374 -17 275 -8 321 -17 b 492 2 421 -17 460 -11 b 570 45 524 15 550 29 b 624 107 593 62 611 83 l 529 155 b 496 113 521 139 510 125 b 446 82 483 101 466 91 b 372 69 426 74 402 69 b 232 127 316 69 269 88 b 174 307 195 165 175 225 z m 364 570 b 437 555 393 570 417 565 b 485 516 457 545 473 532 b 513 462 498 500 507 482 b 522 403 519 442 522 422 l 522 392 l 179 392 b 236 519 184 444 203 486 b 364 570 269 553 311 570 z m 286 864 b 264 921 286 887 279 906 b 208 940 248 934 229 940 b 153 921 187 940 168 934 b 132 864 139 907 132 888 b 153 808 132 841 139 822 b 208 787 168 794 186 787 b 264 808 229 787 248 794 b 286 864 279 823 286 842 z m 566 864 b 543 921 566 887 558 906 b 489 940 527 934 509 940 b 432 921 467 940 448 934 b 411 864 418 907 411 888 b 432 808 411 841 418 822 b 489 787 447 794 466 787 b 543 808 509 787 527 794 b 566 864 558 823 566 842 z "},"ì":{"ha":355,"x_min":0,"x_max":0,"o":"m 276 833 l 113 1067 l 47 1021 l 210 786 z m 125 0 l 231 0 l 231 639 l 125 639 z "},"í":{"ha":355,"x_min":0,"x_max":0,"o":"m 277 1067 l 114 833 l 180 786 l 342 1021 z m 125 0 l 231 0 l 231 639 l 125 639 z "},"î":{"ha":355,"x_min":0,"x_max":0,"o":"m 125 0 l 231 0 l 231 639 l 125 639 z m 0 787 l 86 787 l 180 949 l 275 787 l 361 787 l 224 1010 l 138 1010 z "},"ï":{"ha":355,"x_min":0,"x_max":0,"o":"m 126 864 b 104 921 126 887 119 906 b 48 940 88 934 69 940 b -7 921 27 940 8 934 b -28 864 -21 907 -28 888 b -7 808 -28 841 -21 822 b 48 787 7 794 26 787 b 104 808 69 787 88 794 b 126 864 119 823 126 842 z m 378 864 b 356 921 378 887 371 906 b 302 940 340 934 322 940 b 245 921 280 940 261 934 b 224 864 231 907 224 888 b 245 808 224 841 231 822 b 302 787 260 794 279 787 b 356 808 322 787 340 794 b 378 864 371 823 378 842 z m 125 0 l 231 0 l 231 639 l 125 639 z "},"ð":{"ha":761,"x_min":0,"x_max":0,"o":"m 400 868 l 245 810 l 278 741 l 460 815 b 541 696 492 781 519 741 b 583 555 562 651 576 604 b 494 628 562 584 532 609 b 366 657 456 647 413 657 b 230 626 313 657 267 647 b 138 545 192 605 162 578 b 85 435 114 512 96 475 b 68 315 73 394 68 354 b 84 200 68 277 73 239 b 137 93 94 161 112 126 b 233 14 161 61 194 34 b 379 -17 273 -7 322 -17 b 611 88 479 -17 556 18 b 693 411 666 158 693 266 b 682 556 693 464 689 512 b 652 676 674 601 664 640 b 607 772 640 711 625 743 b 551 850 589 801 571 827 l 654 893 l 624 965 l 490 909 b 431 958 476 923 456 939 b 355 1004 405 978 380 993 l 307 935 b 333 920 315 931 324 926 b 360 901 343 914 351 908 b 383 883 368 895 376 889 b 400 868 390 877 396 872 z m 378 69 b 286 87 342 69 311 75 b 222 138 260 100 239 117 b 186 216 206 160 194 186 b 175 314 179 246 175 279 b 186 413 175 349 179 382 b 221 495 194 444 205 472 b 284 551 237 519 258 537 b 376 571 309 564 340 571 b 467 551 412 571 442 564 b 530 495 493 537 513 519 b 566 412 546 472 558 444 b 578 309 574 380 578 346 b 524 126 578 225 560 164 b 378 69 487 88 439 69 z "},"ñ":{"ha":775,"x_min":0,"x_max":0,"o":"m 566 421 l 566 0 l 671 0 l 671 422 b 653 529 671 464 665 500 b 606 602 642 559 626 583 b 536 643 586 620 563 634 b 449 656 509 651 480 656 b 374 643 422 656 397 652 b 313 610 352 635 331 624 b 264 565 294 597 278 582 b 232 513 250 548 239 530 l 225 513 l 225 545 b 224 581 225 557 225 569 b 223 615 224 593 224 604 b 221 639 223 625 222 633 l 118 639 b 123 566 120 616 121 591 b 125 507 124 540 125 521 l 125 0 l 231 0 l 231 336 b 242 419 231 364 235 392 b 278 494 250 447 262 472 b 338 549 294 517 314 535 b 421 570 362 563 389 570 b 486 557 446 570 467 565 b 530 524 504 549 518 538 b 556 477 542 511 550 495 b 566 421 563 459 566 441 z m 317 945 b 273 936 301 945 286 942 b 238 908 259 929 247 920 b 215 867 228 897 221 883 b 209 817 210 852 208 835 l 285 787 b 291 813 287 796 289 805 b 299 836 293 822 296 829 b 311 851 302 842 306 847 b 328 857 316 855 321 857 b 366 846 340 857 353 853 b 407 823 379 839 392 831 b 452 799 421 814 436 806 b 504 789 468 792 485 789 b 555 801 523 789 540 793 b 590 833 569 810 581 820 b 610 874 600 845 606 859 b 612 918 613 890 614 904 l 536 947 b 531 921 534 938 533 930 b 524 899 529 913 527 906 b 512 884 521 893 517 888 b 493 878 507 880 501 878 b 456 888 481 878 469 881 b 415 911 443 895 429 903 b 368 935 400 920 385 928 b 317 945 352 942 335 945 z "},"ò":{"ha":746,"x_min":0,"x_max":0,"o":"m 677 319 b 655 461 677 372 670 420 b 592 567 640 503 619 538 b 496 633 565 595 533 617 b 374 656 459 648 418 656 b 252 633 329 656 289 648 b 155 567 215 617 182 595 b 91 461 128 538 106 503 b 68 319 76 420 68 372 b 91 178 68 267 76 219 b 155 72 106 136 128 101 b 252 6 182 44 215 21 b 374 -17 289 -9 329 -17 b 496 6 418 -17 459 -9 b 592 72 533 21 565 44 b 655 178 619 101 640 136 b 677 319 670 219 677 267 z m 571 319 b 516 133 571 237 553 175 b 374 71 479 91 432 71 b 231 133 315 71 268 91 b 175 319 194 175 175 237 b 231 506 175 402 194 464 b 374 568 268 547 315 568 b 516 506 432 568 479 547 b 571 319 553 464 571 402 z m 442 843 l 241 1046 l 184 989 l 385 786 z "},"ó":{"ha":746,"x_min":0,"x_max":0,"o":"m 677 319 b 655 461 677 372 670 420 b 592 567 640 503 619 538 b 496 633 565 595 533 617 b 374 656 459 648 418 656 b 252 633 329 656 289 648 b 155 567 215 617 182 595 b 91 461 128 538 106 503 b 68 319 76 420 68 372 b 91 178 68 267 76 219 b 155 72 106 136 128 101 b 252 6 182 44 215 21 b 374 -17 289 -9 329 -17 b 496 6 418 -17 459 -9 b 592 72 533 21 565 44 b 655 178 619 101 640 136 b 677 319 670 219 677 267 z m 571 319 b 516 133 571 237 553 175 b 374 71 479 91 432 71 b 231 133 315 71 268 91 b 175 319 194 175 175 237 b 231 506 175 402 194 464 b 374 568 268 547 315 568 b 516 506 432 568 479 547 b 571 319 553 464 571 402 z m 511 1046 l 310 843 l 367 786 l 568 989 z "},"ô":{"ha":746,"x_min":0,"x_max":0,"o":"m 677 319 b 655 461 677 372 670 420 b 592 567 640 503 619 538 b 496 633 565 595 533 617 b 374 656 459 648 418 656 b 252 633 329 656 289 648 b 155 567 215 617 182 595 b 91 461 128 538 106 503 b 68 319 76 420 68 372 b 91 178 68 267 76 219 b 155 72 106 136 128 101 b 252 6 182 44 215 21 b 374 -17 289 -9 329 -17 b 496 6 418 -17 459 -9 b 592 72 533 21 565 44 b 655 178 619 101 640 136 b 677 319 670 219 677 267 z m 571 319 b 516 133 571 237 553 175 b 374 71 479 91 432 71 b 231 133 315 71 268 91 b 175 319 194 175 175 237 b 231 506 175 402 194 464 b 374 568 268 547 315 568 b 516 506 432 568 479 547 b 571 319 553 464 571 402 z m 117 787 l 231 787 l 380 949 l 530 787 l 644 787 l 424 1010 l 338 1010 z "},"õ":{"ha":746,"x_min":0,"x_max":0,"o":"m 677 319 b 655 461 677 372 670 420 b 592 567 640 503 619 538 b 496 633 565 595 533 617 b 374 656 459 648 418 656 b 252 633 329 656 289 648 b 155 567 215 617 182 595 b 91 461 128 538 106 503 b 68 319 76 420 68 372 b 91 178 68 267 76 219 b 155 72 106 136 128 101 b 252 6 182 44 215 21 b 374 -17 289 -9 329 -17 b 496 6 418 -17 459 -9 b 592 72 533 21 565 44 b 655 178 619 101 640 136 b 677 319 670 219 677 267 z m 571 319 b 516 133 571 237 553 175 b 374 71 479 91 432 71 b 231 133 315 71 268 91 b 175 319 194 175 175 237 b 231 506 175 402 194 464 b 374 568 268 547 315 568 b 516 506 432 568 479 547 b 571 319 553 464 571 402 z m 275 945 b 231 936 260 945 245 942 b 196 908 218 929 206 920 b 174 867 187 897 179 883 b 168 817 169 852 167 835 l 243 787 b 250 813 245 796 247 805 b 258 836 252 822 255 829 b 270 851 261 842 265 847 b 287 857 274 855 280 857 b 325 846 299 857 312 853 b 365 823 337 839 351 831 b 411 799 379 814 395 806 b 463 789 427 792 444 789 b 513 801 482 789 499 793 b 549 833 528 810 540 820 b 568 874 558 845 565 859 b 571 918 572 890 573 904 l 494 947 b 490 921 493 938 491 930 b 483 899 488 913 485 906 b 471 884 480 893 476 888 b 452 878 466 880 459 878 b 415 888 440 878 428 881 b 373 911 402 895 388 903 b 327 935 359 920 343 928 b 275 945 311 942 293 945 z "},"ö":{"ha":746,"x_min":0,"x_max":0,"o":"m 677 319 b 655 461 677 372 670 420 b 592 567 640 503 619 538 b 496 633 565 595 533 617 b 374 656 459 648 418 656 b 252 633 329 656 289 648 b 155 567 215 617 182 595 b 91 461 128 538 106 503 b 68 319 76 420 68 372 b 91 178 68 267 76 219 b 155 72 106 136 128 101 b 252 6 182 44 215 21 b 374 -17 289 -9 329 -17 b 496 6 418 -17 459 -9 b 592 72 533 21 565 44 b 655 178 619 101 640 136 b 677 319 670 219 677 267 z m 571 319 b 516 133 571 237 553 175 b 374 71 479 91 432 71 b 231 133 315 71 268 91 b 175 319 194 175 175 237 b 231 506 175 402 194 464 b 374 568 268 547 315 568 b 516 506 432 568 479 547 b 571 319 553 464 571 402 z m 311 864 b 289 921 311 887 304 906 b 233 940 273 934 255 940 b 178 921 212 940 194 934 b 157 864 164 907 157 888 b 178 808 157 841 164 822 b 233 787 193 794 211 787 b 289 808 255 787 273 794 b 311 864 304 823 311 842 z m 591 864 b 568 921 591 887 583 906 b 514 940 552 934 534 940 b 457 921 492 940 473 934 b 436 864 443 907 436 888 b 457 808 436 841 443 822 b 514 787 472 794 491 787 b 568 808 534 787 552 794 b 591 864 583 823 591 842 z "},"÷":{"ha":708,"x_min":0,"x_max":0,"o":"m 646 357 l 646 357 l 49 357 l 49 271 l 646 271 z m 432 111 b 409 169 432 135 424 154 b 353 190 393 183 375 190 b 300 169 334 190 316 183 b 277 111 285 154 277 135 b 300 50 277 85 285 65 b 353 28 316 35 334 28 b 409 50 375 28 393 35 b 432 111 424 65 432 85 z m 432 535 b 409 592 432 559 424 578 b 353 614 393 607 375 614 b 300 592 334 614 316 607 b 277 535 285 578 277 559 b 300 474 277 509 285 488 b 353 452 316 459 334 452 b 409 474 375 452 393 459 b 432 535 424 488 432 509 z "},"ø":{"ha":746,"x_min":0,"x_max":0,"o":"m 121 115 l 33 28 l 86 -32 l 171 56 b 374 -17 225 7 292 -17 b 496 6 418 -17 459 -9 b 592 72 533 21 565 44 b 655 178 619 101 640 136 b 677 319 670 219 677 267 b 665 426 677 358 673 394 b 631 514 657 459 646 488 l 728 612 l 673 669 l 582 576 b 374 656 526 629 457 656 b 252 633 329 656 289 648 b 155 567 215 617 182 595 b 91 461 128 538 106 503 b 68 319 76 420 68 372 b 82 206 68 278 72 240 b 121 115 91 172 104 142 z m 172 306 b 188 416 172 347 177 383 b 229 499 198 449 212 477 b 292 552 247 522 268 539 b 374 571 317 565 344 571 b 450 555 401 571 427 566 b 510 511 473 544 493 530 l 193 183 b 178 239 186 201 181 220 b 172 306 174 259 172 281 z m 574 334 b 559 223 574 293 569 256 b 517 139 549 190 536 162 b 453 86 499 116 478 98 b 374 68 429 74 402 68 b 297 84 346 68 320 73 b 236 127 274 94 254 109 l 551 454 b 567 398 558 437 563 418 b 574 334 572 378 574 357 z "},"ù":{"ha":762,"x_min":0,"x_max":0,"o":"m 216 221 l 216 639 l 111 639 l 111 216 b 129 110 111 175 117 139 b 175 38 140 81 156 57 b 242 -4 194 19 217 5 b 322 -17 268 -13 295 -17 b 394 -5 348 -17 372 -13 b 452 27 416 3 435 14 b 498 73 470 41 485 56 b 530 126 511 90 522 108 l 536 126 b 537 93 536 116 537 105 b 538 58 538 81 538 69 b 540 24 539 46 539 35 b 542 0 540 13 541 5 l 644 0 b 640 74 642 23 641 48 b 637 132 638 100 637 119 l 637 639 l 532 639 l 532 301 b 519 211 532 269 528 239 b 484 138 511 183 499 159 b 427 87 468 116 449 100 b 350 69 404 75 379 69 b 290 81 327 69 307 73 b 249 114 274 89 260 100 b 224 163 237 128 229 144 b 216 221 219 181 216 201 z m 453 843 l 252 1046 l 195 989 l 396 786 z "},"ú":{"ha":762,"x_min":0,"x_max":0,"o":"m 216 221 l 216 639 l 111 639 l 111 216 b 129 110 111 175 117 139 b 175 38 140 81 156 57 b 242 -4 194 19 217 5 b 322 -17 268 -13 295 -17 b 394 -5 348 -17 372 -13 b 452 27 416 3 435 14 b 498 73 470 41 485 56 b 530 126 511 90 522 108 l 536 126 b 537 93 536 116 537 105 b 538 58 538 81 538 69 b 540 24 539 46 539 35 b 542 0 540 13 541 5 l 644 0 b 640 74 642 23 641 48 b 637 132 638 100 637 119 l 637 639 l 532 639 l 532 301 b 519 211 532 269 528 239 b 484 138 511 183 499 159 b 427 87 468 116 449 100 b 350 69 404 75 379 69 b 290 81 327 69 307 73 b 249 114 274 89 260 100 b 224 163 237 128 229 144 b 216 221 219 181 216 201 z m 509 1046 l 307 843 l 364 786 l 566 989 z "},"û":{"ha":762,"x_min":0,"x_max":0,"o":"m 216 221 l 216 639 l 111 639 l 111 216 b 129 110 111 175 117 139 b 175 38 140 81 156 57 b 242 -4 194 19 217 5 b 322 -17 268 -13 295 -17 b 394 -5 348 -17 372 -13 b 452 27 416 3 435 14 b 498 73 470 41 485 56 b 530 126 511 90 522 108 l 536 126 b 537 93 536 116 537 105 b 538 58 538 81 538 69 b 540 24 539 46 539 35 b 542 0 540 13 541 5 l 644 0 b 640 74 642 23 641 48 b 637 132 638 100 637 119 l 637 639 l 532 639 l 532 301 b 519 211 532 269 528 239 b 484 138 511 183 499 159 b 427 87 468 116 449 100 b 350 69 404 75 379 69 b 290 81 327 69 307 73 b 249 114 274 89 260 100 b 224 163 237 128 229 144 b 216 221 219 181 216 201 z m 121 787 l 235 787 l 385 949 l 534 787 l 648 787 l 428 1010 l 342 1010 z "},"ü":{"ha":762,"x_min":0,"x_max":0,"o":"m 216 221 l 216 639 l 111 639 l 111 216 b 129 110 111 175 117 139 b 175 38 140 81 156 57 b 242 -4 194 19 217 5 b 322 -17 268 -13 295 -17 b 394 -5 348 -17 372 -13 b 452 27 416 3 435 14 b 498 73 470 41 485 56 b 530 126 511 90 522 108 l 536 126 b 537 93 536 116 537 105 b 538 58 538 81 538 69 b 540 24 539 46 539 35 b 542 0 540 13 541 5 l 644 0 b 640 74 642 23 641 48 b 637 132 638 100 637 119 l 637 639 l 532 639 l 532 301 b 519 211 532 269 528 239 b 484 138 511 183 499 159 b 427 87 468 116 449 100 b 350 69 404 75 379 69 b 290 81 327 69 307 73 b 249 114 274 89 260 100 b 224 163 237 128 229 144 b 216 221 219 181 216 201 z m 323 864 b 301 921 323 887 316 906 b 245 940 285 934 267 940 b 190 921 224 940 206 934 b 170 864 176 907 170 888 b 190 808 170 841 176 822 b 245 787 205 794 223 787 b 301 808 267 787 285 794 b 323 864 316 823 323 842 z m 603 864 b 581 921 603 887 595 906 b 526 940 565 934 547 940 b 469 921 504 940 485 934 b 448 864 455 907 448 888 b 469 808 448 841 455 822 b 526 787 484 794 503 787 b 581 808 547 787 565 794 b 603 864 595 823 603 842 z "},"ý":{"ha":657,"x_min":0,"x_max":0,"o":"m 332 -250 l 332 -250 l 631 639 l 510 639 l 343 94 l 157 639 l 36 639 l 288 -50 l 241 -210 b 214 -258 236 -230 227 -246 b 161 -277 201 -271 184 -277 b 126 -273 150 -277 138 -275 b 89 -260 113 -270 101 -266 l 71 -345 b 113 -358 83 -350 97 -355 b 170 -364 130 -362 148 -364 b 266 -338 203 -364 235 -355 b 332 -250 296 -320 318 -291 z m 481 1046 l 279 843 l 336 786 l 538 989 z "},"þ":{"ha":804,"x_min":0,"x_max":0,"o":"m 450 654 b 316 618 397 654 353 642 b 233 541 279 594 252 568 l 227 541 b 228 567 227 549 227 557 b 230 592 229 574 229 582 b 231 619 230 601 231 610 l 231 987 l 125 987 l 125 -347 l 231 -347 l 231 17 b 230 46 231 27 230 37 b 228 71 229 55 229 63 b 227 96 227 80 227 88 l 233 96 b 316 18 252 68 279 42 b 450 -18 353 -6 397 -18 b 557 4 487 -18 523 -11 b 649 70 592 19 623 41 b 712 175 676 98 697 133 b 736 318 728 217 736 264 b 712 461 736 372 728 420 b 649 567 697 503 676 538 b 557 632 623 595 592 617 b 450 654 523 647 487 654 z m 421 69 b 277 134 363 69 315 91 b 220 318 239 177 220 238 b 277 503 220 399 239 460 b 421 567 315 546 363 567 b 504 552 451 567 478 562 b 570 505 529 542 551 526 b 613 427 588 484 603 458 b 628 318 623 396 628 360 b 570 132 628 236 609 174 b 421 69 531 90 481 69 z "},"ÿ":{"ha":657,"x_min":0,"x_max":0,"o":"m 332 -250 l 332 -250 l 631 639 l 510 639 l 343 94 l 157 639 l 36 639 l 288 -50 l 241 -210 b 214 -258 236 -230 227 -246 b 161 -277 201 -271 184 -277 b 126 -273 150 -277 138 -275 b 89 -260 113 -270 101 -266 l 71 -345 b 113 -358 83 -350 97 -355 b 170 -364 130 -362 148 -364 b 266 -338 203 -364 235 -355 b 332 -250 296 -320 318 -291 z m 261 864 b 239 921 261 887 254 906 b 183 940 223 934 204 940 b 127 921 162 940 143 934 b 107 864 114 907 107 888 b 127 808 107 841 114 822 b 183 787 142 794 161 787 b 239 808 204 787 223 794 b 261 864 254 823 261 842 z m 541 864 b 518 921 541 887 533 906 b 464 940 502 934 484 940 b 407 921 442 940 423 934 b 386 864 393 907 386 888 b 407 808 386 841 393 822 b 464 787 422 794 441 787 b 518 808 484 787 502 794 b 541 864 533 823 541 842 z "},"ı":{"ha":355,"x_min":0,"x_max":0,"o":"m 125 0 l 231 0 l 231 639 l 125 639 z "},"Œ":{"ha":1379,"x_min":0,"x_max":0,"o":"m 777 904 l 777 766 b 724 823 762 786 745 805 b 654 872 703 841 680 857 b 572 908 628 887 601 899 b 485 921 543 917 514 921 b 325 889 427 921 374 910 b 198 797 276 868 234 837 b 114 648 162 756 134 707 b 83 450 94 590 83 524 b 114 254 83 377 94 312 b 199 107 134 196 163 147 b 327 15 235 67 278 37 b 488 -17 377 -6 430 -17 b 573 -4 516 -17 544 -13 b 653 31 601 5 628 17 b 724 81 679 46 702 62 b 777 138 745 99 762 118 l 777 0 l 1296 0 l 1296 92 l 885 92 l 885 410 l 1251 410 l 1251 501 l 885 501 l 885 812 l 1278 812 l 1278 904 z m 781 450 b 760 288 781 389 774 335 b 700 171 746 242 726 203 b 608 99 674 139 643 115 b 489 75 572 83 532 75 b 370 99 446 75 406 83 b 277 171 335 115 303 139 b 216 288 251 203 230 242 b 195 450 202 335 195 389 b 216 613 195 511 202 565 b 276 731 230 660 250 700 b 368 804 301 763 332 788 b 486 829 403 821 443 829 b 606 804 530 829 569 821 b 699 731 642 788 673 763 b 759 613 724 700 744 660 b 781 450 773 565 781 511 z "},"œ":{"ha":1210,"x_min":0,"x_max":0,"o":"m 677 307 l 1137 307 b 1139 327 1138 314 1139 321 l 1139 347 b 1122 470 1139 392 1133 432 b 1073 568 1111 507 1095 540 b 990 633 1051 596 1024 617 b 873 656 957 648 918 656 b 722 611 816 656 765 641 b 618 494 678 581 643 542 l 612 494 b 578 555 604 516 593 536 b 526 608 564 575 547 592 b 457 644 506 623 483 635 b 371 657 431 653 402 657 b 250 634 328 657 287 649 b 154 568 213 619 181 597 b 91 463 127 539 106 504 b 68 321 76 421 68 374 b 91 179 68 268 76 221 b 154 74 106 137 127 102 b 250 7 181 45 213 23 b 371 -16 287 -8 328 -16 b 451 -2 399 -16 426 -11 b 520 33 476 6 499 18 b 574 83 541 47 559 64 b 611 142 590 102 602 121 l 616 142 b 659 80 628 120 642 99 b 715 30 675 61 694 44 b 788 -4 737 15 761 4 b 878 -17 816 -13 845 -17 b 997 2 925 -17 965 -11 b 1074 45 1028 15 1054 29 b 1128 107 1097 62 1115 83 l 1034 155 b 1000 113 1025 139 1014 125 b 951 82 987 101 971 91 b 876 69 931 74 906 69 b 736 127 820 69 773 88 b 677 307 699 165 680 225 z m 374 72 b 231 135 315 72 268 93 b 175 321 194 176 175 238 b 231 507 175 403 194 465 b 374 570 268 549 315 570 b 516 507 432 570 479 549 b 571 321 553 465 571 403 b 516 135 571 238 553 176 b 374 72 479 93 432 72 z m 863 570 b 935 555 891 570 915 565 b 984 516 955 545 971 532 b 1012 462 997 500 1006 482 b 1021 403 1018 442 1021 422 l 1021 392 l 677 392 b 735 519 683 444 702 486 b 863 570 767 553 810 570 z "},"Ÿ":{"ha":741,"x_min":0,"x_max":0,"o":"m 14 904 l 313 347 l 313 0 l 422 0 l 422 347 l 726 904 l 608 904 l 368 436 l 132 904 z m 307 1129 b 285 1186 307 1152 300 1171 b 229 1205 269 1199 250 1205 b 174 1186 208 1205 189 1199 b 153 1129 160 1172 153 1153 b 174 1074 153 1106 160 1088 b 229 1053 189 1060 207 1053 b 285 1074 250 1053 269 1060 b 307 1129 300 1088 307 1107 z m 587 1129 b 564 1186 587 1152 579 1171 b 510 1205 548 1199 530 1205 b 453 1186 488 1205 469 1199 b 432 1129 439 1172 432 1153 b 453 1074 432 1106 439 1088 b 510 1053 468 1060 487 1053 b 564 1074 530 1053 548 1060 b 587 1129 579 1088 587 1107 z "},"ˆ":{"ha":347,"x_min":0,"x_max":0,"o":"m -83 787 l 31 787 l 180 949 l 330 787 l 444 787 l 224 1010 l 138 1010 z "},"˙":{"ha":347,"x_min":0,"x_max":0,"o":"m 252 871 b 228 929 252 896 244 915 b 172 950 211 943 193 950 b 119 929 152 950 134 943 b 96 871 104 916 96 897 b 119 810 96 845 104 825 b 172 787 136 795 154 787 b 228 810 192 787 210 795 b 252 871 244 826 252 846 z "},"˚":{"ha":347,"x_min":0,"x_max":0,"o":"m 11 946 b 55 833 11 901 25 864 b 174 787 84 803 123 787 b 239 800 198 787 220 792 b 291 833 259 808 276 819 b 325 884 305 847 317 864 b 336 946 332 903 336 924 b 325 1008 336 968 332 989 b 291 1058 317 1027 305 1043 b 239 1092 276 1072 259 1083 b 174 1104 220 1100 198 1104 b 55 1058 123 1104 84 1089 b 11 946 25 1028 11 990 z m 81 946 b 107 1013 81 972 90 994 b 174 1042 125 1032 147 1042 b 239 1013 199 1042 221 1032 b 267 946 257 994 267 972 b 239 878 267 919 257 896 b 174 850 221 859 199 850 b 107 878 147 850 125 859 b 81 946 90 896 81 919 z "},"˜":{"ha":347,"x_min":0,"x_max":0,"o":"m 77 945 b 33 936 61 945 46 942 b -2 908 19 929 7 920 b -25 867 -12 897 -20 883 b -31 817 -30 852 -32 835 l 45 787 b 51 813 47 796 49 805 b 59 836 53 822 56 829 b 71 851 62 842 66 847 b 88 857 76 855 81 857 b 126 846 100 857 113 853 b 166 823 139 839 152 831 b 212 799 181 814 196 806 b 264 789 228 792 245 789 b 315 801 283 789 300 793 b 350 833 329 810 341 820 b 370 874 360 845 366 859 b 372 918 373 890 374 904 l 296 947 b 291 921 294 938 293 930 b 284 899 289 913 287 906 b 272 884 281 893 277 888 b 253 878 267 880 261 878 b 216 888 241 878 229 881 b 175 911 203 895 189 903 b 128 935 160 920 144 928 b 77 945 112 942 95 945 z "},"–":{"ha":667,"x_min":0,"x_max":0,"o":"m 14 359 l 14 268 l 653 268 l 653 359 z "},"—":{"ha":1083,"x_min":0,"x_max":0,"o":"m 14 359 l 14 268 l 1069 268 l 1069 359 z "},"‘":{"ha":278,"x_min":0,"x_max":0,"o":"m 182 596 l 182 745 b 202 827 182 780 189 807 b 250 868 216 847 232 861 l 182 925 b 107 860 152 912 127 890 b 77 745 87 830 77 792 l 77 596 z "},"’":{"ha":278,"x_min":0,"x_max":0,"o":"m 96 904 l 96 755 b 76 673 96 720 89 693 b 28 632 62 653 46 639 l 96 575 b 171 640 125 588 151 610 b 201 755 191 670 201 708 l 201 904 z "},"‚":{"ha":278,"x_min":0,"x_max":0,"o":"m 96 147 l 96 -1 b 76 -84 96 -37 89 -64 b 28 -125 62 -104 46 -118 l 96 -182 b 171 -117 125 -169 151 -148 b 201 -1 191 -87 201 -48 l 201 147 z "},"“":{"ha":486,"x_min":0,"x_max":0,"o":"m 182 596 l 182 745 b 202 827 182 780 189 807 b 250 868 216 847 232 861 l 182 925 b 107 860 152 912 127 890 b 77 745 87 830 77 792 l 77 596 z m 390 596 l 390 745 b 410 827 390 780 397 807 b 458 868 424 847 440 861 l 390 925 b 315 860 361 912 336 890 b 285 745 295 830 285 792 l 285 596 z "},"”":{"ha":486,"x_min":0,"x_max":0,"o":"m 96 904 l 96 755 b 76 673 96 720 89 693 b 28 632 62 653 46 639 l 96 575 b 171 640 125 588 151 610 b 201 755 191 670 201 708 l 201 904 z m 304 904 l 304 755 b 284 673 304 720 297 693 b 236 632 270 653 255 639 l 304 575 b 379 640 334 588 359 610 b 410 755 399 670 410 708 l 410 904 z "},"„":{"ha":486,"x_min":0,"x_max":0,"o":"m 96 147 l 96 -1 b 76 -84 96 -37 89 -64 b 28 -125 62 -104 46 -118 l 96 -182 b 171 -117 125 -169 151 -148 b 201 -1 191 -87 201 -48 l 201 147 z m 304 147 l 304 -1 b 284 -84 304 -37 297 -64 b 236 -125 270 -104 255 -118 l 304 -182 b 379 -117 334 -169 359 -148 b 410 -1 399 -87 410 -48 l 410 147 z "},"•":{"ha":555,"x_min":0,"x_max":0,"o":"m 431 364 b 418 426 431 386 426 407 b 385 474 410 445 399 461 b 336 506 371 488 355 498 b 278 517 318 513 298 517 b 223 506 260 517 241 513 b 174 474 205 498 189 488 b 138 426 159 461 147 445 b 125 364 129 407 125 386 b 138 296 125 339 129 316 b 174 244 147 275 159 258 b 223 211 189 230 205 219 b 278 200 241 204 260 200 b 386 244 320 200 355 215 b 431 364 416 273 431 313 z "},"…":{"ha":1250,"x_min":0,"x_max":0,"o":"m 1100 74 b 1077 131 1100 98 1092 117 b 1021 153 1061 145 1043 153 b 968 131 1002 153 984 145 b 945 74 953 117 945 98 b 968 13 945 48 953 27 b 1021 -9 984 -2 1002 -9 b 1077 13 1043 -9 1061 -2 b 1100 74 1092 27 1100 48 z m 308 74 b 284 131 308 98 300 117 b 229 153 269 145 250 153 b 176 131 210 153 192 145 b 153 74 160 117 153 98 b 176 13 153 48 160 27 b 229 -9 192 -2 210 -9 b 284 13 250 -9 269 -2 b 308 74 300 27 308 48 z m 697 74 b 674 131 697 98 689 117 b 618 153 658 145 640 153 b 566 131 599 153 581 145 b 542 74 550 117 542 98 b 566 13 542 48 550 27 b 618 -9 581 -2 599 -9 b 674 13 640 -9 658 -2 b 697 74 689 27 697 48 z "},"‰":{"ha":1665,"x_min":0,"x_max":0,"o":"m 346 0 l 856 904 l 767 904 l 257 0 z m 475 661 b 419 845 475 738 456 799 b 267 913 383 890 332 913 b 110 845 200 913 148 890 b 53 661 72 799 53 738 b 110 476 53 583 72 522 b 267 407 148 430 200 407 b 419 476 332 407 383 430 b 475 661 456 522 475 583 z m 389 660 b 355 527 389 604 378 560 b 264 478 333 494 303 478 b 172 527 225 478 194 494 b 138 660 149 560 138 604 b 172 793 138 715 149 760 b 264 844 194 827 225 844 b 355 793 303 844 333 827 b 389 660 378 760 389 715 z m 1089 243 b 1034 426 1089 320 1071 381 b 881 494 997 472 946 494 b 724 426 814 494 762 472 b 667 243 686 381 667 320 b 724 57 667 165 686 103 b 881 -12 762 11 814 -12 b 1034 57 946 -12 997 11 b 1089 243 1071 103 1089 165 z m 1003 241 b 970 109 1003 186 992 142 b 878 60 948 76 917 60 b 786 109 839 60 809 76 b 752 241 763 142 752 186 b 786 375 752 297 763 342 b 878 425 809 408 839 425 b 970 375 917 425 948 408 b 1003 241 992 342 1003 297 z m 1612 243 b 1557 426 1612 320 1594 381 b 1404 494 1520 472 1469 494 b 1247 426 1337 494 1285 472 b 1190 243 1209 381 1190 320 b 1247 57 1190 165 1209 103 b 1404 -12 1285 11 1337 -12 b 1557 57 1469 -12 1520 11 b 1612 243 1594 103 1612 165 z m 1526 241 b 1493 109 1526 186 1515 142 b 1401 60 1470 76 1440 60 b 1309 109 1362 60 1331 76 b 1275 241 1286 142 1275 186 b 1309 375 1275 297 1286 342 b 1401 425 1331 408 1362 425 b 1493 375 1440 425 1470 408 b 1526 241 1515 342 1526 297 z "},"‹":{"ha":389,"x_min":0,"x_max":0,"o":"m 211 50 l 309 50 l 155 300 l 309 550 l 211 550 l 41 300 z "},"›":{"ha":389,"x_min":0,"x_max":0,"o":"m 178 550 l 81 550 l 233 300 l 81 50 l 178 50 l 347 300 z "},"⁄":{"ha":56,"x_min":0,"x_max":0,"o":"m -182 0 l 328 904 l 239 904 l -271 0 z "},"⁰":{"ha":528,"x_min":0,"x_max":0,"o":"m 475 905 b 419 1089 475 982 456 1043 b 267 1157 383 1134 332 1157 b 110 1089 200 1157 148 1134 b 53 905 72 1043 53 982 b 110 720 53 828 72 766 b 267 651 148 674 200 651 b 419 720 332 651 383 674 b 475 905 456 766 475 828 z m 389 904 b 355 771 389 848 378 804 b 264 722 333 739 303 722 b 172 771 225 722 194 739 b 138 904 149 804 138 848 b 172 1038 138 960 149 1004 b 264 1088 194 1071 225 1088 b 355 1038 303 1088 333 1071 b 389 904 378 1004 389 960 z "},"⁴":{"ha":486,"x_min":0,"x_max":0,"o":"m 244 1149 l 45 842 l 21 806 l 46 757 l 294 757 l 294 663 l 371 663 l 371 757 l 463 757 l 463 823 l 371 823 l 371 1149 z m 294 1090 l 294 823 l 123 823 z "},"⁵":{"ha":486,"x_min":0,"x_max":0,"o":"m 164 960 l 180 1084 l 410 1084 l 410 1150 l 117 1150 l 85 907 l 140 878 b 181 902 150 886 164 894 b 237 914 198 910 217 914 b 315 886 271 914 297 905 b 343 812 334 868 343 843 b 316 743 343 785 334 762 b 231 714 298 724 269 714 b 155 736 201 714 176 721 b 111 786 135 751 120 767 l 56 726 b 120 676 70 708 91 691 b 232 653 150 661 187 653 b 372 697 288 653 335 668 b 428 817 409 726 428 766 b 413 886 428 843 423 866 b 374 935 404 906 391 922 b 319 965 358 948 340 958 b 254 975 298 972 276 975 b 204 971 238 975 221 974 b 164 960 187 968 174 964 z "},"⁶":{"ha":486,"x_min":0,"x_max":0,"o":"m 245 651 b 336 667 281 651 311 656 b 396 708 361 678 381 692 b 430 763 412 725 423 743 b 440 819 437 783 440 802 b 429 878 440 840 436 859 b 396 929 421 897 411 914 b 343 965 382 944 364 956 b 269 978 322 974 297 978 b 186 960 235 978 208 972 b 139 914 165 947 149 932 l 135 914 b 141 975 135 934 137 954 b 162 1034 145 996 152 1016 b 203 1079 173 1052 186 1067 b 267 1096 220 1090 241 1096 b 337 1076 298 1096 322 1089 b 368 1038 353 1063 363 1050 l 432 1080 b 377 1131 422 1097 403 1114 b 271 1157 351 1148 315 1157 b 161 1131 226 1157 190 1148 b 94 1063 132 1113 110 1090 b 62 974 78 1036 68 1006 b 53 883 56 942 53 912 b 64 792 53 850 57 820 b 98 719 72 764 83 740 b 158 669 113 698 133 682 b 245 651 182 657 212 651 z m 355 812 b 323 739 355 781 345 756 b 245 713 301 721 275 713 b 166 745 211 713 184 724 b 139 817 148 767 139 791 b 149 857 139 831 142 845 b 174 888 155 869 163 879 b 208 908 184 897 195 904 b 248 916 220 913 234 916 b 326 887 280 916 306 906 b 355 812 345 868 355 843 z "},"⁷":{"ha":444,"x_min":0,"x_max":0,"o":"m 415 1150 l 32 1150 l 32 1082 l 326 1082 b 208 890 276 1023 236 959 b 160 661 180 821 164 744 l 241 661 b 258 774 244 697 250 735 b 292 888 266 813 278 851 b 345 997 307 926 324 962 b 415 1095 365 1032 388 1065 z "},"⁸":{"ha":486,"x_min":0,"x_max":0,"o":"m 328 921 b 388 959 350 929 370 942 b 415 1031 406 976 415 1000 b 401 1082 415 1049 410 1066 b 364 1122 392 1098 379 1111 b 309 1148 348 1133 330 1142 b 243 1157 288 1154 266 1157 b 118 1118 191 1157 150 1144 b 71 1027 86 1092 71 1062 b 96 960 71 1000 79 977 b 154 921 112 943 132 930 b 115 904 141 916 128 911 b 79 877 101 897 89 888 b 54 841 69 867 61 854 b 45 794 48 827 45 812 b 60 734 45 772 50 752 b 102 689 70 716 84 701 b 165 661 120 677 141 667 b 243 651 189 654 215 651 b 384 689 299 651 346 664 b 440 797 421 714 440 750 b 405 876 440 829 428 856 b 328 921 381 897 356 911 z m 151 1022 b 177 1076 151 1044 160 1062 b 243 1096 194 1089 216 1096 b 309 1076 269 1096 291 1089 b 335 1022 326 1063 335 1045 b 308 968 335 999 326 981 b 243 949 290 955 268 949 b 177 969 216 949 194 956 b 151 1022 160 983 151 1001 z m 127 799 b 160 864 127 826 138 848 b 241 888 182 880 209 888 b 323 863 274 888 301 880 b 357 799 346 847 357 826 b 323 734 357 770 346 748 b 241 713 301 720 274 713 b 160 735 208 713 181 720 b 127 799 138 749 127 771 z "},"⁹":{"ha":486,"x_min":0,"x_max":0,"o":"m 240 1157 b 150 1141 205 1157 175 1152 b 90 1100 125 1130 105 1117 b 56 1045 74 1083 63 1065 b 46 989 50 1025 46 1006 b 57 930 46 968 50 949 b 90 879 64 911 75 894 b 143 844 104 865 122 853 b 216 831 164 835 189 831 b 300 849 251 831 279 837 b 347 895 321 861 337 876 l 351 895 b 345 833 351 875 349 855 b 324 774 341 812 334 793 b 283 730 314 756 300 742 b 220 713 267 719 245 713 b 149 732 188 713 164 719 b 118 771 133 745 123 758 l 54 728 b 109 677 64 711 82 694 b 215 651 135 660 171 651 b 325 677 260 651 296 660 b 392 745 354 695 376 718 b 424 834 407 772 418 802 b 433 925 430 866 433 896 b 422 1017 433 958 430 989 b 388 1090 415 1045 403 1069 b 329 1139 373 1111 353 1127 b 240 1157 304 1151 274 1157 z m 131 996 b 163 1069 131 1027 142 1052 b 240 1096 185 1087 211 1096 b 320 1063 275 1096 302 1085 b 347 991 338 1042 347 1018 b 337 951 347 977 344 963 b 312 920 331 939 322 929 b 278 900 302 911 291 904 b 239 893 266 895 253 893 b 161 922 207 893 181 903 b 131 996 141 941 131 965 z "},"⁺":{"ha":570,"x_min":0,"x_max":0,"o":"m 66 938 l 66 869 l 245 869 l 245 688 l 323 688 l 323 869 l 503 869 l 503 938 l 323 938 l 323 1119 l 245 1119 l 245 938 z "},"⁻":{"ha":570,"x_min":0,"x_max":0,"o":"m 66 938 l 66 869 l 503 869 l 503 938 z "},"⁼":{"ha":570,"x_min":0,"x_max":0,"o":"m 66 1008 l 66 938 l 503 938 l 503 1008 z m 66 869 l 66 800 l 503 800 l 503 869 z "},"⁽":{"ha":278,"x_min":0,"x_max":0,"o":"m 69 902 b 81 800 69 864 73 830 b 109 723 89 770 98 744 b 149 661 120 698 134 677 l 229 661 b 195 728 216 680 205 703 b 170 807 185 751 177 778 b 160 902 163 836 160 868 b 170 998 160 936 163 968 b 195 1076 177 1028 185 1053 b 229 1147 205 1101 216 1125 l 149 1147 b 109 1082 134 1129 120 1108 b 81 1005 98 1061 89 1035 b 69 902 73 975 69 941 z "},"⁾":{"ha":278,"x_min":0,"x_max":0,"o":"m 208 905 b 196 1007 208 943 204 977 b 170 1084 188 1037 179 1062 b 129 1147 157 1109 144 1130 l 49 1147 b 83 1078 61 1127 73 1105 b 107 1000 92 1055 100 1029 b 118 905 114 971 118 939 b 107 809 118 870 114 838 b 83 731 100 779 92 753 b 49 661 73 705 61 682 l 129 661 b 170 724 144 678 157 699 b 196 801 179 746 188 771 b 208 905 204 831 208 866 z "},"₀":{"ha":528,"x_min":0,"x_max":0,"o":"m 475 5 b 419 189 475 82 456 143 b 267 257 383 234 332 257 b 110 189 200 257 148 234 b 53 5 72 143 53 82 b 110 -180 53 -72 72 -134 b 267 -249 148 -226 200 -249 b 419 -180 332 -249 383 -226 b 475 5 456 -134 475 -72 z m 389 4 b 355 -129 389 -52 378 -96 b 264 -178 333 -161 303 -178 b 172 -129 225 -178 194 -161 b 138 4 149 -96 138 -52 b 172 138 138 60 149 104 b 264 188 194 171 225 188 b 355 138 303 188 333 171 b 389 4 378 104 389 60 z "},"₁":{"ha":486,"x_min":0,"x_max":0,"o":"m 57 -171 l 57 -237 l 432 -237 l 432 -171 l 289 -171 l 289 249 l 236 249 b 211 224 231 240 222 232 b 172 204 199 216 186 210 b 126 191 157 199 142 194 b 68 186 111 188 91 186 l 77 119 b 156 126 106 119 133 122 b 207 142 180 130 197 135 l 207 -171 z "},"₂":{"ha":486,"x_min":0,"x_max":0,"o":"m 74 79 l 149 56 b 142 107 144 76 142 93 b 167 166 142 131 150 151 b 231 189 184 182 205 189 b 303 161 265 189 289 180 b 325 102 318 143 325 123 b 302 29 325 78 317 54 b 242 -46 287 4 267 -21 b 158 -119 218 -71 190 -95 b 61 -184 127 -142 94 -164 l 61 -237 l 431 -237 l 431 -165 l 193 -165 b 275 -108 222 -146 249 -127 b 343 -46 301 -89 324 -68 b 390 26 363 -23 378 0 b 407 111 401 51 407 80 b 393 174 407 134 402 155 b 355 219 384 192 371 207 b 299 247 338 231 320 241 b 233 257 278 254 256 257 b 168 247 210 257 189 254 b 115 218 148 240 130 230 b 80 176 100 206 89 192 b 66 122 71 159 66 142 b 74 79 66 110 69 96 z "},"₃":{"ha":486,"x_min":0,"x_max":0,"o":"m 56 178 l 98 122 b 138 174 107 143 120 161 b 215 195 156 188 182 195 b 290 175 249 195 274 188 b 313 130 305 162 313 147 b 280 64 313 97 302 75 b 203 47 258 53 233 47 b 174 48 198 47 189 48 b 146 50 160 49 150 49 l 143 -25 b 178 -21 155 -24 167 -23 b 207 -18 187 -20 197 -19 b 231 -17 216 -17 224 -17 b 317 -38 272 -17 301 -24 b 342 -100 334 -53 342 -73 b 331 -139 342 -116 338 -129 b 304 -165 324 -150 315 -159 b 267 -180 293 -172 281 -177 b 224 -184 253 -183 238 -184 b 142 -159 192 -184 165 -176 b 97 -109 120 -142 105 -125 l 41 -172 b 71 -200 47 -181 57 -190 b 115 -225 85 -209 99 -217 b 172 -243 130 -232 149 -238 b 236 -249 195 -248 217 -250 b 298 -240 255 -249 276 -246 b 359 -212 321 -234 341 -224 b 406 -165 378 -199 393 -184 b 424 -98 418 -146 424 -124 b 405 -28 424 -69 418 -46 b 363 11 392 -11 378 2 b 302 33 345 21 325 29 b 349 53 319 37 335 43 b 380 85 360 60 370 71 b 395 139 390 99 395 117 b 354 221 395 169 381 197 b 231 257 326 245 285 257 b 120 235 187 257 150 250 b 56 178 90 220 69 201 z "},"₄":{"ha":486,"x_min":0,"x_max":0,"o":"m 244 249 l 45 -58 l 21 -94 l 46 -143 l 294 -143 l 294 -237 l 371 -237 l 371 -143 l 463 -143 l 463 -77 l 371 -77 l 371 249 z m 294 191 l 294 -77 l 123 -77 z "},"₅":{"ha":486,"x_min":0,"x_max":0,"o":"m 164 60 l 180 184 l 410 184 l 410 250 l 117 250 l 85 7 l 140 -22 b 181 2 150 -14 164 -6 b 237 14 198 10 217 14 b 315 -14 271 14 297 5 b 343 -87 334 -32 343 -57 b 316 -157 343 -115 334 -138 b 231 -186 298 -176 269 -186 b 155 -164 201 -186 176 -178 b 111 -114 135 -149 120 -132 l 56 -174 b 120 -224 70 -192 91 -209 b 232 -247 150 -239 187 -247 b 372 -203 288 -247 335 -232 b 428 -83 409 -174 428 -134 b 413 -14 428 -57 423 -34 b 374 35 404 6 391 22 b 319 65 358 48 340 58 b 254 75 298 72 276 75 b 204 71 238 75 221 74 b 164 60 187 68 174 64 z "},"₆":{"ha":486,"x_min":0,"x_max":0,"o":"m 245 -249 b 336 -233 281 -249 311 -243 b 396 -192 361 -222 381 -208 b 430 -137 412 -175 423 -157 b 440 -81 437 -117 440 -98 b 429 -22 440 -60 436 -41 b 396 29 421 -3 411 14 b 343 65 382 44 364 56 b 269 78 322 74 297 78 b 186 60 235 78 208 72 b 139 14 165 47 149 32 l 135 14 b 141 75 135 34 137 54 b 162 134 145 97 152 116 b 203 179 173 152 186 167 b 267 196 220 190 241 196 b 337 176 298 196 322 189 b 368 138 353 163 363 150 l 432 180 b 377 231 422 197 403 214 b 271 257 351 248 315 257 b 161 231 226 257 190 248 b 94 163 132 213 110 190 b 62 74 78 136 68 106 b 53 -17 56 42 53 12 b 64 -108 53 -50 57 -80 b 98 -181 72 -136 83 -160 b 158 -231 113 -202 133 -218 b 245 -249 182 -243 212 -249 z m 355 -87 b 323 -161 355 -119 345 -144 b 245 -187 301 -178 275 -187 b 166 -155 211 -187 184 -176 b 139 -83 148 -133 139 -109 b 149 -43 139 -68 142 -55 b 174 -12 155 -31 163 -21 b 208 8 184 -3 195 4 b 248 16 220 13 234 16 b 326 -13 280 16 306 6 b 355 -87 345 -32 355 -57 z "},"₇":{"ha":444,"x_min":0,"x_max":0,"o":"m 415 250 l 32 250 l 32 182 l 326 182 b 208 -10 276 123 236 60 b 160 -239 180 -79 164 -156 l 241 -239 b 258 -126 244 -203 250 -165 b 292 -12 266 -87 278 -49 b 345 97 307 26 324 62 b 415 195 365 132 388 165 z "},"₈":{"ha":486,"x_min":0,"x_max":0,"o":"m 328 21 b 388 59 350 29 370 42 b 415 131 406 76 415 100 b 401 182 415 149 410 166 b 364 222 392 198 379 211 b 309 248 348 233 330 242 b 243 257 288 254 266 257 b 118 218 191 257 150 244 b 71 127 86 192 71 162 b 96 60 71 100 79 78 b 154 21 112 43 132 30 b 115 4 141 17 128 11 b 79 -23 101 -3 89 -12 b 54 -59 69 -33 61 -45 b 45 -106 48 -73 45 -88 b 60 -166 45 -128 50 -148 b 102 -211 70 -184 84 -199 b 165 -239 120 -223 141 -232 b 243 -249 189 -246 215 -249 b 384 -211 299 -249 346 -236 b 440 -103 421 -186 440 -150 b 405 -24 440 -71 428 -44 b 328 21 381 -3 356 12 z m 151 122 b 177 176 151 144 160 162 b 243 196 194 189 216 196 b 309 176 269 196 291 189 b 335 122 326 163 335 145 b 308 68 335 99 326 81 b 243 49 290 55 268 49 b 177 70 216 49 194 56 b 151 122 160 83 151 101 z m 127 -101 b 160 -36 127 -73 138 -52 b 241 -12 182 -20 209 -12 b 323 -37 274 -12 301 -20 b 357 -101 346 -53 357 -74 b 323 -166 357 -130 346 -152 b 241 -187 301 -180 274 -187 b 160 -165 208 -187 181 -180 b 127 -101 138 -150 127 -129 z "},"₉":{"ha":486,"x_min":0,"x_max":0,"o":"m 240 257 b 150 241 205 257 175 252 b 90 200 125 230 105 217 b 56 145 74 183 63 165 b 46 89 50 125 46 106 b 57 30 46 68 50 49 b 90 -21 64 11 75 -6 b 143 -56 104 -35 122 -47 b 216 -69 164 -65 189 -69 b 300 -51 251 -69 279 -63 b 347 -5 321 -39 337 -24 l 351 -5 b 345 -66 351 -25 349 -45 b 324 -125 341 -88 334 -107 b 283 -170 314 -144 300 -158 b 220 -187 267 -181 245 -187 b 149 -168 188 -187 164 -181 b 118 -129 133 -155 123 -142 l 54 -172 b 109 -223 64 -189 82 -206 b 215 -249 135 -240 171 -249 b 325 -222 260 -249 296 -240 b 392 -155 354 -205 376 -182 b 424 -66 407 -128 418 -98 b 433 25 430 -34 433 -4 b 422 117 433 59 430 89 b 388 190 415 145 403 169 b 329 239 373 211 353 227 b 240 257 304 251 274 257 z m 131 96 b 163 170 131 127 142 152 b 240 196 185 187 211 196 b 320 163 275 196 302 185 b 347 92 338 142 347 118 b 337 51 347 77 344 63 b 312 20 331 39 322 29 b 278 0 302 11 291 5 b 239 -7 266 -5 253 -7 b 161 22 207 -7 181 3 b 131 96 141 41 131 65 z "},"₊":{"ha":570,"x_min":0,"x_max":0,"o":"m 66 38 l 66 -31 l 245 -31 l 245 -212 l 323 -212 l 323 -31 l 503 -31 l 503 38 l 323 38 l 323 219 l 245 219 l 245 38 z "},"₋":{"ha":570,"x_min":0,"x_max":0,"o":"m 66 38 l 66 -31 l 503 -31 l 503 38 z "},"₌":{"ha":570,"x_min":0,"x_max":0,"o":"m 66 108 l 66 38 l 503 38 l 503 108 z m 66 -31 l 66 -100 l 503 -100 l 503 -31 z "},"₍":{"ha":278,"x_min":0,"x_max":0,"o":"m 69 2 b 81 -100 69 -36 73 -70 b 109 -177 89 -130 98 -156 b 149 -239 120 -202 134 -223 l 229 -239 b 195 -172 216 -220 205 -197 b 170 -93 185 -149 177 -122 b 160 2 163 -64 160 -32 b 170 98 160 36 163 68 b 195 176 177 128 185 153 b 229 247 205 201 216 225 l 149 247 b 109 182 134 229 120 208 b 81 105 98 161 89 136 b 69 2 73 75 69 41 z "},"₎":{"ha":278,"x_min":0,"x_max":0,"o":"m 208 5 b 196 107 208 43 204 77 b 170 184 188 137 179 163 b 129 247 157 209 144 230 l 49 247 b 83 178 61 227 73 205 b 107 100 92 155 100 129 b 118 5 114 71 118 39 b 107 -91 118 -30 114 -62 b 83 -169 100 -121 92 -147 b 49 -239 73 -195 61 -218 l 129 -239 b 170 -176 144 -222 157 -201 b 196 -99 179 -154 188 -129 b 208 5 204 -69 208 -34 z "},"ₐ":{"ha":534,"x_min":0,"x_max":0,"o":"m 62 155 l 138 119 b 250 184 160 163 197 184 b 327 157 285 184 311 175 b 351 83 343 139 351 115 l 351 31 l 225 12 b 131 -12 185 8 154 0 b 80 -55 108 -23 91 -38 b 62 -119 68 -72 62 -94 b 104 -214 62 -160 76 -192 b 208 -248 132 -236 167 -248 b 300 -222 242 -248 272 -239 b 364 -157 328 -205 349 -183 b 392 -215 367 -180 376 -199 b 450 -237 407 -230 427 -237 b 482 -234 464 -237 474 -236 b 500 -225 489 -232 495 -229 l 496 -153 b 471 -160 489 -158 480 -160 b 445 -149 459 -160 450 -156 b 436 -102 439 -141 436 -126 l 436 92 b 426 157 436 116 433 137 b 395 210 420 177 409 195 b 338 244 381 224 362 236 b 253 257 314 253 286 257 b 62 155 168 257 104 223 z m 227 -178 b 174 -164 208 -178 191 -173 b 150 -118 158 -155 150 -139 b 178 -66 150 -94 159 -77 b 211 -54 187 -61 198 -57 b 253 -47 224 -52 238 -49 b 307 -40 271 -45 289 -42 b 351 -33 326 -37 340 -35 l 351 -71 b 342 -111 351 -85 348 -98 b 317 -145 337 -123 328 -135 b 278 -169 307 -155 293 -163 b 227 -178 262 -175 245 -178 z "},"ₑ":{"ha":536,"x_min":0,"x_max":0,"o":"m 142 -4 l 486 -4 b 488 11 487 1 488 6 l 488 25 b 475 117 488 59 483 89 b 437 191 467 145 454 170 b 374 240 421 212 400 228 b 286 257 349 251 320 257 b 192 240 252 257 221 251 b 119 190 164 228 140 212 b 72 110 99 169 83 142 b 56 4 61 78 56 43 b 69 -93 56 -30 60 -63 b 111 -174 78 -124 92 -151 b 184 -228 131 -197 155 -215 b 289 -248 213 -241 248 -248 b 378 -232 324 -248 354 -242 b 439 -196 403 -222 423 -210 b 479 -147 456 -182 469 -166 l 401 -111 b 376 -143 395 -124 387 -135 b 341 -166 367 -151 356 -159 b 286 -176 327 -173 308 -176 b 183 -134 245 -176 210 -162 b 142 -4 157 -106 143 -62 z m 281 184 b 334 176 302 184 320 182 b 369 150 348 170 360 161 b 389 113 377 139 384 127 b 396 74 394 100 396 87 l 396 65 l 146 65 b 187 151 149 100 163 129 b 281 184 211 173 242 184 z "},"ₒ":{"ha":575,"x_min":0,"x_max":0,"o":"m 519 4 b 502 111 519 44 514 79 b 454 190 491 142 475 169 b 381 240 434 212 410 228 b 289 257 353 251 322 257 b 195 240 255 257 223 251 b 121 190 167 228 142 212 b 73 111 101 169 84 142 b 56 4 61 79 56 44 b 73 -101 56 -35 61 -70 b 121 -180 84 -133 101 -159 b 195 -230 142 -202 167 -218 b 289 -248 223 -242 255 -248 b 381 -230 322 -248 353 -242 b 454 -180 410 -218 434 -202 b 502 -101 475 -159 491 -133 b 519 4 514 -70 519 -35 z m 432 4 b 392 -130 432 -55 419 -100 b 288 -175 365 -160 330 -175 b 184 -130 246 -175 211 -160 b 143 4 157 -100 143 -55 b 184 139 143 64 157 109 b 288 184 211 169 246 184 b 392 139 330 184 365 169 b 432 4 419 109 432 64 z "},"ₓ":{"ha":509,"x_min":0,"x_max":0,"o":"m 253 54 l 136 249 l 40 249 l 197 12 l 35 -231 l 134 -231 l 253 -28 l 375 -231 l 473 -231 l 311 12 l 468 249 l 372 249 z "},"€":{"ha":861,"x_min":0,"x_max":0,"o":"m 77 589 l 49 504 l 163 504 b 161 474 162 494 161 484 b 160 444 160 465 160 455 l 160 421 b 161 399 160 413 160 406 l 77 399 l 49 314 l 172 314 b 229 170 184 259 203 211 b 319 67 254 129 284 95 b 434 4 354 39 392 18 b 566 -17 476 -10 520 -17 b 692 -2 612 -17 654 -12 b 787 32 731 7 762 19 l 787 142 b 703 95 767 123 739 107 b 574 75 666 82 623 75 b 390 137 501 75 440 96 b 288 314 340 178 306 237 l 625 314 l 653 399 l 275 399 b 273 421 274 406 273 413 l 273 444 b 274 474 273 455 274 465 b 277 504 275 484 276 494 l 685 504 l 711 589 l 289 589 b 386 765 307 664 340 723 b 561 829 431 808 490 829 b 681 811 605 829 645 823 b 765 768 716 799 745 785 l 796 860 b 705 903 774 877 744 891 b 568 921 666 915 621 921 b 437 899 523 921 479 914 b 323 835 396 885 358 863 b 232 731 288 807 258 772 b 175 589 206 690 187 642 z "},"™":{"ha":1239,"x_min":0,"x_max":0,"o":"m 1046 904 l 937 904 l 801 582 l 663 904 l 554 904 l 554 418 l 629 418 l 629 807 l 760 497 l 840 497 l 971 807 l 971 418 l 1046 418 z m 467 840 l 467 904 l 41 904 l 41 840 l 214 840 l 214 418 l 288 418 l 288 840 z "},"⅓":{"ha":1111,"x_min":0,"x_max":0,"o":"m 681 415 l 724 359 b 764 412 732 381 746 398 b 840 432 782 425 807 432 b 915 412 875 432 899 425 b 938 367 930 399 938 384 b 905 301 938 334 927 313 b 828 285 884 290 858 285 b 800 286 824 285 814 285 b 771 288 785 286 776 287 l 768 212 b 803 216 781 213 792 215 b 832 219 812 217 822 218 b 856 220 841 220 850 220 b 943 199 897 220 926 213 b 967 138 959 185 967 164 b 957 98 967 122 964 109 b 929 72 950 87 941 79 b 892 58 918 66 906 61 b 849 53 878 54 864 53 b 768 78 817 53 790 61 b 722 129 745 95 730 112 l 667 65 b 696 38 673 56 682 47 b 740 13 710 28 725 20 b 798 -6 755 5 774 -1 b 861 -12 821 -11 842 -12 b 924 -2 881 -12 902 -8 b 985 25 946 4 966 13 b 1031 73 1003 38 1019 54 b 1049 139 1043 92 1049 114 b 1030 209 1049 168 1043 192 b 988 248 1017 226 1003 239 b 928 271 970 259 950 266 b 974 290 944 274 960 281 b 1005 322 985 297 996 308 b 1020 376 1015 336 1020 354 b 979 458 1020 407 1006 434 b 856 494 952 482 911 494 b 746 472 812 494 776 487 b 681 415 716 457 694 438 z m 346 0 l 856 904 l 767 904 l 257 0 z m 56 485 l 56 418 l 431 418 l 431 485 l 288 485 l 288 905 l 235 905 b 209 880 229 896 221 888 b 170 860 198 872 185 865 b 125 847 156 854 141 850 b 66 842 110 843 90 842 l 75 775 b 155 782 105 775 131 777 b 205 798 179 786 196 791 l 205 485 z "},"⅔":{"ha":1111,"x_min":0,"x_max":0,"o":"m 681 415 l 724 359 b 764 412 732 381 746 398 b 840 432 782 425 807 432 b 915 412 875 432 899 425 b 938 367 930 399 938 384 b 905 301 938 334 927 313 b 828 285 884 290 858 285 b 800 286 824 285 814 285 b 771 288 785 286 776 287 l 768 212 b 803 216 781 213 792 215 b 832 219 812 217 822 218 b 856 220 841 220 850 220 b 943 199 897 220 926 213 b 967 138 959 185 967 164 b 957 98 967 122 964 109 b 929 72 950 87 941 79 b 892 58 918 66 906 61 b 849 53 878 54 864 53 b 768 78 817 53 790 61 b 722 129 745 95 730 112 l 667 65 b 696 38 673 56 682 47 b 740 13 710 28 725 20 b 798 -6 755 5 774 -1 b 861 -12 821 -11 842 -12 b 924 -2 881 -12 902 -8 b 985 25 946 4 966 13 b 1031 73 1003 38 1019 54 b 1049 139 1043 92 1049 114 b 1030 209 1049 168 1043 192 b 988 248 1017 226 1003 239 b 928 271 970 259 950 266 b 974 290 944 274 960 281 b 1005 322 985 297 996 308 b 1020 376 1015 336 1020 354 b 979 458 1020 407 1006 434 b 856 494 952 482 911 494 b 746 472 812 494 776 487 b 681 415 716 457 694 438 z m 346 0 l 856 904 l 767 904 l 257 0 z m 67 735 l 142 711 b 135 763 137 732 135 749 b 160 822 135 787 143 807 b 224 845 177 837 198 845 b 297 817 258 845 282 836 b 318 758 311 799 318 779 b 295 685 318 734 310 710 b 236 610 280 660 260 635 b 152 537 211 585 183 561 b 54 471 120 514 88 492 l 54 418 l 424 418 l 424 490 l 186 490 b 268 548 215 510 242 529 b 336 610 294 567 317 588 b 383 682 356 632 371 656 b 400 767 394 707 400 735 b 386 829 400 790 395 811 b 348 875 377 848 364 863 b 292 903 332 887 313 896 b 227 913 271 910 250 913 b 161 902 203 913 182 909 b 109 874 141 895 123 886 b 73 831 94 862 82 848 b 60 778 64 815 60 797 b 67 735 60 766 62 752 z "},"⅕":{"ha":1111,"x_min":0,"x_max":0,"o":"m 779 297 l 795 422 l 1025 422 l 1025 488 l 732 488 l 700 244 l 755 215 b 796 240 765 224 779 232 b 852 252 813 248 832 252 b 930 224 886 252 912 242 b 958 150 949 205 958 181 b 931 80 958 122 949 99 b 846 52 913 61 885 52 b 770 74 816 52 791 59 b 726 123 750 88 735 105 l 671 64 b 735 13 685 45 706 28 b 847 -9 765 -2 802 -9 b 987 34 904 -9 950 5 b 1043 154 1024 63 1043 103 b 1028 223 1043 180 1038 203 b 989 272 1019 243 1006 259 b 934 302 973 285 955 295 b 869 313 913 309 892 313 b 819 308 853 313 836 311 b 779 297 802 305 789 302 z m 346 0 l 856 904 l 767 904 l 257 0 z m 54 485 l 54 418 l 429 418 l 429 485 l 286 485 l 286 905 l 233 905 b 208 880 228 896 219 888 b 169 860 196 872 183 865 b 124 847 154 854 139 850 b 65 842 108 843 89 842 l 74 775 b 154 782 103 775 130 777 b 204 798 177 786 194 791 l 204 485 z "},"⅖":{"ha":1111,"x_min":0,"x_max":0,"o":"m 779 297 l 795 422 l 1025 422 l 1025 488 l 732 488 l 700 244 l 755 215 b 796 240 765 224 779 232 b 852 252 813 248 832 252 b 930 224 886 252 912 242 b 958 150 949 205 958 181 b 931 80 958 122 949 99 b 846 52 913 61 885 52 b 770 74 816 52 791 59 b 726 123 750 88 735 105 l 671 64 b 735 13 685 45 706 28 b 847 -9 765 -2 802 -9 b 987 34 904 -9 950 5 b 1043 154 1024 63 1043 103 b 1028 223 1043 180 1038 203 b 989 272 1019 243 1006 259 b 934 302 973 285 955 295 b 869 313 913 309 892 313 b 819 308 853 313 836 311 b 779 297 802 305 789 302 z m 346 0 l 856 904 l 767 904 l 257 0 z m 67 735 l 142 711 b 135 763 137 732 135 749 b 160 822 135 787 143 807 b 224 845 177 837 198 845 b 297 817 258 845 282 836 b 318 758 311 799 318 779 b 295 685 318 734 310 710 b 236 610 280 660 260 635 b 152 537 211 585 183 561 b 54 471 120 514 88 492 l 54 418 l 424 418 l 424 490 l 186 490 b 268 548 215 510 242 529 b 336 610 294 567 317 588 b 383 682 356 632 371 656 b 400 767 394 707 400 735 b 386 829 400 790 395 811 b 348 875 377 848 364 863 b 292 903 332 887 313 896 b 227 913 271 910 250 913 b 161 902 203 913 182 909 b 109 874 141 895 123 886 b 73 831 94 862 82 848 b 60 778 64 815 60 797 b 67 735 60 766 62 752 z "},"⅗":{"ha":1111,"x_min":0,"x_max":0,"o":"m 779 297 l 795 422 l 1025 422 l 1025 488 l 732 488 l 700 244 l 755 215 b 796 240 765 224 779 232 b 852 252 813 248 832 252 b 930 224 886 252 912 242 b 958 150 949 205 958 181 b 931 80 958 122 949 99 b 846 52 913 61 885 52 b 770 74 816 52 791 59 b 726 123 750 88 735 105 l 671 64 b 735 13 685 45 706 28 b 847 -9 765 -2 802 -9 b 987 34 904 -9 950 5 b 1043 154 1024 63 1043 103 b 1028 223 1043 180 1038 203 b 989 272 1019 243 1006 259 b 934 302 973 285 955 295 b 869 313 913 309 892 313 b 819 308 853 313 836 311 b 779 297 802 305 789 302 z m 346 0 l 856 904 l 767 904 l 257 0 z m 65 833 l 108 778 b 148 830 116 799 130 817 b 224 850 166 844 191 850 b 299 831 259 850 284 844 b 322 785 314 818 322 802 b 290 720 322 753 311 731 b 212 703 268 709 242 703 b 184 704 208 703 198 703 b 155 706 169 704 160 705 l 153 631 b 187 635 165 632 176 633 b 216 637 197 636 206 637 b 240 639 226 638 234 639 b 327 617 282 639 311 632 b 351 556 343 603 351 583 b 341 516 351 540 348 527 b 314 491 334 506 325 497 b 276 476 303 484 290 479 b 233 471 262 473 248 471 b 152 497 202 471 175 480 b 106 547 129 514 114 531 l 51 484 b 80 456 57 474 67 465 b 124 431 94 447 109 438 b 182 413 139 424 159 417 b 245 407 205 408 226 406 b 308 416 265 407 286 410 b 369 444 330 422 350 431 b 415 491 387 456 403 472 b 433 557 427 510 433 532 b 414 627 433 587 427 610 b 372 667 402 644 388 658 b 312 689 355 677 335 684 b 358 709 329 693 344 699 b 390 741 369 716 380 727 b 404 795 399 755 404 773 b 363 877 404 825 391 852 b 240 913 336 901 295 913 b 130 890 197 913 160 905 b 65 833 100 876 78 857 z "},"⅘":{"ha":1111,"x_min":0,"x_max":0,"o":"m 779 297 l 795 422 l 1025 422 l 1025 488 l 732 488 l 700 244 l 755 215 b 796 240 765 224 779 232 b 852 252 813 248 832 252 b 930 224 886 252 912 242 b 958 150 949 205 958 181 b 931 80 958 122 949 99 b 846 52 913 61 885 52 b 770 74 816 52 791 59 b 726 123 750 88 735 105 l 671 64 b 735 13 685 45 706 28 b 847 -9 765 -2 802 -9 b 987 34 904 -9 950 5 b 1043 154 1024 63 1043 103 b 1028 223 1043 180 1038 203 b 989 272 1019 243 1006 259 b 934 302 973 285 955 295 b 869 313 913 309 892 313 b 819 308 853 313 836 311 b 779 297 802 305 789 302 z m 244 905 l 45 597 l 21 562 l 46 513 l 294 513 l 294 418 l 371 418 l 371 513 l 463 513 l 463 579 l 371 579 l 371 905 z m 294 846 l 294 579 l 123 579 z m 346 0 l 856 904 l 767 904 l 257 0 z "},"⅙":{"ha":1111,"x_min":0,"x_max":0,"o":"m 857 -12 b 947 5 892 -12 922 -6 b 1007 46 972 16 992 29 b 1041 100 1023 62 1034 80 b 1051 157 1048 120 1051 139 b 1040 216 1051 177 1047 197 b 1007 267 1033 235 1022 252 b 954 302 993 281 975 293 b 880 315 933 311 908 315 b 797 297 846 315 819 309 b 750 252 776 285 760 270 l 746 252 b 752 313 746 271 748 291 b 773 372 756 334 763 354 b 814 416 784 390 797 405 b 878 433 831 428 852 433 b 948 414 909 433 933 427 b 979 375 964 401 974 388 l 1043 418 b 988 469 1033 434 1014 451 b 882 494 962 486 926 494 b 772 468 837 494 801 486 b 705 400 743 450 721 428 b 673 312 689 373 679 343 b 664 220 667 280 664 249 b 675 129 664 187 668 157 b 709 56 683 101 694 77 b 769 7 724 35 744 19 b 857 -12 793 -5 823 -12 z m 966 150 b 934 76 966 118 956 94 b 857 50 912 59 886 50 b 777 83 822 50 795 61 b 750 154 759 104 750 128 b 760 194 750 169 753 182 b 785 225 766 206 774 217 b 819 246 795 234 806 241 b 859 253 831 251 845 253 b 937 224 891 253 917 243 b 966 150 956 205 966 181 z m 346 0 l 856 904 l 767 904 l 257 0 z m 56 485 l 56 418 l 431 418 l 431 485 l 288 485 l 288 905 l 235 905 b 209 880 229 896 221 888 b 170 860 198 872 185 865 b 125 847 156 854 141 850 b 66 842 110 843 90 842 l 75 775 b 155 782 105 775 131 777 b 205 798 179 786 196 791 l 205 485 z "},"⅚":{"ha":1111,"x_min":0,"x_max":0,"o":"m 857 -12 b 947 5 892 -12 922 -6 b 1007 46 972 16 992 29 b 1041 100 1023 62 1034 80 b 1051 157 1048 120 1051 139 b 1040 216 1051 177 1047 197 b 1007 267 1033 235 1022 252 b 954 302 993 281 975 293 b 880 315 933 311 908 315 b 797 297 846 315 819 309 b 750 252 776 285 760 270 l 746 252 b 752 313 746 271 748 291 b 773 372 756 334 763 354 b 814 416 784 390 797 405 b 878 433 831 428 852 433 b 948 414 909 433 933 427 b 979 375 964 401 974 388 l 1043 418 b 988 469 1033 434 1014 451 b 882 494 962 486 926 494 b 772 468 837 494 801 486 b 705 400 743 450 721 428 b 673 312 689 373 679 343 b 664 220 667 280 664 249 b 675 129 664 187 668 157 b 709 56 683 101 694 77 b 769 7 724 35 744 19 b 857 -12 793 -5 823 -12 z m 966 150 b 934 76 966 118 956 94 b 857 50 912 59 886 50 b 777 83 822 50 795 61 b 750 154 759 104 750 128 b 760 194 750 169 753 182 b 785 225 766 206 774 217 b 819 246 795 234 806 241 b 859 253 831 251 845 253 b 937 224 891 253 917 243 b 966 150 956 205 966 181 z m 161 715 l 178 840 l 407 840 l 407 906 l 114 906 l 82 663 l 138 633 b 178 658 148 642 161 650 b 235 670 196 666 214 670 b 313 642 268 670 294 661 b 340 568 331 624 340 599 b 313 498 340 541 331 517 b 228 470 295 479 267 470 b 153 492 198 470 173 477 b 109 542 132 507 118 523 l 53 482 b 118 432 67 464 89 447 b 229 409 147 417 184 409 b 370 453 286 409 333 424 b 425 572 407 482 425 522 b 411 642 425 599 420 622 b 372 691 401 661 388 678 b 316 721 355 704 337 714 b 252 731 295 728 274 731 b 201 727 235 731 218 730 b 161 715 185 724 171 720 z m 346 0 l 856 904 l 767 904 l 257 0 z "},"⅛":{"ha":1111,"x_min":0,"x_max":0,"o":"m 935 258 b 995 296 957 267 977 279 b 1022 368 1013 314 1022 338 b 1008 419 1022 387 1017 404 b 971 459 999 435 986 448 b 916 485 955 471 937 479 b 850 494 895 491 873 494 b 725 455 798 494 757 481 b 677 365 693 429 677 399 b 703 298 677 337 686 315 b 761 258 719 281 739 267 b 722 241 748 254 735 248 b 686 215 708 234 696 225 b 661 178 676 204 668 192 b 652 132 655 165 652 149 b 667 71 652 109 657 89 b 709 26 677 53 691 38 b 772 -2 727 14 748 5 b 850 -12 796 -8 822 -12 b 991 26 906 -12 953 1 b 1047 134 1028 51 1047 87 b 1012 214 1047 167 1035 193 b 935 258 988 234 963 249 z m 758 359 b 784 413 758 382 767 399 b 850 433 801 427 823 433 b 916 414 876 433 898 427 b 942 359 933 401 942 382 b 915 306 942 336 933 318 b 850 286 897 293 875 286 b 784 307 823 286 801 293 b 758 359 767 321 758 338 z m 734 136 b 767 201 734 164 745 186 b 848 225 789 217 816 225 b 930 201 881 225 908 217 b 964 136 953 184 964 163 b 930 72 964 107 953 86 b 848 50 908 57 881 50 b 767 72 815 50 788 58 b 734 136 745 87 734 108 z m 346 0 l 856 904 l 767 904 l 257 0 z m 56 485 l 56 418 l 431 418 l 431 485 l 288 485 l 288 905 l 235 905 b 209 880 229 896 221 888 b 170 860 198 872 185 865 b 125 847 156 854 141 850 b 66 842 110 843 90 842 l 75 775 b 155 782 105 775 131 777 b 205 798 179 786 196 791 l 205 485 z "},"⅜":{"ha":1111,"x_min":0,"x_max":0,"o":"m 935 258 b 995 296 957 267 977 279 b 1022 368 1013 314 1022 338 b 1008 419 1022 387 1017 404 b 971 459 999 435 986 448 b 916 485 955 471 937 479 b 850 494 895 491 873 494 b 725 455 798 494 757 481 b 677 365 693 429 677 399 b 703 298 677 337 686 315 b 761 258 719 281 739 267 b 722 241 748 254 735 248 b 686 215 708 234 696 225 b 661 178 676 204 668 192 b 652 132 655 165 652 149 b 667 71 652 109 657 89 b 709 26 677 53 691 38 b 772 -2 727 14 748 5 b 850 -12 796 -8 822 -12 b 991 26 906 -12 953 1 b 1047 134 1028 51 1047 87 b 1012 214 1047 167 1035 193 b 935 258 988 234 963 249 z m 758 359 b 784 413 758 382 767 399 b 850 433 801 427 823 433 b 916 414 876 433 898 427 b 942 359 933 401 942 382 b 915 306 942 336 933 318 b 850 286 897 293 875 286 b 784 307 823 286 801 293 b 758 359 767 321 758 338 z m 734 136 b 767 201 734 164 745 186 b 848 225 789 217 816 225 b 930 201 881 225 908 217 b 964 136 953 184 964 163 b 930 72 964 107 953 86 b 848 50 908 57 881 50 b 767 72 815 50 788 58 b 734 136 745 87 734 108 z m 346 0 l 856 904 l 767 904 l 257 0 z m 65 833 l 108 778 b 148 830 116 799 130 817 b 224 850 166 844 191 850 b 299 831 259 850 284 844 b 322 785 314 818 322 802 b 290 720 322 753 311 731 b 212 703 268 709 242 703 b 184 704 208 703 198 703 b 155 706 169 704 160 705 l 153 631 b 187 635 165 632 176 633 b 216 637 197 636 206 637 b 240 639 226 638 234 639 b 327 617 282 639 311 632 b 351 556 343 603 351 583 b 341 516 351 540 348 527 b 314 491 334 506 325 497 b 276 476 303 484 290 479 b 233 471 262 473 248 471 b 152 497 202 471 175 480 b 106 547 129 514 114 531 l 51 484 b 80 456 57 474 67 465 b 124 431 94 447 109 438 b 182 413 139 424 159 417 b 245 407 205 408 226 406 b 308 416 265 407 286 410 b 369 444 330 422 350 431 b 415 491 387 456 403 472 b 433 557 427 510 433 532 b 414 627 433 587 427 610 b 372 667 402 644 388 658 b 312 689 355 677 335 684 b 358 709 329 693 344 699 b 390 741 369 716 380 727 b 404 795 399 755 404 773 b 363 877 404 825 391 852 b 240 913 336 901 295 913 b 130 890 197 913 160 905 b 65 833 100 876 78 857 z "},"⅝":{"ha":1111,"x_min":0,"x_max":0,"o":"m 935 258 b 995 296 957 267 977 279 b 1022 368 1013 314 1022 338 b 1008 419 1022 387 1017 404 b 971 459 999 435 986 448 b 916 485 955 471 937 479 b 850 494 895 491 873 494 b 725 455 798 494 757 481 b 677 365 693 429 677 399 b 703 298 677 337 686 315 b 761 258 719 281 739 267 b 722 241 748 254 735 248 b 686 215 708 234 696 225 b 661 178 676 204 668 192 b 652 132 655 165 652 149 b 667 71 652 109 657 89 b 709 26 677 53 691 38 b 772 -2 727 14 748 5 b 850 -12 796 -8 822 -12 b 991 26 906 -12 953 1 b 1047 134 1028 51 1047 87 b 1012 214 1047 167 1035 193 b 935 258 988 234 963 249 z m 758 359 b 784 413 758 382 767 399 b 850 433 801 427 823 433 b 916 414 876 433 898 427 b 942 359 933 401 942 382 b 915 306 942 336 933 318 b 850 286 897 293 875 286 b 784 307 823 286 801 293 b 758 359 767 321 758 338 z m 734 136 b 767 201 734 164 745 186 b 848 225 789 217 816 225 b 930 201 881 225 908 217 b 964 136 953 184 964 163 b 930 72 964 107 953 86 b 848 50 908 57 881 50 b 767 72 815 50 788 58 b 734 136 745 87 734 108 z m 161 715 l 178 840 l 407 840 l 407 906 l 114 906 l 82 663 l 138 633 b 178 658 148 642 161 650 b 235 670 196 666 214 670 b 313 642 268 670 294 661 b 340 568 331 624 340 599 b 313 498 340 541 331 517 b 228 470 295 479 267 470 b 153 492 198 470 173 477 b 109 542 132 507 118 523 l 53 482 b 118 432 67 464 89 447 b 229 409 147 417 184 409 b 370 453 286 409 333 424 b 425 572 407 482 425 522 b 411 642 425 599 420 622 b 372 691 401 661 388 678 b 316 721 355 704 337 714 b 252 731 295 728 274 731 b 201 727 235 731 218 730 b 161 715 185 724 171 720 z m 346 0 l 856 904 l 767 904 l 257 0 z "},"⅞":{"ha":1111,"x_min":0,"x_max":0,"o":"m 935 258 b 995 296 957 267 977 279 b 1022 368 1013 314 1022 338 b 1008 419 1022 387 1017 404 b 971 459 999 435 986 448 b 916 485 955 471 937 479 b 850 494 895 491 873 494 b 725 455 798 494 757 481 b 677 365 693 429 677 399 b 703 298 677 337 686 315 b 761 258 719 281 739 267 b 722 241 748 254 735 248 b 686 215 708 234 696 225 b 661 178 676 204 668 192 b 652 132 655 165 652 149 b 667 71 652 109 657 89 b 709 26 677 53 691 38 b 772 -2 727 14 748 5 b 850 -12 796 -8 822 -12 b 991 26 906 -12 953 1 b 1047 134 1028 51 1047 87 b 1012 214 1047 167 1035 193 b 935 258 988 234 963 249 z m 758 359 b 784 413 758 382 767 399 b 850 433 801 427 823 433 b 916 414 876 433 898 427 b 942 359 933 401 942 382 b 915 306 942 336 933 318 b 850 286 897 293 875 286 b 784 307 823 286 801 293 b 758 359 767 321 758 338 z m 734 136 b 767 201 734 164 745 186 b 848 225 789 217 816 225 b 930 201 881 225 908 217 b 964 136 953 184 964 163 b 930 72 964 107 953 86 b 848 50 908 57 881 50 b 767 72 815 50 788 58 b 734 136 745 87 734 108 z m 443 906 l 60 906 l 60 838 l 354 838 b 236 646 303 779 264 715 b 188 417 207 577 191 500 l 269 417 b 286 530 272 453 277 491 b 320 644 294 569 306 607 b 372 753 335 682 352 718 b 443 850 393 788 416 821 z m 346 0 l 856 904 l 767 904 l 257 0 z "},"−":{"ha":708,"x_min":0,"x_max":0,"o":"m 646 357 l 646 357 l 49 357 l 49 271 l 646 271 z "},"◼":{"ha":637,"x_min":0,"x_max":0,"o":"m 0 637 l 0 0 l 637 0 l 637 637 z "},"ﬁ":{"ha":796,"x_min":0,"x_max":0,"o":"m 157 0 l 262 0 l 262 551 l 408 551 l 408 639 l 262 639 l 262 786 b 291 890 262 837 272 872 b 361 917 310 908 333 917 b 381 916 368 917 375 916 b 397 913 387 915 392 914 b 412 909 403 911 408 910 l 427 994 b 404 999 420 995 412 997 b 380 1003 397 1001 389 1002 b 351 1004 371 1004 362 1004 b 210 950 293 1004 246 986 b 157 799 175 914 157 864 l 157 639 l 41 639 l 41 551 l 157 551 z m 696 871 b 672 929 696 896 688 915 b 616 950 655 943 637 950 b 564 929 596 950 578 943 b 540 871 548 916 540 897 b 564 810 540 845 548 825 b 616 787 580 795 598 787 b 672 810 636 787 654 795 b 696 871 688 826 696 846 z m 565 0 l 671 0 l 671 639 l 565 639 z "},"ﬂ":{"ha":796,"x_min":0,"x_max":0,"o":"m 157 0 l 262 0 l 262 551 l 408 551 l 408 639 l 262 639 l 262 786 b 291 890 262 837 272 872 b 361 917 310 908 333 917 b 381 916 368 917 375 916 b 397 913 387 915 392 914 b 412 909 403 911 408 910 l 427 994 b 404 999 420 995 412 997 b 380 1003 397 1001 389 1002 b 351 1004 371 1004 362 1004 b 210 950 293 1004 246 986 b 157 799 175 914 157 864 l 157 639 l 41 639 l 41 551 l 157 551 z m 565 987 l 565 0 l 671 0 l 671 987 z "},"ﬃ":{"ha":1236,"x_min":0,"x_max":0,"o":"m 157 0 l 262 0 l 262 551 l 408 551 l 408 639 l 262 639 l 262 786 b 291 890 262 837 272 872 b 361 917 310 908 333 917 b 381 916 368 917 375 916 b 397 913 387 915 392 914 b 412 909 403 911 408 910 l 427 994 b 404 999 420 995 412 997 b 380 1003 397 1001 389 1002 b 351 1004 371 1004 362 1004 b 210 950 293 1004 246 986 b 157 799 175 914 157 864 l 157 639 l 41 639 l 41 551 l 157 551 z m 597 0 l 703 0 l 703 551 l 848 551 l 848 639 l 703 639 l 703 786 b 731 890 703 837 712 872 b 801 917 750 908 773 917 b 821 916 809 917 815 916 b 838 913 827 915 833 914 b 852 909 843 911 848 910 l 867 994 b 844 999 860 995 852 997 b 820 1003 837 1001 829 1002 b 791 1004 811 1004 802 1004 b 650 950 733 1004 686 986 b 597 799 615 914 597 864 l 597 639 l 481 639 l 481 551 l 597 551 z m 1137 871 b 1113 929 1137 896 1129 915 b 1057 950 1096 943 1078 950 b 1004 929 1037 950 1019 943 b 981 871 989 916 981 897 b 1004 810 981 845 989 825 b 1057 787 1021 795 1039 787 b 1113 810 1077 787 1095 795 b 1137 871 1129 826 1137 846 z m 1005 0 l 1111 0 l 1111 639 l 1005 639 z "},"ﬄ":{"ha":1236,"x_min":0,"x_max":0,"o":"m 157 0 l 262 0 l 262 551 l 408 551 l 408 639 l 262 639 l 262 786 b 291 890 262 837 272 872 b 361 917 310 908 333 917 b 381 916 368 917 375 916 b 397 913 387 915 392 914 b 412 909 403 911 408 910 l 427 994 b 404 999 420 995 412 997 b 380 1003 397 1001 389 1002 b 351 1004 371 1004 362 1004 b 210 950 293 1004 246 986 b 157 799 175 914 157 864 l 157 639 l 41 639 l 41 551 l 157 551 z m 597 0 l 703 0 l 703 551 l 848 551 l 848 639 l 703 639 l 703 786 b 731 890 703 837 712 872 b 801 917 750 908 773 917 b 821 916 809 917 815 916 b 838 913 827 915 833 914 b 852 909 843 911 848 910 l 867 994 b 844 999 860 995 852 997 b 820 1003 837 1001 829 1002 b 791 1004 811 1004 802 1004 b 650 950 733 1004 686 986 b 597 799 615 914 597 864 l 597 639 l 481 639 l 481 551 l 597 551 z m 1005 987 l 1005 0 l 1111 0 l 1111 987 z "}}}
